{"glyphs":{"0":{"ha":861,"x_min":72,"x_max":800,"o":"m 403 -12 q 227 25 301 -12 q 113 132 153 63 q 72 293 72 201 q 82 382 72 329 q 157 551 100 478 q 299 663 214 624 q 482 703 383 703 q 715 624 629 703 q 800 410 800 544 q 792 322 800 368 q 718 149 774 225 q 581 30 663 72 q 403 -12 499 -12 m 422 53 q 569 115 507 53 q 656 299 632 178 q 665 396 665 347 q 609 572 665 507 q 456 636 553 636 q 299 574 363 636 q 214 401 235 513 q 206 308 206 351 q 263 122 206 192 q 422 53 321 53 z "},"1":{"ha":524,"x_min":50,"x_max":485,"o":"m 50 -4 q 61 56 50 31 q 119 70 100 60 q 150 104 139 81 q 171 176 161 128 l 236 518 q 242 567 242 544 q 222 617 242 603 q 153 639 201 632 q 150 674 150 661 q 151 699 150 690 q 315 694 228 694 q 485 699 401 694 q 472 639 482 661 q 415 621 435 632 q 384 587 396 610 q 364 518 372 564 l 299 176 q 292 122 292 139 q 311 75 292 89 q 381 56 331 61 q 385 18 385 39 q 383 -4 385 3 q 215 0 300 0 q 50 -4 121 0 z "},"2":{"ha":674,"x_min":11,"x_max":608,"o":"m 397 703 q 163 639 271 703 q 131 458 158 546 q 204 446 156 446 q 368 639 244 639 q 444 612 417 639 q 471 536 471 585 q 433 409 471 472 q 319 290 394 346 q 13 54 138 153 q 11 35 11 47 q 22 -4 11 13 q 272 0 117 0 q 418 -3 343 0 q 472 -4 442 -4 q 517 2 503 -4 q 540 29 531 8 q 558 200 540 101 q 486 211 533 211 q 458 139 474 157 q 413 121 443 121 q 379 122 393 121 q 301 125 338 125 q 203 122 236 125 l 263 169 q 336 228 314 211 q 424 294 358 244 q 555 414 514 364 q 606 524 596 464 q 608 556 608 546 q 553 665 608 626 q 397 703 499 703 z "},"3":{"ha":669,"x_min":-1,"x_max":593,"o":"m 147 639 q 114 458 143 535 q 189 446 143 443 q 356 639 229 639 q 428 613 401 639 q 454 539 454 588 q 451 504 454 529 q 374 365 438 424 q 201 272 310 306 q 200 257 200 267 q 215 217 200 229 q 365 177 315 217 q 415 68 415 138 q 410 22 415 56 q 322 -118 392 -65 q 146 -171 251 -171 q 28 -147 71 -171 q -1 -199 0 -162 q 151 -237 46 -237 q 406 -164 300 -237 q 543 32 513 -90 q 553 104 553 67 q 510 236 553 182 q 392 303 467 290 q 528 403 483 351 q 588 510 574 454 q 593 556 593 531 q 538 663 593 624 q 379 703 483 703 q 147 639 249 703 z "},"4":{"ha":735,"x_min":11,"x_max":629,"o":"m 629 97 q 597 0 606 49 l 486 0 l 447 -212 q 338 -237 388 -217 q 322 -206 322 -228 q 324 -189 322 -196 l 358 -1 l 83 -6 q 35 -7 65 -7 q 14 69 11 22 q 549 703 326 428 q 611 690 586 703 l 507 118 l 585 118 q 629 97 613 118 m 381 108 l 414 299 q 436 415 426 364 q 457 500 446 465 q 301 306 399 421 q 125 108 204 192 l 381 108 z "},"5":{"ha":644,"x_min":-24,"x_max":610,"o":"m 97 342 q 122 303 99 315 q 323 236 249 297 q 397 82 397 175 q 362 -45 397 13 q 265 -137 326 -103 q 125 -171 203 -171 q 4 -147 53 -171 q -24 -199 -19 -165 q 128 -237 35 -237 q 308 -201 224 -237 q 451 -96 393 -164 q 525 63 508 -28 q 531 121 531 89 q 437 323 531 243 q 190 421 343 403 l 233 563 q 535 569 329 569 q 585 594 571 569 q 610 758 589 689 q 536 771 585 771 q 510 715 529 736 q 442 694 490 694 q 211 699 288 694 l 97 342 z "},"6":{"ha":746,"x_min":85,"x_max":713,"o":"m 711 839 q 408 718 521 804 q 249 496 296 632 q 332 537 292 525 q 421 549 372 549 q 592 488 529 549 q 654 325 654 428 q 647 253 654 285 q 540 60 624 133 q 343 -12 457 -12 q 153 63 221 -12 q 85 272 85 139 q 97 393 85 329 q 212 644 125 535 q 428 815 299 753 q 706 886 557 878 q 713 857 713 875 q 711 839 713 844 m 381 467 q 300 458 335 467 q 231 429 265 449 q 225 401 228 418 q 214 279 214 342 q 252 112 214 172 q 361 51 290 51 q 462 100 418 51 q 519 229 506 149 q 526 294 526 268 q 488 420 526 374 q 381 467 449 467 z "},"7":{"ha":644,"x_min":113,"x_max":640,"o":"m 621 699 q 640 654 638 686 q 428 342 489 436 q 336 189 367 247 q 283 44 299 117 q 258 -150 267 -28 q 199 -189 231 -164 q 151 -236 168 -214 q 122 -216 131 -233 q 113 -156 113 -199 q 145 -1 113 -83 q 262 212 178 81 q 513 571 346 343 l 329 571 q 242 545 269 571 q 190 446 214 519 q 117 458 143 443 q 163 699 153 579 q 413 694 242 694 q 621 699 519 694 z "},"8":{"ha":710,"x_min":56,"x_max":667,"o":"m 667 718 q 615 585 667 638 q 476 488 564 532 q 577 376 539 435 q 615 244 615 318 q 606 176 615 218 q 503 35 581 82 q 313 -12 426 -12 q 124 37 192 -12 q 56 178 56 86 q 61 235 56 208 q 129 364 78 311 q 292 471 181 417 q 209 558 240 513 q 178 663 178 603 q 185 714 178 683 q 276 838 204 792 q 451 885 349 885 q 612 838 557 885 q 667 718 667 790 m 542 669 q 546 713 546 693 q 515 794 546 767 q 438 821 485 821 q 360 797 392 821 q 315 726 328 774 q 310 688 310 708 q 340 603 310 639 q 424 528 369 567 q 426 525 426 525 q 504 588 476 554 q 542 669 532 621 m 474 168 q 481 219 481 199 q 444 329 481 281 q 339 433 408 378 q 230 349 267 396 q 182 239 193 303 q 178 190 178 213 q 216 87 178 122 q 324 51 254 51 q 474 168 446 51 z "},"9":{"ha":742,"x_min":24,"x_max":668,"o":"m 411 703 q 601 628 533 703 q 668 424 668 554 q 654 301 668 375 q 537 31 624 150 q 320 -158 450 -87 q 33 -236 190 -228 q 24 -189 24 -221 q 492 165 381 -126 q 414 129 451 140 q 332 118 376 118 q 158 183 217 118 q 99 353 99 247 q 108 442 99 399 q 213 633 135 564 q 411 703 292 703 m 526 293 q 538 415 538 353 q 499 580 538 521 q 393 639 460 639 q 292 591 333 639 q 235 457 250 543 q 228 383 228 415 q 265 251 228 301 q 382 200 303 200 q 514 235 449 200 l 526 293 z "},"\r":{"ha":250,"x_min":0,"x_max":0,"o":""}," ":{"ha":250,"x_min":0,"x_max":0,"o":""},"A":{"ha":954,"x_min":-37,"x_max":872,"o":"m 865 56 q 869 -4 872 31 q 715 0 824 0 q 557 -4 613 0 q 568 56 557 32 q 634 74 615 61 q 653 117 653 86 q 644 169 653 136 q 613 304 625 249 q 242 299 390 304 q 203 232 217 254 l 183 199 q 142 99 142 128 q 156 70 142 79 q 204 56 171 61 q 208 -4 210 26 q 81 0 164 0 q -37 -4 3 0 q -26 56 -37 32 q 38 97 11 67 q 114 210 65 126 q 529 939 299 525 q 583 947 549 947 q 783 183 690 575 q 807 107 796 132 q 831 72 818 82 q 865 56 843 63 m 596 368 q 529 621 564 500 q 496 767 508 692 q 415 611 468 710 q 282 368 339 467 l 596 368 z "},"Á":{"ha":954,"x_min":-37,"x_max":872,"o":"m 865 56 q 869 -4 872 31 q 715 0 824 0 q 557 -4 613 0 q 568 56 557 32 q 634 74 615 61 q 653 117 653 86 q 644 169 653 136 q 613 304 625 249 q 242 299 390 304 q 203 232 217 254 l 183 199 q 142 99 142 128 q 156 70 142 79 q 204 56 171 61 q 208 -4 210 26 q 81 0 164 0 q -37 -4 3 0 q -26 56 -37 32 q 38 97 11 67 q 114 210 65 126 q 529 939 299 525 q 583 947 549 947 q 783 183 690 575 q 807 107 796 132 q 831 72 818 82 q 865 56 843 63 m 596 368 q 529 621 564 500 q 496 767 508 692 q 415 611 468 710 q 282 368 339 467 l 596 368 m 553 1013 q 501 1035 524 1014 q 572 1131 542 1082 q 619 1215 603 1179 q 676 1221 658 1221 q 764 1203 725 1221 q 553 1013 663 1121 z "},"Ă":{"ha":954,"x_min":-37,"x_max":872,"o":"m 865 56 q 869 -4 872 31 q 715 0 824 0 q 557 -4 613 0 q 568 56 557 32 q 634 74 615 61 q 653 117 653 86 q 644 169 653 136 q 613 304 625 249 q 242 299 390 304 q 203 232 217 254 l 183 199 q 142 99 142 128 q 156 70 142 79 q 204 56 171 61 q 208 -4 210 26 q 81 0 164 0 q -37 -4 3 0 q -26 56 -37 32 q 38 97 11 67 q 114 210 65 126 q 529 939 299 525 q 583 947 549 947 q 783 183 690 575 q 807 107 796 132 q 831 72 818 82 q 865 56 843 63 m 596 368 q 529 621 564 500 q 496 767 508 692 q 415 611 468 710 q 282 368 339 467 l 596 368 m 554 1013 q 415 1050 463 1013 q 367 1157 367 1088 q 371 1203 367 1178 q 431 1215 403 1218 q 470 1133 429 1164 q 583 1103 511 1103 q 706 1133 656 1103 q 771 1215 756 1163 l 781 1215 q 817 1208 806 1215 q 731 1063 799 1114 q 554 1013 663 1013 z "},"Ắ":{"ha":954,"x_min":-37,"x_max":872,"o":"m 865 56 q 869 -4 872 31 q 715 0 824 0 q 557 -4 613 0 q 568 56 557 32 q 634 74 615 61 q 653 117 653 86 q 644 169 653 136 q 613 304 625 249 q 242 299 390 304 q 203 232 217 254 l 183 199 q 142 99 142 128 q 156 70 142 79 q 204 56 171 61 q 208 -4 210 26 q 81 0 164 0 q -37 -4 3 0 q -26 56 -37 32 q 38 97 11 67 q 114 210 65 126 q 529 939 299 525 q 583 947 549 947 q 783 183 690 575 q 807 107 796 132 q 831 72 818 82 q 865 56 843 63 m 596 368 q 529 621 564 500 q 496 767 508 692 q 415 611 468 710 q 282 368 339 467 l 596 368 z "},"Ặ":{"ha":954,"x_min":-37,"x_max":872,"o":"m 865 56 q 869 -4 872 31 q 715 0 824 0 q 557 -4 613 0 q 568 56 557 32 q 634 74 615 61 q 653 117 653 86 q 644 169 653 136 q 613 304 625 249 q 242 299 390 304 q 203 232 217 254 l 183 199 q 142 99 142 128 q 156 70 142 79 q 204 56 171 61 q 208 -4 210 26 q 81 0 164 0 q -37 -4 3 0 q -26 56 -37 32 q 38 97 11 67 q 114 210 65 126 q 529 939 299 525 q 583 947 549 947 q 783 183 690 575 q 807 107 796 132 q 831 72 818 82 q 865 56 843 63 m 596 368 q 529 621 564 500 q 496 767 508 692 q 415 611 468 710 q 282 368 339 467 l 596 368 m 331 -296 q 283 -278 301 -296 q 265 -232 265 -261 q 290 -158 265 -187 q 353 -129 315 -129 q 399 -145 379 -129 q 418 -194 418 -161 q 394 -266 418 -236 q 331 -296 369 -296 m 554 1013 q 415 1050 463 1013 q 367 1157 367 1088 q 371 1203 367 1178 q 431 1215 403 1218 q 470 1133 429 1164 q 583 1103 511 1103 q 706 1133 656 1103 q 771 1215 756 1163 l 781 1215 q 817 1208 806 1215 q 731 1063 799 1114 q 554 1013 663 1013 z "},"Ằ":{"ha":954,"x_min":-37,"x_max":872,"o":"m 865 56 q 869 -4 872 31 q 715 0 824 0 q 557 -4 613 0 q 568 56 557 32 q 634 74 615 61 q 653 117 653 86 q 644 169 653 136 q 613 304 625 249 q 242 299 390 304 q 203 232 217 254 l 183 199 q 142 99 142 128 q 156 70 142 79 q 204 56 171 61 q 208 -4 210 26 q 81 0 164 0 q -37 -4 3 0 q -26 56 -37 32 q 38 97 11 67 q 114 210 65 126 q 529 939 299 525 q 583 947 549 947 q 783 183 690 575 q 807 107 796 132 q 831 72 818 82 q 865 56 843 63 m 596 368 q 529 621 564 500 q 496 767 508 692 q 415 611 468 710 q 282 368 339 467 l 596 368 z "},"Ẳ":{"ha":954,"x_min":-37,"x_max":872,"o":"m 865 56 q 869 -4 872 31 q 715 0 824 0 q 557 -4 613 0 q 568 56 557 32 q 634 74 615 61 q 653 117 653 86 q 644 169 653 136 q 613 304 625 249 q 242 299 390 304 q 203 232 217 254 l 183 199 q 142 99 142 128 q 156 70 142 79 q 204 56 171 61 q 208 -4 210 26 q 81 0 164 0 q -37 -4 3 0 q -26 56 -37 32 q 38 97 11 67 q 114 210 65 126 q 529 939 299 525 q 583 947 549 947 q 783 183 690 575 q 807 107 796 132 q 831 72 818 82 q 865 56 843 63 m 596 368 q 529 621 564 500 q 496 767 508 692 q 415 611 468 710 q 282 368 339 467 l 596 368 z "},"Ẵ":{"ha":954,"x_min":-37,"x_max":872,"o":"m 865 56 q 869 -4 872 31 q 715 0 824 0 q 557 -4 613 0 q 568 56 557 32 q 634 74 615 61 q 653 117 653 86 q 644 169 653 136 q 613 304 625 249 q 242 299 390 304 q 203 232 217 254 l 183 199 q 142 99 142 128 q 156 70 142 79 q 204 56 171 61 q 208 -4 210 26 q 81 0 164 0 q -37 -4 3 0 q -26 56 -37 32 q 38 97 11 67 q 114 210 65 126 q 529 939 299 525 q 583 947 549 947 q 783 183 690 575 q 807 107 796 132 q 831 72 818 82 q 865 56 843 63 m 596 368 q 529 621 564 500 q 496 767 508 692 q 415 611 468 710 q 282 368 339 467 l 596 368 m 554 1013 q 415 1050 463 1013 q 367 1157 367 1088 q 371 1203 367 1178 q 431 1215 403 1218 q 470 1133 429 1164 q 583 1103 511 1103 q 706 1133 656 1103 q 771 1215 756 1163 l 781 1215 q 817 1208 806 1215 q 731 1063 799 1114 q 554 1013 663 1013 m 700 1253 q 655 1259 676 1253 q 607 1278 633 1265 q 562 1295 581 1289 q 522 1301 543 1301 q 414 1257 472 1301 q 401 1310 397 1276 q 568 1390 483 1390 q 615 1384 593 1390 q 667 1364 636 1378 q 706 1348 690 1353 q 740 1343 722 1343 q 826 1382 781 1343 q 861 1351 854 1368 q 700 1253 785 1253 z "},"Ǎ":{"ha":954,"x_min":-37,"x_max":872,"o":"m 865 56 q 869 -4 872 31 q 715 0 824 0 q 557 -4 613 0 q 568 56 557 32 q 634 74 615 61 q 653 117 653 86 q 644 169 653 136 q 613 304 625 249 q 242 299 390 304 q 203 232 217 254 l 183 199 q 142 99 142 128 q 156 70 142 79 q 204 56 171 61 q 208 -4 210 26 q 81 0 164 0 q -37 -4 3 0 q -26 56 -37 32 q 38 97 11 67 q 114 210 65 126 q 529 939 299 525 q 583 947 549 947 q 783 183 690 575 q 807 107 796 132 q 831 72 818 82 q 865 56 843 63 m 596 368 q 529 621 564 500 q 496 767 508 692 q 415 611 468 710 q 282 368 339 467 l 596 368 m 543 1018 q 372 1189 461 1121 q 403 1229 376 1222 q 588 1131 493 1175 q 775 1222 694 1171 q 798 1208 788 1218 q 814 1186 808 1199 q 589 1025 683 1104 q 543 1018 561 1014 z "},"Â":{"ha":954,"x_min":-37,"x_max":872,"o":"m 865 56 q 869 -4 872 31 q 715 0 824 0 q 557 -4 613 0 q 568 56 557 32 q 634 74 615 61 q 653 117 653 86 q 644 169 653 136 q 613 304 625 249 q 242 299 390 304 q 203 232 217 254 l 183 199 q 142 99 142 128 q 156 70 142 79 q 204 56 171 61 q 208 -4 210 26 q 81 0 164 0 q -37 -4 3 0 q -26 56 -37 32 q 38 97 11 67 q 114 210 65 126 q 529 939 299 525 q 583 947 549 947 q 783 183 690 575 q 807 107 796 132 q 831 72 818 82 q 865 56 843 63 m 596 368 q 529 621 564 500 q 496 767 508 692 q 415 611 468 710 q 282 368 339 467 l 596 368 m 403 1014 q 390 1041 394 1025 q 388 1071 386 1057 q 597 1218 468 1118 q 611 1219 603 1219 q 650 1211 631 1219 q 797 1051 694 1157 q 782 1030 793 1039 q 757 1018 771 1021 q 589 1107 675 1072 q 403 1014 518 1079 z "},"Ấ":{"ha":954,"x_min":-37,"x_max":971,"o":"m 865 56 q 869 -4 872 31 q 715 0 824 0 q 557 -4 613 0 q 568 56 557 32 q 634 74 615 61 q 653 117 653 86 q 644 169 653 136 q 613 304 625 249 q 242 299 390 304 q 203 232 217 254 l 183 199 q 142 99 142 128 q 156 70 142 79 q 204 56 171 61 q 208 -4 210 26 q 81 0 164 0 q -37 -4 3 0 q -26 56 -37 32 q 38 97 11 67 q 114 210 65 126 q 529 939 299 525 q 583 947 549 947 q 783 183 690 575 q 807 107 796 132 q 831 72 818 82 q 865 56 843 63 m 596 368 q 529 621 564 500 q 496 767 508 692 q 415 611 468 710 q 282 368 339 467 l 596 368 m 781 1183 q 735 1203 754 1185 q 799 1291 771 1247 q 840 1365 826 1335 q 892 1371 876 1371 q 971 1354 939 1371 q 781 1183 876 1276 m 403 1014 q 390 1041 394 1025 q 388 1071 386 1057 q 597 1218 468 1118 q 611 1219 603 1219 q 650 1211 631 1219 q 797 1051 694 1157 q 782 1030 793 1039 q 757 1018 771 1021 q 589 1107 675 1072 q 403 1014 518 1079 z "},"Ậ":{"ha":954,"x_min":-37,"x_max":872,"o":"m 865 56 q 869 -4 872 31 q 715 0 824 0 q 557 -4 613 0 q 568 56 557 32 q 634 74 615 61 q 653 117 653 86 q 644 169 653 136 q 613 304 625 249 q 242 299 390 304 q 203 232 217 254 l 183 199 q 142 99 142 128 q 156 70 142 79 q 204 56 171 61 q 208 -4 210 26 q 81 0 164 0 q -37 -4 3 0 q -26 56 -37 32 q 38 97 11 67 q 114 210 65 126 q 529 939 299 525 q 583 947 549 947 q 783 183 690 575 q 807 107 796 132 q 831 72 818 82 q 865 56 843 63 m 596 368 q 529 621 564 500 q 496 767 508 692 q 415 611 468 710 q 282 368 339 467 l 596 368 m 331 -296 q 283 -278 301 -296 q 265 -232 265 -261 q 290 -158 265 -187 q 353 -129 315 -129 q 399 -145 379 -129 q 418 -194 418 -161 q 394 -266 418 -236 q 331 -296 369 -296 m 403 1014 q 390 1041 394 1025 q 388 1071 386 1057 q 597 1218 468 1118 q 611 1219 603 1219 q 650 1211 631 1219 q 797 1051 694 1157 q 782 1030 793 1039 q 757 1018 771 1021 q 589 1107 675 1072 q 403 1014 518 1079 z "},"Ầ":{"ha":954,"x_min":-37,"x_max":872,"o":"m 865 56 q 869 -4 872 31 q 715 0 824 0 q 557 -4 613 0 q 568 56 557 32 q 634 74 615 61 q 653 117 653 86 q 644 169 653 136 q 613 304 625 249 q 242 299 390 304 q 203 232 217 254 l 183 199 q 142 99 142 128 q 156 70 142 79 q 204 56 171 61 q 208 -4 210 26 q 81 0 164 0 q -37 -4 3 0 q -26 56 -37 32 q 38 97 11 67 q 114 210 65 126 q 529 939 299 525 q 583 947 549 947 q 783 183 690 575 q 807 107 796 132 q 831 72 818 82 q 865 56 843 63 m 596 368 q 529 621 564 500 q 496 767 508 692 q 415 611 468 710 q 282 368 339 467 l 596 368 z "},"Ẩ":{"ha":954,"x_min":-37,"x_max":943,"o":"m 865 56 q 869 -4 872 31 q 715 0 824 0 q 557 -4 613 0 q 568 56 557 32 q 634 74 615 61 q 653 117 653 86 q 644 169 653 136 q 613 304 625 249 q 242 299 390 304 q 203 232 217 254 l 183 199 q 142 99 142 128 q 156 70 142 79 q 204 56 171 61 q 208 -4 210 26 q 81 0 164 0 q -37 -4 3 0 q -26 56 -37 32 q 38 97 11 67 q 114 210 65 126 q 529 939 299 525 q 583 947 549 947 q 783 183 690 575 q 807 107 796 132 q 831 72 818 82 q 865 56 843 63 m 596 368 q 529 621 564 500 q 496 767 508 692 q 415 611 468 710 q 282 368 339 467 l 596 368 z "},"Ẫ":{"ha":954,"x_min":-37,"x_max":874,"o":"m 865 56 q 869 -4 872 31 q 715 0 824 0 q 557 -4 613 0 q 568 56 557 32 q 634 74 615 61 q 653 117 653 86 q 644 169 653 136 q 613 304 625 249 q 242 299 390 304 q 203 232 217 254 l 183 199 q 142 99 142 128 q 156 70 142 79 q 204 56 171 61 q 208 -4 210 26 q 81 0 164 0 q -37 -4 3 0 q -26 56 -37 32 q 38 97 11 67 q 114 210 65 126 q 529 939 299 525 q 583 947 549 947 q 783 183 690 575 q 807 107 796 132 q 831 72 818 82 q 865 56 843 63 m 596 368 q 529 621 564 500 q 496 767 508 692 q 415 611 468 710 q 282 368 339 467 l 596 368 m 403 1014 q 390 1041 394 1025 q 388 1071 386 1057 q 597 1218 468 1118 q 611 1219 603 1219 q 650 1211 631 1219 q 797 1051 694 1157 q 782 1030 793 1039 q 757 1018 771 1021 q 589 1107 675 1072 q 403 1014 518 1079 m 713 1292 q 667 1298 689 1292 q 619 1317 646 1304 q 574 1334 593 1328 q 535 1340 556 1340 q 426 1296 485 1340 q 414 1349 410 1315 q 581 1429 496 1429 q 627 1423 606 1429 q 679 1403 649 1417 q 719 1387 703 1392 q 753 1382 735 1382 q 839 1421 793 1382 q 874 1390 867 1407 q 713 1292 797 1292 z "},"Ȁ":{"ha":954,"x_min":-37,"x_max":872,"o":"m 865 56 q 869 -4 872 31 q 715 0 824 0 q 557 -4 613 0 q 568 56 557 32 q 634 74 615 61 q 653 117 653 86 q 644 169 653 136 q 613 304 625 249 q 242 299 390 304 q 203 232 217 254 l 183 199 q 142 99 142 128 q 156 70 142 79 q 204 56 171 61 q 208 -4 210 26 q 81 0 164 0 q -37 -4 3 0 q -26 56 -37 32 q 38 97 11 67 q 114 210 65 126 q 529 939 299 525 q 583 947 549 947 q 783 183 690 575 q 807 107 796 132 q 831 72 818 82 q 865 56 843 63 m 596 368 q 529 621 564 500 q 496 767 508 692 q 415 611 468 710 q 282 368 339 467 l 596 368 m 479 1008 q 356 1186 414 1114 q 422 1197 382 1197 q 479 1192 456 1197 l 492 1142 q 532 1003 518 1042 q 479 1008 515 1001 m 688 1008 q 564 1186 622 1114 q 631 1197 590 1197 q 688 1192 664 1197 l 700 1142 q 740 1003 726 1042 q 688 1008 724 1001 z "},"Ä":{"ha":954,"x_min":-37,"x_max":872,"o":"m 865 56 q 869 -4 872 31 q 715 0 824 0 q 557 -4 613 0 q 568 56 557 32 q 634 74 615 61 q 653 117 653 86 q 644 169 653 136 q 613 304 625 249 q 242 299 390 304 q 203 232 217 254 l 183 199 q 142 99 142 128 q 156 70 142 79 q 204 56 171 61 q 208 -4 210 26 q 81 0 164 0 q -37 -4 3 0 q -26 56 -37 32 q 38 97 11 67 q 114 210 65 126 q 529 939 299 525 q 583 947 549 947 q 783 183 690 575 q 807 107 796 132 q 831 72 818 82 q 865 56 843 63 m 596 368 q 529 621 564 500 q 496 767 508 692 q 415 611 468 710 q 282 368 339 467 l 596 368 m 442 1017 q 396 1035 413 1017 q 379 1083 379 1053 q 401 1144 379 1122 q 458 1167 422 1167 q 505 1151 488 1167 q 522 1108 522 1135 q 519 1085 522 1093 q 491 1035 511 1053 q 442 1017 471 1017 m 713 1018 q 667 1035 683 1018 q 650 1082 650 1053 q 672 1144 650 1122 q 732 1167 693 1167 q 777 1151 761 1167 q 793 1107 793 1135 q 792 1089 793 1096 q 765 1036 786 1054 q 713 1018 744 1018 z "},"Ạ":{"ha":954,"x_min":-37,"x_max":872,"o":"m 865 56 q 869 -4 872 31 q 715 0 824 0 q 557 -4 613 0 q 568 56 557 32 q 634 74 615 61 q 653 117 653 86 q 644 169 653 136 q 613 304 625 249 q 242 299 390 304 q 203 232 217 254 l 183 199 q 142 99 142 128 q 156 70 142 79 q 204 56 171 61 q 208 -4 210 26 q 81 0 164 0 q -37 -4 3 0 q -26 56 -37 32 q 38 97 11 67 q 114 210 65 126 q 529 939 299 525 q 583 947 549 947 q 783 183 690 575 q 807 107 796 132 q 831 72 818 82 q 865 56 843 63 m 596 368 q 529 621 564 500 q 496 767 508 692 q 415 611 468 710 q 282 368 339 467 l 596 368 m 331 -296 q 283 -278 301 -296 q 265 -232 265 -261 q 290 -158 265 -187 q 353 -129 315 -129 q 399 -145 379 -129 q 418 -194 418 -161 q 394 -266 418 -236 q 331 -296 369 -296 z "},"À":{"ha":954,"x_min":-37,"x_max":872,"o":"m 865 56 q 869 -4 872 31 q 715 0 824 0 q 557 -4 613 0 q 568 56 557 32 q 634 74 615 61 q 653 117 653 86 q 644 169 653 136 q 613 304 625 249 q 242 299 390 304 q 203 232 217 254 l 183 199 q 142 99 142 128 q 156 70 142 79 q 204 56 171 61 q 208 -4 210 26 q 81 0 164 0 q -37 -4 3 0 q -26 56 -37 32 q 38 97 11 67 q 114 210 65 126 q 529 939 299 525 q 583 947 549 947 q 783 183 690 575 q 807 107 796 132 q 831 72 818 82 q 865 56 843 63 m 596 368 q 529 621 564 500 q 496 767 508 692 q 415 611 468 710 q 282 368 339 467 l 596 368 m 624 1028 q 593 1022 610 1022 q 563 1028 579 1022 q 426 1204 518 1103 q 499 1215 460 1215 q 556 1208 525 1215 q 624 1028 582 1107 z "},"Ả":{"ha":954,"x_min":-37,"x_max":872,"o":"m 865 56 q 869 -4 872 31 q 715 0 824 0 q 557 -4 613 0 q 568 56 557 32 q 634 74 615 61 q 653 117 653 86 q 644 169 653 136 q 613 304 625 249 q 242 299 390 304 q 203 232 217 254 l 183 199 q 142 99 142 128 q 156 70 142 79 q 204 56 171 61 q 208 -4 210 26 q 81 0 164 0 q -37 -4 3 0 q -26 56 -37 32 q 38 97 11 67 q 114 210 65 126 q 529 939 299 525 q 583 947 549 947 q 783 183 690 575 q 807 107 796 132 q 831 72 818 82 q 865 56 843 63 m 596 368 q 529 621 564 500 q 496 767 508 692 q 415 611 468 710 q 282 368 339 467 l 596 368 m 536 1018 q 528 1050 528 1033 q 542 1090 528 1076 q 585 1119 556 1104 q 632 1158 624 1138 q 633 1168 633 1161 q 604 1186 633 1186 q 521 1103 549 1186 q 499 1108 515 1104 q 474 1117 483 1113 q 457 1128 464 1121 q 464 1149 460 1135 q 470 1174 468 1163 q 471 1200 472 1186 q 615 1236 543 1236 q 701 1218 671 1236 q 731 1168 731 1200 q 728 1151 731 1163 q 702 1111 721 1126 q 653 1081 683 1096 q 616 1059 628 1068 q 600 1038 604 1050 q 598 1028 600 1033 q 597 1015 596 1024 q 572 1014 590 1014 q 536 1018 553 1014 z "},"Ȃ":{"ha":954,"x_min":-37,"x_max":872,"o":"m 865 56 q 869 -4 872 31 q 715 0 824 0 q 557 -4 613 0 q 568 56 557 32 q 634 74 615 61 q 653 117 653 86 q 644 169 653 136 q 613 304 625 249 q 242 299 390 304 q 203 232 217 254 l 183 199 q 142 99 142 128 q 156 70 142 79 q 204 56 171 61 q 208 -4 210 26 q 81 0 164 0 q -37 -4 3 0 q -26 56 -37 32 q 38 97 11 67 q 114 210 65 126 q 529 939 299 525 q 583 947 549 947 q 783 183 690 575 q 807 107 796 132 q 831 72 818 82 q 865 56 843 63 m 596 368 q 529 621 564 500 q 496 767 508 692 q 415 611 468 710 q 282 368 339 467 l 596 368 m 626 1207 q 766 1169 718 1207 q 814 1063 814 1132 q 810 1017 814 1042 q 750 1004 778 1001 q 710 1086 751 1056 q 597 1117 669 1117 q 475 1087 525 1117 q 410 1004 425 1057 l 400 1004 q 364 1011 375 1004 q 450 1156 382 1106 q 626 1207 518 1207 z "},"Ā":{"ha":954,"x_min":-37,"x_max":872,"o":"m 865 56 q 869 -4 872 31 q 715 0 824 0 q 557 -4 613 0 q 568 56 557 32 q 634 74 615 61 q 653 117 653 86 q 644 169 653 136 q 613 304 625 249 q 242 299 390 304 q 203 232 217 254 l 183 199 q 142 99 142 128 q 156 70 142 79 q 204 56 171 61 q 208 -4 210 26 q 81 0 164 0 q -37 -4 3 0 q -26 56 -37 32 q 38 97 11 67 q 114 210 65 126 q 529 939 299 525 q 583 947 549 947 q 783 183 690 575 q 807 107 796 132 q 831 72 818 82 q 865 56 843 63 m 596 368 q 529 621 564 500 q 496 767 508 692 q 415 611 468 710 q 282 368 339 467 l 596 368 m 339 1060 q 342 1092 339 1072 q 351 1124 344 1113 l 835 1124 q 822 1064 835 1096 q 339 1060 536 1064 z "},"Ą":{"ha":954,"x_min":-37,"x_max":872,"o":"m 785 0 q 635 -158 635 -76 q 655 -207 635 -187 q 711 -226 675 -226 q 771 -215 742 -226 q 775 -242 775 -228 q 772 -269 775 -250 q 657 -343 714 -297 q 631 -346 649 -346 q 552 -315 588 -346 q 517 -225 517 -283 q 557 -107 517 -162 q 686 0 597 -51 q 557 -4 624 0 q 568 56 557 32 q 634 74 615 61 q 653 117 653 86 q 644 169 653 136 q 613 304 625 249 q 242 299 390 304 q 203 232 217 254 l 183 199 q 142 99 142 128 q 156 70 142 79 q 204 56 171 61 q 208 -4 210 26 q 81 0 164 0 q -37 -4 3 0 q -26 56 -37 32 q 38 97 11 67 q 114 210 65 126 q 529 939 299 525 q 583 947 549 947 q 783 183 690 575 q 807 107 796 132 q 831 72 818 82 q 865 56 843 63 q 869 -4 872 31 q 814 -1 836 -1 l 785 0 m 596 368 q 529 621 564 500 q 496 767 508 692 q 415 611 468 710 q 282 368 339 467 l 596 368 z "},"Å":{"ha":954,"x_min":-37,"x_max":872,"o":"m 865 56 q 869 -4 872 31 q 715 0 824 0 q 557 -4 613 0 q 568 56 557 32 q 634 74 615 61 q 653 117 653 86 q 644 169 653 136 q 613 304 625 249 q 242 299 390 304 q 203 232 217 254 l 183 199 q 142 99 142 128 q 156 70 142 79 q 204 56 171 61 q 208 -4 210 26 q 81 0 164 0 q -37 -4 3 0 q -26 56 -37 32 q 38 97 11 67 q 114 210 65 126 q 529 939 299 525 q 583 947 549 947 q 783 183 690 575 q 807 107 796 132 q 831 72 818 82 q 865 56 843 63 m 596 368 q 529 621 564 500 q 496 767 508 692 q 415 611 468 710 q 282 368 339 467 l 596 368 m 583 1003 q 485 1029 519 1003 q 450 1099 450 1056 q 489 1183 450 1153 q 597 1214 528 1214 q 698 1186 667 1214 q 729 1115 729 1158 q 691 1033 729 1063 q 583 1003 653 1003 m 586 1050 q 650 1099 638 1050 q 653 1115 653 1110 q 637 1154 653 1139 q 594 1169 621 1169 q 544 1149 564 1169 q 524 1100 524 1128 q 540 1063 524 1076 q 586 1050 557 1050 z "},"Ǻ":{"ha":954,"x_min":-37,"x_max":872,"o":"m 865 56 q 869 -4 872 31 q 715 0 824 0 q 557 -4 613 0 q 568 56 557 32 q 634 74 615 61 q 653 117 653 86 q 644 169 653 136 q 613 304 625 249 q 242 299 390 304 q 203 232 217 254 l 183 199 q 142 99 142 128 q 156 70 142 79 q 204 56 171 61 q 208 -4 210 26 q 81 0 164 0 q -37 -4 3 0 q -26 56 -37 32 q 38 97 11 67 q 114 210 65 126 q 529 939 299 525 q 583 947 549 947 q 783 183 690 575 q 807 107 796 132 q 831 72 818 82 q 865 56 843 63 m 596 368 q 529 621 564 500 q 496 767 508 692 q 415 611 468 710 q 282 368 339 467 l 596 368 m 583 1003 q 485 1029 519 1003 q 450 1099 450 1056 q 489 1183 450 1153 q 597 1214 528 1214 q 698 1186 667 1214 q 729 1115 729 1158 q 691 1033 729 1063 q 583 1003 653 1003 m 586 1050 q 650 1099 638 1050 q 653 1115 653 1110 q 637 1154 653 1139 q 594 1169 621 1169 q 544 1149 564 1169 q 524 1100 524 1128 q 540 1063 524 1076 q 586 1050 557 1050 m 606 1288 q 554 1310 576 1289 q 625 1406 594 1357 q 672 1490 656 1454 q 729 1496 711 1496 q 817 1478 778 1496 q 606 1288 715 1396 z "},"Ã":{"ha":954,"x_min":-37,"x_max":872,"o":"m 865 56 q 869 -4 872 31 q 715 0 824 0 q 557 -4 613 0 q 568 56 557 32 q 634 74 615 61 q 653 117 653 86 q 644 169 653 136 q 613 304 625 249 q 242 299 390 304 q 203 232 217 254 l 183 199 q 142 99 142 128 q 156 70 142 79 q 204 56 171 61 q 208 -4 210 26 q 81 0 164 0 q -37 -4 3 0 q -26 56 -37 32 q 38 97 11 67 q 114 210 65 126 q 529 939 299 525 q 583 947 549 947 q 783 183 690 575 q 807 107 796 132 q 831 72 818 82 q 865 56 843 63 m 596 368 q 529 621 564 500 q 496 767 508 692 q 415 611 468 710 q 282 368 339 467 l 596 368 m 660 1039 q 615 1045 636 1039 q 567 1064 593 1051 q 522 1081 540 1075 q 482 1088 503 1088 q 374 1043 432 1088 q 361 1096 357 1063 q 528 1176 443 1176 q 574 1170 553 1176 q 626 1150 596 1164 q 666 1134 650 1139 q 700 1129 682 1129 q 786 1168 740 1129 q 821 1138 814 1154 q 660 1039 744 1039 z "},"Æ":{"ha":1189,"x_min":-37,"x_max":1188,"o":"m 811 876 l 743 474 l 801 474 q 927 498 889 474 q 976 589 965 522 q 1014 593 997 593 q 1043 590 1021 593 q 1014 436 1024 513 q 997 276 1001 354 q 933 294 954 281 l 935 318 q 905 394 935 374 q 796 414 875 414 l 732 414 l 696 199 q 689 132 689 154 q 712 76 689 89 q 797 63 735 63 l 803 63 q 933 82 885 63 q 1008 137 981 101 q 1069 239 1036 172 q 1132 208 1110 232 q 1057 -4 1081 110 q 789 0 975 0 q 439 -4 549 0 q 449 56 439 28 q 513 74 492 61 q 545 113 535 86 q 565 199 556 140 l 603 414 q 376 410 481 414 l 201 169 q 164 93 164 119 q 204 56 164 67 q 208 -4 210 26 q 81 0 164 0 q -37 -4 3 0 q -26 56 -37 32 q 46 94 14 68 q 133 190 78 119 q 549 747 329 446 q 583 828 583 794 q 504 883 583 875 q 501 915 501 894 q 503 943 501 933 q 735 939 614 939 l 736 939 l 822 939 q 1188 943 1044 939 q 1176 767 1176 858 q 1178 717 1176 732 q 1108 707 1151 706 q 1093 809 1106 775 q 1040 860 1081 843 q 911 876 999 876 l 811 876 m 614 474 l 656 714 q 688 857 669 792 q 424 474 604 725 l 614 474 z "},"Ǽ":{"ha":1189,"x_min":-37,"x_max":1188,"o":"m 811 876 l 743 474 l 801 474 q 927 498 889 474 q 976 589 965 522 q 1014 593 997 593 q 1043 590 1021 593 q 1014 436 1024 513 q 997 276 1001 354 q 933 294 954 281 l 935 318 q 905 394 935 374 q 796 414 875 414 l 732 414 l 696 199 q 689 132 689 154 q 712 76 689 89 q 797 63 735 63 l 803 63 q 933 82 885 63 q 1008 137 981 101 q 1069 239 1036 172 q 1132 208 1110 232 q 1057 -4 1081 110 q 789 0 975 0 q 439 -4 549 0 q 449 56 439 28 q 513 74 492 61 q 545 113 535 86 q 565 199 556 140 l 603 414 q 376 410 481 414 l 201 169 q 164 93 164 119 q 204 56 164 67 q 208 -4 210 26 q 81 0 164 0 q -37 -4 3 0 q -26 56 -37 32 q 46 94 14 68 q 133 190 78 119 q 549 747 329 446 q 583 828 583 794 q 504 883 583 875 q 501 915 501 894 q 503 943 501 933 q 735 939 614 939 l 736 939 l 822 939 q 1188 943 1044 939 q 1176 767 1176 858 q 1178 717 1176 732 q 1108 707 1151 706 q 1093 809 1106 775 q 1040 860 1081 843 q 911 876 999 876 l 811 876 m 614 474 l 656 714 q 688 857 669 792 q 424 474 604 725 l 614 474 m 819 1013 q 768 1035 790 1014 q 839 1131 808 1082 q 886 1215 869 1179 q 943 1221 925 1221 q 1031 1203 992 1221 q 819 1013 929 1121 z "},"B":{"ha":835,"x_min":35,"x_max":794,"o":"m 789 711 q 709 577 774 633 q 551 508 644 521 q 785 308 785 496 q 776 236 785 276 q 656 64 754 128 q 407 0 558 0 q 35 -4 144 0 q 46 56 36 31 q 110 75 89 63 q 142 114 132 88 q 163 199 153 140 l 263 769 q 267 814 267 797 q 247 867 267 853 q 181 883 226 881 q 176 921 176 903 q 178 943 176 935 q 331 939 242 939 q 432 942 365 939 l 528 943 q 727 901 660 943 q 794 767 794 858 q 789 711 794 739 m 644 697 q 650 744 650 731 q 603 849 650 814 q 475 883 557 883 q 411 875 442 883 l 350 522 l 390 522 q 564 569 500 522 q 644 697 628 615 m 625 229 q 633 300 633 269 q 572 422 633 385 q 374 460 510 460 l 339 460 l 292 185 q 285 122 285 140 q 308 70 285 82 q 393 58 331 58 q 546 106 482 58 q 625 229 610 153 z "},"C":{"ha":882,"x_min":79,"x_max":925,"o":"m 925 869 q 879 660 896 790 q 838 653 858 653 q 804 657 821 653 q 810 729 810 710 q 767 859 810 824 q 640 894 725 894 q 438 838 525 894 q 298 683 350 781 q 232 463 246 585 q 228 399 228 429 q 299 164 228 256 q 511 72 371 72 q 789 153 657 72 q 811 100 808 133 q 474 -12 654 -12 q 258 38 347 -12 q 124 177 169 89 q 79 379 79 265 q 85 456 79 403 q 189 733 106 621 q 389 898 272 844 q 631 951 506 951 q 785 932 717 951 q 925 869 853 913 z "},"Ć":{"ha":882,"x_min":79,"x_max":925,"o":"m 925 869 q 879 660 896 790 q 838 653 858 653 q 804 657 821 653 q 810 729 810 710 q 767 859 810 824 q 640 894 725 894 q 438 838 525 894 q 298 683 350 781 q 232 463 246 585 q 228 399 228 429 q 299 164 228 256 q 511 72 371 72 q 789 153 657 72 q 811 100 808 133 q 474 -12 654 -12 q 258 38 347 -12 q 124 177 169 89 q 79 379 79 265 q 85 456 79 403 q 189 733 106 621 q 389 898 272 844 q 631 951 506 951 q 785 932 717 951 q 925 869 853 913 m 632 1013 q 581 1035 603 1014 q 651 1131 621 1082 q 699 1215 682 1179 q 756 1221 738 1221 q 843 1203 804 1221 q 632 1013 742 1121 z "},"Č":{"ha":882,"x_min":79,"x_max":925,"o":"m 925 869 q 879 660 896 790 q 838 653 858 653 q 804 657 821 653 q 810 729 810 710 q 767 859 810 824 q 640 894 725 894 q 438 838 525 894 q 298 683 350 781 q 232 463 246 585 q 228 399 228 429 q 299 164 228 256 q 511 72 371 72 q 789 153 657 72 q 811 100 808 133 q 474 -12 654 -12 q 258 38 347 -12 q 124 177 169 89 q 79 379 79 265 q 85 456 79 403 q 189 733 106 621 q 389 898 272 844 q 631 951 506 951 q 785 932 717 951 q 925 869 853 913 m 622 1018 q 451 1189 540 1121 q 482 1229 456 1222 q 667 1131 572 1175 q 854 1222 774 1171 q 877 1208 867 1218 q 893 1186 888 1199 q 668 1025 763 1104 q 622 1018 640 1014 z "},"Ç":{"ha":882,"x_min":79,"x_max":925,"o":"m 631 951 q 785 932 717 951 q 925 869 853 913 q 879 660 896 790 q 838 653 858 653 q 804 657 821 653 q 810 729 810 710 q 767 859 810 824 q 640 894 725 894 q 438 838 525 894 q 298 683 350 781 q 232 463 246 585 q 228 399 228 429 q 299 164 228 256 q 511 72 371 72 q 789 153 657 72 q 811 100 808 133 q 497 -12 663 -6 l 444 -76 q 533 -179 533 -93 q 529 -219 533 -199 q 461 -308 517 -278 q 325 -336 406 -339 q 322 -312 322 -329 q 324 -292 322 -299 q 416 -270 383 -292 q 449 -204 449 -249 q 428 -157 449 -174 q 372 -140 407 -140 q 357 -103 357 -128 q 358 -87 357 -93 l 422 -10 q 169 112 258 6 q 79 379 79 218 q 85 456 79 403 q 189 733 106 621 q 389 898 272 844 q 631 951 506 951 z "},"Ḉ":{"ha":882,"x_min":79,"x_max":925,"o":"m 843 1203 q 632 1013 742 1121 q 581 1035 603 1014 q 651 1131 621 1082 q 699 1215 682 1179 q 756 1221 738 1221 q 843 1203 804 1221 m 631 951 q 785 932 717 951 q 925 869 853 913 q 879 660 896 790 q 838 653 858 653 q 804 657 821 653 q 810 729 810 710 q 767 859 810 824 q 640 894 725 894 q 438 838 525 894 q 298 683 350 781 q 232 463 246 585 q 228 399 228 429 q 299 164 228 256 q 511 72 371 72 q 789 153 657 72 q 811 100 808 133 q 497 -12 663 -6 l 444 -76 q 533 -179 533 -93 q 529 -219 533 -199 q 461 -308 517 -278 q 325 -336 406 -339 q 322 -312 322 -329 q 324 -292 322 -299 q 416 -270 383 -292 q 449 -204 449 -249 q 428 -157 449 -174 q 372 -140 407 -140 q 357 -103 357 -128 q 358 -87 357 -93 l 422 -10 q 169 112 258 6 q 79 379 79 218 q 85 456 79 403 q 189 733 106 621 q 389 898 272 844 q 631 951 506 951 z "},"Ĉ":{"ha":882,"x_min":79,"x_max":925,"o":"m 925 869 q 879 660 896 790 q 838 653 858 653 q 804 657 821 653 q 810 729 810 710 q 767 859 810 824 q 640 894 725 894 q 438 838 525 894 q 298 683 350 781 q 232 463 246 585 q 228 399 228 429 q 299 164 228 256 q 511 72 371 72 q 789 153 657 72 q 811 100 808 133 q 474 -12 654 -12 q 258 38 347 -12 q 124 177 169 89 q 79 379 79 265 q 85 456 79 403 q 189 733 106 621 q 389 898 272 844 q 631 951 506 951 q 785 932 717 951 q 925 869 853 913 m 482 1014 q 469 1041 474 1025 q 467 1071 465 1057 q 676 1218 547 1118 q 690 1219 682 1219 q 729 1211 710 1219 q 876 1051 774 1157 q 861 1030 872 1039 q 836 1018 850 1021 q 668 1107 754 1072 q 482 1014 597 1079 z "},"Ċ":{"ha":882,"x_min":79,"x_max":925,"o":"m 925 869 q 879 660 896 790 q 838 653 858 653 q 804 657 821 653 q 810 729 810 710 q 767 859 810 824 q 640 894 725 894 q 438 838 525 894 q 298 683 350 781 q 232 463 246 585 q 228 399 228 429 q 299 164 228 256 q 511 72 371 72 q 789 153 657 72 q 811 100 808 133 q 474 -12 654 -12 q 258 38 347 -12 q 124 177 169 89 q 79 379 79 265 q 85 456 79 403 q 189 733 106 621 q 389 898 272 844 q 631 951 506 951 q 785 932 717 951 q 925 869 853 913 m 650 1001 q 604 1018 621 1001 q 588 1063 588 1035 q 613 1131 588 1106 q 676 1157 639 1157 q 724 1140 707 1157 q 740 1094 740 1124 q 715 1027 740 1053 q 650 1001 689 1001 z "},"D":{"ha":1021,"x_min":35,"x_max":1003,"o":"m 544 943 q 872 862 742 943 q 1003 578 1003 781 q 990 449 1003 519 q 791 113 949 225 q 388 0 633 0 l 383 0 q 35 -4 143 0 q 46 56 38 31 q 110 74 89 61 q 143 114 132 86 q 164 199 154 142 l 264 769 q 268 813 268 794 q 249 865 268 851 q 181 885 229 879 q 176 919 176 901 q 178 943 176 936 q 369 939 268 939 q 460 942 399 939 l 544 943 m 846 438 q 860 569 860 507 q 763 810 860 736 q 510 883 667 883 q 411 872 463 883 l 293 185 q 286 125 286 143 q 308 75 286 88 q 393 63 331 63 q 690 153 572 63 q 846 438 808 243 z "},"Ǳ":{"ha":1771,"x_min":35,"x_max":1817,"o":"m 544 943 q 872 862 742 943 q 1003 578 1003 781 q 990 449 1003 519 q 791 113 949 225 q 388 0 633 0 l 383 0 q 35 -4 143 0 q 46 56 38 31 q 110 74 89 61 q 143 114 132 86 q 164 199 154 142 l 264 769 q 268 813 268 794 q 249 865 268 851 q 181 885 229 879 q 176 919 176 901 q 178 943 176 936 q 369 939 268 939 q 460 942 399 939 l 544 943 m 846 438 q 860 569 860 507 q 763 810 860 736 q 510 883 667 883 q 411 872 463 883 l 293 185 q 286 125 286 143 q 308 75 286 88 q 393 63 331 63 q 690 153 572 63 q 846 438 808 243 m 1381 63 q 1517 75 1471 63 q 1594 124 1564 88 q 1658 239 1625 160 q 1728 206 1701 231 q 1667 -4 1685 101 q 1310 0 1533 0 q 1003 -4 1113 0 q 990 53 989 19 q 1631 878 1313 440 l 1447 878 q 1342 864 1382 878 q 1272 812 1303 850 q 1213 699 1242 774 q 1140 725 1167 703 q 1175 827 1158 767 q 1200 943 1192 888 q 1522 939 1313 939 q 1799 943 1689 939 q 1817 886 1817 922 q 1179 63 1476 422 l 1381 63 z "},"Ǆ":{"ha":1771,"x_min":35,"x_max":1817,"o":"m 544 943 q 872 862 742 943 q 1003 578 1003 781 q 990 449 1003 519 q 791 113 949 225 q 388 0 633 0 l 383 0 q 35 -4 143 0 q 46 56 38 31 q 110 74 89 61 q 143 114 132 86 q 164 199 154 142 l 264 769 q 268 813 268 794 q 249 865 268 851 q 181 885 229 879 q 176 919 176 901 q 178 943 176 936 q 369 939 268 939 q 460 942 399 939 l 544 943 m 846 438 q 860 569 860 507 q 763 810 860 736 q 510 883 667 883 q 411 872 463 883 l 293 185 q 286 125 286 143 q 308 75 286 88 q 393 63 331 63 q 690 153 572 63 q 846 438 808 243 m 1381 63 q 1517 75 1471 63 q 1594 124 1564 88 q 1658 239 1625 160 q 1728 206 1701 231 q 1667 -4 1685 101 q 1310 0 1533 0 q 1003 -4 1113 0 q 990 53 989 19 q 1631 878 1313 440 l 1447 878 q 1342 864 1382 878 q 1272 812 1303 850 q 1213 699 1242 774 q 1140 725 1167 703 q 1175 827 1158 767 q 1200 943 1192 888 q 1522 939 1313 939 q 1799 943 1689 939 q 1817 886 1817 922 q 1179 63 1476 422 l 1381 63 m 1479 1018 q 1308 1189 1397 1121 q 1339 1229 1313 1222 q 1524 1131 1429 1175 q 1711 1222 1631 1171 q 1734 1208 1724 1218 q 1750 1186 1744 1199 q 1525 1025 1619 1104 q 1479 1018 1497 1014 z "},"Ð":{"ha":1021,"x_min":35,"x_max":1003,"o":"m 544 943 q 872 862 742 943 q 1003 578 1003 781 q 990 449 1003 519 q 791 113 949 225 q 388 0 633 0 l 383 0 q 35 -4 143 0 q 46 56 38 31 q 110 74 89 61 q 143 114 132 86 q 164 199 154 142 l 207 443 l 104 440 q 108 480 104 457 q 117 511 111 503 l 218 511 l 264 769 q 268 813 268 794 q 249 865 268 851 q 181 885 229 879 q 176 919 176 901 q 178 943 176 936 q 369 939 268 939 q 460 942 399 939 l 544 943 m 846 438 q 860 569 860 507 q 763 810 860 736 q 510 883 667 883 q 411 872 463 883 l 349 511 l 536 511 q 524 442 536 467 q 344 443 456 443 l 338 443 l 293 185 q 286 125 286 143 q 308 75 286 88 q 393 63 331 63 q 690 153 572 63 q 846 438 808 243 z "},"Ď":{"ha":1021,"x_min":35,"x_max":1003,"o":"m 544 943 q 872 862 742 943 q 1003 578 1003 781 q 990 449 1003 519 q 791 113 949 225 q 388 0 633 0 l 383 0 q 35 -4 143 0 q 46 56 38 31 q 110 74 89 61 q 143 114 132 86 q 164 199 154 142 l 264 769 q 268 813 268 794 q 249 865 268 851 q 181 885 229 879 q 176 919 176 901 q 178 943 176 936 q 369 939 268 939 q 460 942 399 939 l 544 943 m 846 438 q 860 569 860 507 q 763 810 860 736 q 510 883 667 883 q 411 872 463 883 l 293 185 q 286 125 286 143 q 308 75 286 88 q 393 63 331 63 q 690 153 572 63 q 846 438 808 243 m 553 1018 q 382 1189 471 1121 q 413 1229 386 1222 q 597 1131 503 1175 q 785 1222 704 1171 q 808 1208 797 1218 q 824 1186 818 1199 q 599 1025 693 1104 q 553 1018 571 1014 z "},"Ḑ":{"ha":1021,"x_min":35,"x_max":1003,"o":"m 544 943 q 872 862 742 943 q 1003 578 1003 781 q 990 449 1003 519 q 791 113 949 225 q 388 0 633 0 l 383 0 q 35 -4 143 0 q 46 56 38 31 q 110 74 89 61 q 143 114 132 86 q 164 199 154 142 l 264 769 q 268 813 268 794 q 249 865 268 851 q 181 885 229 879 q 176 919 176 901 q 178 943 176 936 q 369 939 268 939 q 460 942 399 939 l 544 943 m 846 438 q 860 569 860 507 q 763 810 860 736 q 510 883 667 883 q 411 872 463 883 l 293 185 q 286 125 286 143 q 308 75 286 88 q 393 63 331 63 q 690 153 572 63 q 846 438 808 243 m 314 -387 q 282 -356 288 -376 q 345 -286 322 -321 q 368 -225 368 -251 q 324 -185 368 -192 q 328 -140 322 -162 q 347 -101 335 -118 q 465 -60 417 -87 q 501 -125 501 -75 q 499 -153 501 -133 q 436 -280 486 -221 q 314 -387 386 -339 z "},"Đ":{"ha":1021,"x_min":35,"x_max":1003,"o":"m 544 943 q 872 862 742 943 q 1003 578 1003 781 q 990 449 1003 519 q 791 113 949 225 q 388 0 633 0 l 383 0 q 35 -4 143 0 q 46 56 38 31 q 110 74 89 61 q 143 114 132 86 q 164 199 154 142 l 207 443 l 104 440 q 108 480 104 457 q 117 511 111 503 l 218 511 l 264 769 q 268 813 268 794 q 249 865 268 851 q 181 885 229 879 q 176 919 176 901 q 178 943 176 936 q 369 939 268 939 q 460 942 399 939 l 544 943 m 846 438 q 860 569 860 507 q 763 810 860 736 q 510 883 667 883 q 411 872 463 883 l 349 511 l 536 511 q 524 442 536 467 q 344 443 456 443 l 338 443 l 293 185 q 286 125 286 143 q 308 75 286 88 q 393 63 331 63 q 690 153 572 63 q 846 438 808 243 z "},"Ḍ":{"ha":1021,"x_min":35,"x_max":1003,"o":"m 544 943 q 872 862 742 943 q 1003 578 1003 781 q 990 449 1003 519 q 791 113 949 225 q 388 0 633 0 l 383 0 q 35 -4 143 0 q 46 56 38 31 q 110 74 89 61 q 143 114 132 86 q 164 199 154 142 l 264 769 q 268 813 268 794 q 249 865 268 851 q 181 885 229 879 q 176 919 176 901 q 178 943 176 936 q 369 939 268 939 q 460 942 399 939 l 544 943 m 846 438 q 860 569 860 507 q 763 810 860 736 q 510 883 667 883 q 411 872 463 883 l 293 185 q 286 125 286 143 q 308 75 286 88 q 393 63 331 63 q 690 153 572 63 q 846 438 808 243 m 394 -296 q 347 -278 365 -296 q 329 -232 329 -261 q 354 -158 329 -187 q 417 -129 379 -129 q 463 -145 443 -129 q 482 -194 482 -161 q 458 -266 482 -236 q 394 -296 433 -296 z "},"Ḏ":{"ha":1021,"x_min":35,"x_max":1003,"o":"m 544 943 q 872 862 742 943 q 1003 578 1003 781 q 990 449 1003 519 q 791 113 949 225 q 388 0 633 0 l 383 0 q 35 -4 143 0 q 46 56 38 31 q 110 74 89 61 q 143 114 132 86 q 164 199 154 142 l 264 769 q 268 813 268 794 q 249 865 268 851 q 181 885 229 879 q 176 919 176 901 q 178 943 176 936 q 369 939 268 939 q 460 942 399 939 l 544 943 m 846 438 q 860 569 860 507 q 763 810 860 736 q 510 883 667 883 q 411 872 463 883 l 293 185 q 286 125 286 143 q 308 75 286 88 q 393 63 331 63 q 690 153 572 63 q 846 438 808 243 m 158 -243 q 161 -210 158 -231 q 171 -179 164 -190 l 654 -179 q 642 -239 654 -208 q 158 -243 357 -239 z "},"ǲ":{"ha":1574,"x_min":35,"x_max":1553,"o":"m 544 943 q 872 862 742 943 q 1003 578 1003 781 q 990 449 1003 519 q 791 113 949 225 q 388 0 633 0 l 383 0 q 35 -4 143 0 q 46 56 38 31 q 110 74 89 61 q 143 114 132 86 q 164 199 154 142 l 264 769 q 268 813 268 794 q 249 865 268 851 q 181 885 229 879 q 176 919 176 901 q 178 943 176 936 q 369 939 268 939 q 460 942 399 939 l 544 943 m 846 438 q 860 569 860 507 q 763 810 860 736 q 510 883 667 883 q 411 872 463 883 l 293 185 q 286 125 286 143 q 308 75 286 88 q 393 63 331 63 q 690 153 572 63 q 846 438 808 243 m 1450 188 q 1510 171 1486 190 q 1469 13 1478 97 q 1433 -6 1460 0 q 1351 -12 1407 -12 q 1215 -6 1317 -12 q 1124 0 1151 0 q 1028 -12 1071 0 q 1014 43 1013 13 q 1267 294 1156 169 q 1444 521 1379 418 q 1328 529 1397 529 q 1245 522 1275 529 q 1196 497 1215 514 q 1154 447 1176 481 q 1103 471 1122 447 q 1161 636 1146 549 q 1346 642 1238 642 q 1533 636 1460 642 q 1546 612 1540 626 q 1553 586 1551 597 q 1384 341 1485 468 q 1171 107 1283 214 q 1244 117 1201 117 l 1292 115 q 1342 113 1322 113 q 1407 127 1388 113 q 1450 188 1426 142 z "},"ǅ":{"ha":1574,"x_min":35,"x_max":1636,"o":"m 544 943 q 872 862 742 943 q 1003 578 1003 781 q 990 449 1003 519 q 791 113 949 225 q 388 0 633 0 l 383 0 q 35 -4 143 0 q 46 56 38 31 q 110 74 89 61 q 143 114 132 86 q 164 199 154 142 l 264 769 q 268 813 268 794 q 249 865 268 851 q 181 885 229 879 q 176 919 176 901 q 178 943 176 936 q 369 939 268 939 q 460 942 399 939 l 544 943 m 846 438 q 860 569 860 507 q 763 810 860 736 q 510 883 667 883 q 411 872 463 883 l 293 185 q 286 125 286 143 q 308 75 286 88 q 393 63 331 63 q 690 153 572 63 q 846 438 808 243 m 1450 188 q 1510 171 1486 190 q 1469 13 1478 97 q 1433 -6 1460 0 q 1351 -12 1407 -12 q 1215 -6 1317 -12 q 1124 0 1151 0 q 1028 -12 1071 0 q 1014 43 1013 13 q 1267 294 1156 169 q 1444 521 1379 418 q 1328 529 1397 529 q 1245 522 1275 529 q 1196 497 1215 514 q 1154 447 1176 481 q 1103 471 1122 447 q 1161 636 1146 549 q 1346 642 1238 642 q 1533 636 1460 642 q 1546 612 1540 626 q 1553 586 1551 597 q 1384 341 1485 468 q 1171 107 1283 214 q 1244 117 1201 117 l 1292 115 q 1342 113 1322 113 q 1407 127 1388 113 q 1450 188 1426 142 m 1357 718 q 1194 933 1275 850 q 1226 972 1201 963 q 1407 844 1328 893 q 1599 960 1526 903 q 1636 928 1625 953 q 1403 724 1504 831 q 1369 717 1385 717 q 1357 718 1361 717 z "},"E":{"ha":810,"x_min":40,"x_max":808,"o":"m 411 876 l 349 506 l 426 506 q 552 529 514 506 q 601 619 590 553 q 639 624 622 624 q 668 621 646 624 q 639 467 649 543 q 622 307 626 385 q 558 325 579 311 l 560 349 q 530 423 560 403 q 421 443 500 443 l 338 443 l 296 199 q 289 132 289 154 q 312 76 289 89 q 397 63 335 63 l 424 63 q 553 82 506 63 q 629 137 601 101 q 690 239 657 172 q 753 208 731 232 q 678 -4 701 110 q 389 0 596 0 q 40 -4 149 0 q 50 56 40 28 q 114 74 93 61 q 145 113 135 86 q 165 199 156 140 l 261 750 q 267 806 267 779 q 247 862 267 846 q 179 883 228 878 q 176 918 176 906 q 178 943 176 935 q 422 939 286 939 q 808 943 665 939 q 797 767 797 858 q 799 717 797 732 q 729 707 772 706 q 714 809 726 775 q 660 860 701 843 q 532 876 619 876 l 411 876 z "},"É":{"ha":810,"x_min":40,"x_max":808,"o":"m 411 876 l 349 506 l 426 506 q 552 529 514 506 q 601 619 590 553 q 639 624 622 624 q 668 621 646 624 q 639 467 649 543 q 622 307 626 385 q 558 325 579 311 l 560 349 q 530 423 560 403 q 421 443 500 443 l 338 443 l 296 199 q 289 132 289 154 q 312 76 289 89 q 397 63 335 63 l 424 63 q 553 82 506 63 q 629 137 601 101 q 690 239 657 172 q 753 208 731 232 q 678 -4 701 110 q 389 0 596 0 q 40 -4 149 0 q 50 56 40 28 q 114 74 93 61 q 145 113 135 86 q 165 199 156 140 l 261 750 q 267 806 267 779 q 247 862 267 846 q 179 883 228 878 q 176 918 176 906 q 178 943 176 935 q 422 939 286 939 q 808 943 665 939 q 797 767 797 858 q 799 717 797 732 q 729 707 772 706 q 714 809 726 775 q 660 860 701 843 q 532 876 619 876 l 411 876 m 504 1013 q 453 1035 475 1014 q 524 1131 493 1082 q 571 1215 554 1179 q 628 1221 610 1221 q 715 1203 676 1221 q 504 1013 614 1121 z "},"Ĕ":{"ha":810,"x_min":40,"x_max":808,"o":"m 411 876 l 349 506 l 426 506 q 552 529 514 506 q 601 619 590 553 q 639 624 622 624 q 668 621 646 624 q 639 467 649 543 q 622 307 626 385 q 558 325 579 311 l 560 349 q 530 423 560 403 q 421 443 500 443 l 338 443 l 296 199 q 289 132 289 154 q 312 76 289 89 q 397 63 335 63 l 424 63 q 553 82 506 63 q 629 137 601 101 q 690 239 657 172 q 753 208 731 232 q 678 -4 701 110 q 389 0 596 0 q 40 -4 149 0 q 50 56 40 28 q 114 74 93 61 q 145 113 135 86 q 165 199 156 140 l 261 750 q 267 806 267 779 q 247 862 267 846 q 179 883 228 878 q 176 918 176 906 q 178 943 176 935 q 422 939 286 939 q 808 943 665 939 q 797 767 797 858 q 799 717 797 732 q 729 707 772 706 q 714 809 726 775 q 660 860 701 843 q 532 876 619 876 l 411 876 m 506 1013 q 366 1050 414 1013 q 318 1157 318 1088 q 322 1203 318 1178 q 382 1215 354 1218 q 422 1133 381 1164 q 535 1103 463 1103 q 657 1133 607 1103 q 722 1215 707 1163 l 732 1215 q 768 1208 757 1215 q 682 1063 750 1114 q 506 1013 614 1013 z "},"Ě":{"ha":810,"x_min":40,"x_max":808,"o":"m 411 876 l 349 506 l 426 506 q 552 529 514 506 q 601 619 590 553 q 639 624 622 624 q 668 621 646 624 q 639 467 649 543 q 622 307 626 385 q 558 325 579 311 l 560 349 q 530 423 560 403 q 421 443 500 443 l 338 443 l 296 199 q 289 132 289 154 q 312 76 289 89 q 397 63 335 63 l 424 63 q 553 82 506 63 q 629 137 601 101 q 690 239 657 172 q 753 208 731 232 q 678 -4 701 110 q 389 0 596 0 q 40 -4 149 0 q 50 56 40 28 q 114 74 93 61 q 145 113 135 86 q 165 199 156 140 l 261 750 q 267 806 267 779 q 247 862 267 846 q 179 883 228 878 q 176 918 176 906 q 178 943 176 935 q 422 939 286 939 q 808 943 665 939 q 797 767 797 858 q 799 717 797 732 q 729 707 772 706 q 714 809 726 775 q 660 860 701 843 q 532 876 619 876 l 411 876 m 494 1018 q 324 1189 413 1121 q 354 1229 328 1222 q 539 1131 444 1175 q 726 1222 646 1171 q 749 1208 739 1218 q 765 1186 760 1199 q 540 1025 635 1104 q 494 1018 513 1014 z "},"Ȩ":{"ha":810,"x_min":40,"x_max":808,"o":"m 411 876 l 349 506 l 426 506 q 552 529 514 506 q 601 619 590 553 q 639 624 622 624 q 668 621 646 624 q 639 467 649 543 q 622 307 626 385 q 558 325 579 311 l 560 349 q 530 423 560 403 q 421 443 500 443 l 338 443 l 296 199 q 289 132 289 154 q 312 76 289 89 q 397 63 335 63 l 424 63 q 553 82 506 63 q 629 137 601 101 q 690 239 657 172 q 753 208 731 232 q 678 -4 701 110 q 425 0 604 0 l 363 -76 q 451 -179 451 -93 q 447 -219 451 -199 q 379 -308 435 -278 q 243 -336 324 -339 q 240 -312 240 -329 q 242 -292 240 -299 q 334 -270 301 -292 q 367 -204 367 -249 q 346 -157 367 -174 q 290 -140 325 -140 q 275 -103 275 -128 q 276 -87 275 -93 l 349 0 q 40 -4 138 0 q 50 56 40 28 q 114 74 93 61 q 145 113 135 86 q 165 199 156 140 l 261 750 q 267 806 267 779 q 247 862 267 846 q 179 883 228 878 q 176 918 176 906 q 178 943 176 935 q 422 939 286 939 q 808 943 665 939 q 797 767 797 858 q 799 717 797 732 q 729 707 772 706 q 714 809 726 775 q 660 860 701 843 q 532 876 619 876 l 411 876 z "},"Ḝ":{"ha":810,"x_min":40,"x_max":808,"o":"m 506 1013 q 366 1050 414 1013 q 318 1157 318 1088 q 322 1203 318 1178 q 382 1215 354 1218 q 422 1133 381 1164 q 535 1103 463 1103 q 657 1133 607 1103 q 722 1215 707 1163 l 732 1215 q 768 1208 757 1215 q 682 1063 750 1114 q 506 1013 614 1013 m 411 876 l 349 506 l 426 506 q 552 529 514 506 q 601 619 590 553 q 639 624 622 624 q 668 621 646 624 q 639 467 649 543 q 622 307 626 385 q 558 325 579 311 l 560 349 q 530 423 560 403 q 421 443 500 443 l 338 443 l 296 199 q 289 132 289 154 q 312 76 289 89 q 397 63 335 63 l 424 63 q 553 82 506 63 q 629 137 601 101 q 690 239 657 172 q 753 208 731 232 q 678 -4 701 110 q 425 0 604 0 l 363 -76 q 451 -179 451 -93 q 447 -219 451 -199 q 379 -308 435 -278 q 243 -336 324 -339 q 240 -312 240 -329 q 242 -292 240 -299 q 334 -270 301 -292 q 367 -204 367 -249 q 346 -157 367 -174 q 290 -140 325 -140 q 275 -103 275 -128 q 276 -87 275 -93 l 349 0 q 40 -4 138 0 q 50 56 40 28 q 114 74 93 61 q 145 113 135 86 q 165 199 156 140 l 261 750 q 267 806 267 779 q 247 862 267 846 q 179 883 228 878 q 176 918 176 906 q 178 943 176 935 q 422 939 286 939 q 808 943 665 939 q 797 767 797 858 q 799 717 797 732 q 729 707 772 706 q 714 809 726 775 q 660 860 701 843 q 532 876 619 876 l 411 876 z "},"Ê":{"ha":810,"x_min":40,"x_max":808,"o":"m 411 876 l 349 506 l 426 506 q 552 529 514 506 q 601 619 590 553 q 639 624 622 624 q 668 621 646 624 q 639 467 649 543 q 622 307 626 385 q 558 325 579 311 l 560 349 q 530 423 560 403 q 421 443 500 443 l 338 443 l 296 199 q 289 132 289 154 q 312 76 289 89 q 397 63 335 63 l 424 63 q 553 82 506 63 q 629 137 601 101 q 690 239 657 172 q 753 208 731 232 q 678 -4 701 110 q 389 0 596 0 q 40 -4 149 0 q 50 56 40 28 q 114 74 93 61 q 145 113 135 86 q 165 199 156 140 l 261 750 q 267 806 267 779 q 247 862 267 846 q 179 883 228 878 q 176 918 176 906 q 178 943 176 935 q 422 939 286 939 q 808 943 665 939 q 797 767 797 858 q 799 717 797 732 q 729 707 772 706 q 714 809 726 775 q 660 860 701 843 q 532 876 619 876 l 411 876 m 354 1014 q 342 1041 346 1025 q 339 1071 338 1057 q 549 1218 419 1118 q 563 1219 554 1219 q 601 1211 582 1219 q 749 1051 646 1157 q 733 1030 744 1039 q 708 1018 722 1021 q 540 1107 626 1072 q 354 1014 469 1079 z "},"Ế":{"ha":810,"x_min":40,"x_max":922,"o":"m 411 876 l 349 506 l 426 506 q 552 529 514 506 q 601 619 590 553 q 639 624 622 624 q 668 621 646 624 q 639 467 649 543 q 622 307 626 385 q 558 325 579 311 l 560 349 q 530 423 560 403 q 421 443 500 443 l 338 443 l 296 199 q 289 132 289 154 q 312 76 289 89 q 397 63 335 63 l 424 63 q 553 82 506 63 q 629 137 601 101 q 690 239 657 172 q 753 208 731 232 q 678 -4 701 110 q 389 0 596 0 q 40 -4 149 0 q 50 56 40 28 q 114 74 93 61 q 145 113 135 86 q 165 199 156 140 l 261 750 q 267 806 267 779 q 247 862 267 846 q 179 883 228 878 q 176 918 176 906 q 178 943 176 935 q 422 939 286 939 q 808 943 665 939 q 797 767 797 858 q 799 717 797 732 q 729 707 772 706 q 714 809 726 775 q 660 860 701 843 q 532 876 619 876 l 411 876 m 732 1183 q 686 1203 706 1185 q 750 1291 722 1247 q 792 1365 778 1335 q 843 1371 828 1371 q 922 1354 890 1371 q 732 1183 828 1276 m 354 1014 q 342 1041 346 1025 q 339 1071 338 1057 q 549 1218 419 1118 q 563 1219 554 1219 q 601 1211 582 1219 q 749 1051 646 1157 q 733 1030 744 1039 q 708 1018 722 1021 q 540 1107 626 1072 q 354 1014 469 1079 z "},"Ệ":{"ha":810,"x_min":40,"x_max":808,"o":"m 411 876 l 349 506 l 426 506 q 552 529 514 506 q 601 619 590 553 q 639 624 622 624 q 668 621 646 624 q 639 467 649 543 q 622 307 626 385 q 558 325 579 311 l 560 349 q 530 423 560 403 q 421 443 500 443 l 338 443 l 296 199 q 289 132 289 154 q 312 76 289 89 q 397 63 335 63 l 424 63 q 553 82 506 63 q 629 137 601 101 q 690 239 657 172 q 753 208 731 232 q 678 -4 701 110 q 389 0 596 0 q 40 -4 149 0 q 50 56 40 28 q 114 74 93 61 q 145 113 135 86 q 165 199 156 140 l 261 750 q 267 806 267 779 q 247 862 267 846 q 179 883 228 878 q 176 918 176 906 q 178 943 176 935 q 422 939 286 939 q 808 943 665 939 q 797 767 797 858 q 799 717 797 732 q 729 707 772 706 q 714 809 726 775 q 660 860 701 843 q 532 876 619 876 l 411 876 m 324 -296 q 276 -278 294 -296 q 258 -232 258 -261 q 283 -158 258 -187 q 346 -129 308 -129 q 392 -145 372 -129 q 411 -194 411 -161 q 387 -266 411 -236 q 324 -296 363 -296 m 354 1014 q 342 1041 346 1025 q 339 1071 338 1057 q 549 1218 419 1118 q 563 1219 554 1219 q 601 1211 582 1219 q 749 1051 646 1157 q 733 1030 744 1039 q 708 1018 722 1021 q 540 1107 626 1072 q 354 1014 469 1079 z "},"Ề":{"ha":810,"x_min":40,"x_max":808,"o":"m 411 876 l 349 506 l 426 506 q 552 529 514 506 q 601 619 590 553 q 639 624 622 624 q 668 621 646 624 q 639 467 649 543 q 622 307 626 385 q 558 325 579 311 l 560 349 q 530 423 560 403 q 421 443 500 443 l 338 443 l 296 199 q 289 132 289 154 q 312 76 289 89 q 397 63 335 63 l 424 63 q 553 82 506 63 q 629 137 601 101 q 690 239 657 172 q 753 208 731 232 q 678 -4 701 110 q 389 0 596 0 q 40 -4 149 0 q 50 56 40 28 q 114 74 93 61 q 145 113 135 86 q 165 199 156 140 l 261 750 q 267 806 267 779 q 247 862 267 846 q 179 883 228 878 q 176 918 176 906 q 178 943 176 935 q 422 939 286 939 q 808 943 665 939 q 797 767 797 858 q 799 717 797 732 q 729 707 772 706 q 714 809 726 775 q 660 860 701 843 q 532 876 619 876 l 411 876 z "},"Ể":{"ha":810,"x_min":40,"x_max":894,"o":"m 411 876 l 349 506 l 426 506 q 552 529 514 506 q 601 619 590 553 q 639 624 622 624 q 668 621 646 624 q 639 467 649 543 q 622 307 626 385 q 558 325 579 311 l 560 349 q 530 423 560 403 q 421 443 500 443 l 338 443 l 296 199 q 289 132 289 154 q 312 76 289 89 q 397 63 335 63 l 424 63 q 553 82 506 63 q 629 137 601 101 q 690 239 657 172 q 753 208 731 232 q 678 -4 701 110 q 389 0 596 0 q 40 -4 149 0 q 50 56 40 28 q 114 74 93 61 q 145 113 135 86 q 165 199 156 140 l 261 750 q 267 806 267 779 q 247 862 267 846 q 179 883 228 878 q 176 918 176 906 q 178 943 176 935 q 422 939 286 939 q 808 943 665 939 q 797 767 797 858 q 799 717 797 732 q 729 707 772 706 q 714 809 726 775 q 660 860 701 843 q 532 876 619 876 l 411 876 z "},"Ễ":{"ha":810,"x_min":40,"x_max":825,"o":"m 411 876 l 349 506 l 426 506 q 552 529 514 506 q 601 619 590 553 q 639 624 622 624 q 668 621 646 624 q 639 467 649 543 q 622 307 626 385 q 558 325 579 311 l 560 349 q 530 423 560 403 q 421 443 500 443 l 338 443 l 296 199 q 289 132 289 154 q 312 76 289 89 q 397 63 335 63 l 424 63 q 553 82 506 63 q 629 137 601 101 q 690 239 657 172 q 753 208 731 232 q 678 -4 701 110 q 389 0 596 0 q 40 -4 149 0 q 50 56 40 28 q 114 74 93 61 q 145 113 135 86 q 165 199 156 140 l 261 750 q 267 806 267 779 q 247 862 267 846 q 179 883 228 878 q 176 918 176 906 q 178 943 176 935 q 422 939 286 939 q 808 943 665 939 q 797 767 797 858 q 799 717 797 732 q 729 707 772 706 q 714 809 726 775 q 660 860 701 843 q 532 876 619 876 l 411 876 m 354 1014 q 342 1041 346 1025 q 339 1071 338 1057 q 549 1218 419 1118 q 563 1219 554 1219 q 601 1211 582 1219 q 749 1051 646 1157 q 733 1030 744 1039 q 708 1018 722 1021 q 540 1107 626 1072 q 354 1014 469 1079 m 664 1292 q 619 1298 640 1292 q 571 1317 597 1304 q 526 1334 544 1328 q 486 1340 507 1340 q 378 1296 436 1340 q 365 1349 361 1315 q 532 1429 447 1429 q 578 1423 557 1429 q 631 1403 600 1417 q 670 1387 654 1392 q 704 1382 686 1382 q 790 1421 744 1382 q 825 1390 818 1407 q 664 1292 749 1292 z "},"Ȅ":{"ha":810,"x_min":40,"x_max":808,"o":"m 411 876 l 349 506 l 426 506 q 552 529 514 506 q 601 619 590 553 q 639 624 622 624 q 668 621 646 624 q 639 467 649 543 q 622 307 626 385 q 558 325 579 311 l 560 349 q 530 423 560 403 q 421 443 500 443 l 338 443 l 296 199 q 289 132 289 154 q 312 76 289 89 q 397 63 335 63 l 424 63 q 553 82 506 63 q 629 137 601 101 q 690 239 657 172 q 753 208 731 232 q 678 -4 701 110 q 389 0 596 0 q 40 -4 149 0 q 50 56 40 28 q 114 74 93 61 q 145 113 135 86 q 165 199 156 140 l 261 750 q 267 806 267 779 q 247 862 267 846 q 179 883 228 878 q 176 918 176 906 q 178 943 176 935 q 422 939 286 939 q 808 943 665 939 q 797 767 797 858 q 799 717 797 732 q 729 707 772 706 q 714 809 726 775 q 660 860 701 843 q 532 876 619 876 l 411 876 m 431 1008 q 307 1186 365 1114 q 374 1197 333 1197 q 431 1192 407 1197 l 443 1142 q 483 1003 469 1042 q 431 1008 467 1001 m 639 1008 q 515 1186 574 1114 q 582 1197 542 1197 q 639 1192 615 1197 l 651 1142 q 692 1003 678 1042 q 639 1008 675 1001 z "},"Ë":{"ha":810,"x_min":40,"x_max":808,"o":"m 411 876 l 349 506 l 426 506 q 552 529 514 506 q 601 619 590 553 q 639 624 622 624 q 668 621 646 624 q 639 467 649 543 q 622 307 626 385 q 558 325 579 311 l 560 349 q 530 423 560 403 q 421 443 500 443 l 338 443 l 296 199 q 289 132 289 154 q 312 76 289 89 q 397 63 335 63 l 424 63 q 553 82 506 63 q 629 137 601 101 q 690 239 657 172 q 753 208 731 232 q 678 -4 701 110 q 389 0 596 0 q 40 -4 149 0 q 50 56 40 28 q 114 74 93 61 q 145 113 135 86 q 165 199 156 140 l 261 750 q 267 806 267 779 q 247 862 267 846 q 179 883 228 878 q 176 918 176 906 q 178 943 176 935 q 422 939 286 939 q 808 943 665 939 q 797 767 797 858 q 799 717 797 732 q 729 707 772 706 q 714 809 726 775 q 660 860 701 843 q 532 876 619 876 l 411 876 m 393 1017 q 347 1035 364 1017 q 331 1083 331 1053 q 352 1144 331 1122 q 410 1167 374 1167 q 456 1151 439 1167 q 474 1108 474 1135 q 471 1085 474 1093 q 442 1035 463 1053 q 393 1017 422 1017 m 664 1018 q 618 1035 635 1018 q 601 1082 601 1053 q 623 1144 601 1122 q 683 1167 644 1167 q 728 1151 713 1167 q 744 1107 744 1135 q 743 1089 744 1096 q 717 1036 738 1054 q 664 1018 696 1018 z "},"Ė":{"ha":810,"x_min":40,"x_max":808,"o":"m 411 876 l 349 506 l 426 506 q 552 529 514 506 q 601 619 590 553 q 639 624 622 624 q 668 621 646 624 q 639 467 649 543 q 622 307 626 385 q 558 325 579 311 l 560 349 q 530 423 560 403 q 421 443 500 443 l 338 443 l 296 199 q 289 132 289 154 q 312 76 289 89 q 397 63 335 63 l 424 63 q 553 82 506 63 q 629 137 601 101 q 690 239 657 172 q 753 208 731 232 q 678 -4 701 110 q 389 0 596 0 q 40 -4 149 0 q 50 56 40 28 q 114 74 93 61 q 145 113 135 86 q 165 199 156 140 l 261 750 q 267 806 267 779 q 247 862 267 846 q 179 883 228 878 q 176 918 176 906 q 178 943 176 935 q 422 939 286 939 q 808 943 665 939 q 797 767 797 858 q 799 717 797 732 q 729 707 772 706 q 714 809 726 775 q 660 860 701 843 q 532 876 619 876 l 411 876 m 522 1001 q 476 1018 493 1001 q 460 1063 460 1035 q 485 1131 460 1106 q 549 1157 511 1157 q 596 1140 579 1157 q 613 1094 613 1124 q 587 1027 613 1053 q 522 1001 561 1001 z "},"Ẹ":{"ha":810,"x_min":40,"x_max":808,"o":"m 411 876 l 349 506 l 426 506 q 552 529 514 506 q 601 619 590 553 q 639 624 622 624 q 668 621 646 624 q 639 467 649 543 q 622 307 626 385 q 558 325 579 311 l 560 349 q 530 423 560 403 q 421 443 500 443 l 338 443 l 296 199 q 289 132 289 154 q 312 76 289 89 q 397 63 335 63 l 424 63 q 553 82 506 63 q 629 137 601 101 q 690 239 657 172 q 753 208 731 232 q 678 -4 701 110 q 389 0 596 0 q 40 -4 149 0 q 50 56 40 28 q 114 74 93 61 q 145 113 135 86 q 165 199 156 140 l 261 750 q 267 806 267 779 q 247 862 267 846 q 179 883 228 878 q 176 918 176 906 q 178 943 176 935 q 422 939 286 939 q 808 943 665 939 q 797 767 797 858 q 799 717 797 732 q 729 707 772 706 q 714 809 726 775 q 660 860 701 843 q 532 876 619 876 l 411 876 m 324 -296 q 276 -278 294 -296 q 258 -232 258 -261 q 283 -158 258 -187 q 346 -129 308 -129 q 392 -145 372 -129 q 411 -194 411 -161 q 387 -266 411 -236 q 324 -296 363 -296 z "},"È":{"ha":810,"x_min":40,"x_max":808,"o":"m 411 876 l 349 506 l 426 506 q 552 529 514 506 q 601 619 590 553 q 639 624 622 624 q 668 621 646 624 q 639 467 649 543 q 622 307 626 385 q 558 325 579 311 l 560 349 q 530 423 560 403 q 421 443 500 443 l 338 443 l 296 199 q 289 132 289 154 q 312 76 289 89 q 397 63 335 63 l 424 63 q 553 82 506 63 q 629 137 601 101 q 690 239 657 172 q 753 208 731 232 q 678 -4 701 110 q 389 0 596 0 q 40 -4 149 0 q 50 56 40 28 q 114 74 93 61 q 145 113 135 86 q 165 199 156 140 l 261 750 q 267 806 267 779 q 247 862 267 846 q 179 883 228 878 q 176 918 176 906 q 178 943 176 935 q 422 939 286 939 q 808 943 665 939 q 797 767 797 858 q 799 717 797 732 q 729 707 772 706 q 714 809 726 775 q 660 860 701 843 q 532 876 619 876 l 411 876 m 575 1028 q 544 1022 561 1022 q 514 1028 531 1022 q 378 1204 469 1103 q 450 1215 411 1215 q 507 1208 476 1215 q 575 1028 533 1107 z "},"Ẻ":{"ha":810,"x_min":40,"x_max":808,"o":"m 411 876 l 349 506 l 426 506 q 552 529 514 506 q 601 619 590 553 q 639 624 622 624 q 668 621 646 624 q 639 467 649 543 q 622 307 626 385 q 558 325 579 311 l 560 349 q 530 423 560 403 q 421 443 500 443 l 338 443 l 296 199 q 289 132 289 154 q 312 76 289 89 q 397 63 335 63 l 424 63 q 553 82 506 63 q 629 137 601 101 q 690 239 657 172 q 753 208 731 232 q 678 -4 701 110 q 389 0 596 0 q 40 -4 149 0 q 50 56 40 28 q 114 74 93 61 q 145 113 135 86 q 165 199 156 140 l 261 750 q 267 806 267 779 q 247 862 267 846 q 179 883 228 878 q 176 918 176 906 q 178 943 176 935 q 422 939 286 939 q 808 943 665 939 q 797 767 797 858 q 799 717 797 732 q 729 707 772 706 q 714 809 726 775 q 660 860 701 843 q 532 876 619 876 l 411 876 m 488 1018 q 479 1050 479 1033 q 493 1090 479 1076 q 536 1119 507 1104 q 583 1158 575 1138 q 585 1168 585 1161 q 556 1186 585 1186 q 472 1103 500 1186 q 451 1108 467 1104 q 425 1117 435 1113 q 408 1128 415 1121 q 415 1149 411 1135 q 422 1174 419 1163 q 422 1200 424 1186 q 567 1236 494 1236 q 652 1218 622 1236 q 682 1168 682 1200 q 679 1151 682 1163 q 653 1111 672 1126 q 604 1081 635 1096 q 567 1059 579 1068 q 551 1038 556 1050 q 549 1028 551 1033 q 549 1015 547 1024 q 524 1014 542 1014 q 488 1018 504 1014 z "},"Ȇ":{"ha":810,"x_min":40,"x_max":808,"o":"m 411 876 l 349 506 l 426 506 q 552 529 514 506 q 601 619 590 553 q 639 624 622 624 q 668 621 646 624 q 639 467 649 543 q 622 307 626 385 q 558 325 579 311 l 560 349 q 530 423 560 403 q 421 443 500 443 l 338 443 l 296 199 q 289 132 289 154 q 312 76 289 89 q 397 63 335 63 l 424 63 q 553 82 506 63 q 629 137 601 101 q 690 239 657 172 q 753 208 731 232 q 678 -4 701 110 q 389 0 596 0 q 40 -4 149 0 q 50 56 40 28 q 114 74 93 61 q 145 113 135 86 q 165 199 156 140 l 261 750 q 267 806 267 779 q 247 862 267 846 q 179 883 228 878 q 176 918 176 906 q 178 943 176 935 q 422 939 286 939 q 808 943 665 939 q 797 767 797 858 q 799 717 797 732 q 729 707 772 706 q 714 809 726 775 q 660 860 701 843 q 532 876 619 876 l 411 876 m 578 1207 q 717 1169 669 1207 q 765 1063 765 1132 q 761 1017 765 1042 q 701 1004 729 1001 q 662 1086 703 1056 q 549 1117 621 1117 q 426 1087 476 1117 q 361 1004 376 1057 l 351 1004 q 315 1011 326 1004 q 401 1156 333 1106 q 578 1207 469 1207 z "},"Ē":{"ha":810,"x_min":40,"x_max":808,"o":"m 411 876 l 349 506 l 426 506 q 552 529 514 506 q 601 619 590 553 q 639 624 622 624 q 668 621 646 624 q 639 467 649 543 q 622 307 626 385 q 558 325 579 311 l 560 349 q 530 423 560 403 q 421 443 500 443 l 338 443 l 296 199 q 289 132 289 154 q 312 76 289 89 q 397 63 335 63 l 424 63 q 553 82 506 63 q 629 137 601 101 q 690 239 657 172 q 753 208 731 232 q 678 -4 701 110 q 389 0 596 0 q 40 -4 149 0 q 50 56 40 28 q 114 74 93 61 q 145 113 135 86 q 165 199 156 140 l 261 750 q 267 806 267 779 q 247 862 267 846 q 179 883 228 878 q 176 918 176 906 q 178 943 176 935 q 422 939 286 939 q 808 943 665 939 q 797 767 797 858 q 799 717 797 732 q 729 707 772 706 q 714 809 726 775 q 660 860 701 843 q 532 876 619 876 l 411 876 m 290 1060 q 293 1092 290 1072 q 303 1124 296 1113 l 786 1124 q 774 1064 786 1096 q 290 1060 488 1064 z "},"Ḗ":{"ha":810,"x_min":40,"x_max":808,"o":"m 411 876 l 349 506 l 426 506 q 552 529 514 506 q 601 619 590 553 q 639 624 622 624 q 668 621 646 624 q 639 467 649 543 q 622 307 626 385 q 558 325 579 311 l 560 349 q 530 423 560 403 q 421 443 500 443 l 338 443 l 296 199 q 289 132 289 154 q 312 76 289 89 q 397 63 335 63 l 424 63 q 553 82 506 63 q 629 137 601 101 q 690 239 657 172 q 753 208 731 232 q 678 -4 701 110 q 389 0 596 0 q 40 -4 149 0 q 50 56 40 28 q 114 74 93 61 q 145 113 135 86 q 165 199 156 140 l 261 750 q 267 806 267 779 q 247 862 267 846 q 179 883 228 878 q 176 918 176 906 q 178 943 176 935 q 422 939 286 939 q 808 943 665 939 q 797 767 797 858 q 799 717 797 732 q 729 707 772 706 q 714 809 726 775 q 660 860 701 843 q 532 876 619 876 l 411 876 m 290 1060 q 293 1092 290 1072 q 303 1124 296 1113 l 786 1124 q 774 1064 786 1096 q 290 1060 488 1064 m 540 1197 q 489 1219 511 1199 q 560 1315 529 1267 q 607 1400 590 1364 q 664 1406 646 1406 q 751 1388 713 1406 q 540 1197 650 1306 z "},"Ḕ":{"ha":810,"x_min":40,"x_max":808,"o":"m 411 876 l 349 506 l 426 506 q 552 529 514 506 q 601 619 590 553 q 639 624 622 624 q 668 621 646 624 q 639 467 649 543 q 622 307 626 385 q 558 325 579 311 l 560 349 q 530 423 560 403 q 421 443 500 443 l 338 443 l 296 199 q 289 132 289 154 q 312 76 289 89 q 397 63 335 63 l 424 63 q 553 82 506 63 q 629 137 601 101 q 690 239 657 172 q 753 208 731 232 q 678 -4 701 110 q 389 0 596 0 q 40 -4 149 0 q 50 56 40 28 q 114 74 93 61 q 145 113 135 86 q 165 199 156 140 l 261 750 q 267 806 267 779 q 247 862 267 846 q 179 883 228 878 q 176 918 176 906 q 178 943 176 935 q 422 939 286 939 q 808 943 665 939 q 797 767 797 858 q 799 717 797 732 q 729 707 772 706 q 714 809 726 775 q 660 860 701 843 q 532 876 619 876 l 411 876 m 290 1060 q 293 1092 290 1072 q 303 1124 296 1113 l 786 1124 q 774 1064 786 1096 q 290 1060 488 1064 m 611 1213 q 581 1207 597 1207 q 550 1213 567 1207 q 414 1389 506 1288 q 486 1400 447 1400 q 543 1393 513 1400 q 611 1213 569 1292 z "},"Ę":{"ha":810,"x_min":40,"x_max":808,"o":"m 411 876 l 349 506 l 426 506 q 552 529 514 506 q 601 619 590 553 q 639 624 622 624 q 668 621 646 624 q 639 467 649 543 q 622 307 626 385 q 558 325 579 311 l 560 349 q 530 423 560 403 q 421 443 500 443 l 338 443 l 296 199 q 289 132 289 154 q 312 76 289 89 q 397 63 335 63 l 424 63 q 553 82 506 63 q 629 137 601 101 q 690 239 657 172 q 753 208 731 232 q 678 -4 701 110 l 558 0 q 408 -158 408 -76 q 428 -207 408 -187 q 485 -226 449 -226 q 544 -215 515 -226 q 549 -242 549 -228 q 546 -269 549 -250 q 431 -343 486 -297 q 404 -346 422 -346 q 326 -315 361 -346 q 290 -225 290 -283 q 331 -107 290 -162 q 460 0 371 -51 l 389 0 q 40 -4 149 0 q 50 56 40 28 q 114 74 93 61 q 145 113 135 86 q 165 199 156 140 l 261 750 q 267 806 267 779 q 247 862 267 846 q 179 883 228 878 q 176 918 176 906 q 178 943 176 935 q 422 939 286 939 q 808 943 665 939 q 797 767 797 858 q 799 717 797 732 q 729 707 772 706 q 714 809 726 775 q 660 860 701 843 q 532 876 619 876 l 411 876 z "},"Ǝ":{"ha":794,"x_min":15,"x_max":858,"o":"m 625 939 q 858 943 778 939 q 840 883 851 901 q 759 855 785 881 q 721 763 733 829 l 610 188 q 601 119 601 146 q 619 71 601 83 q 679 56 636 58 q 675 -4 682 28 q 315 0 571 0 q 18 -3 126 0 q 24 104 24 67 q 15 211 24 161 q 81 235 44 229 q 109 134 92 168 q 174 81 126 100 q 317 63 221 63 l 325 63 q 408 74 378 63 q 454 115 438 86 q 481 196 471 143 l 529 443 l 442 443 q 318 416 357 443 q 260 317 279 389 q 222 314 235 314 q 196 315 206 314 q 229 478 206 358 q 256 628 244 551 q 319 613 289 624 q 315 576 315 592 q 346 518 315 533 q 451 503 376 503 l 540 503 l 614 883 l 488 883 q 305 832 365 883 q 225 703 244 781 q 167 731 182 710 q 235 943 200 811 q 625 939 372 939 z "},"Ẽ":{"ha":810,"x_min":40,"x_max":808,"o":"m 411 876 l 349 506 l 426 506 q 552 529 514 506 q 601 619 590 553 q 639 624 622 624 q 668 621 646 624 q 639 467 649 543 q 622 307 626 385 q 558 325 579 311 l 560 349 q 530 423 560 403 q 421 443 500 443 l 338 443 l 296 199 q 289 132 289 154 q 312 76 289 89 q 397 63 335 63 l 424 63 q 553 82 506 63 q 629 137 601 101 q 690 239 657 172 q 753 208 731 232 q 678 -4 701 110 q 389 0 596 0 q 40 -4 149 0 q 50 56 40 28 q 114 74 93 61 q 145 113 135 86 q 165 199 156 140 l 261 750 q 267 806 267 779 q 247 862 267 846 q 179 883 228 878 q 176 918 176 906 q 178 943 176 935 q 422 939 286 939 q 808 943 665 939 q 797 767 797 858 q 799 717 797 732 q 729 707 772 706 q 714 809 726 775 q 660 860 701 843 q 532 876 619 876 l 411 876 m 611 1039 q 566 1045 588 1039 q 518 1064 544 1051 q 473 1081 492 1075 q 433 1088 454 1088 q 325 1043 383 1088 q 313 1096 308 1063 q 479 1176 394 1176 q 526 1170 504 1176 q 578 1150 547 1164 q 617 1134 601 1139 q 651 1129 633 1129 q 738 1168 692 1129 q 772 1138 765 1154 q 611 1039 696 1039 z "},"Ʒ":{"ha":799,"x_min":33,"x_max":833,"o":"m 832 890 q 493 526 660 692 q 684 467 618 521 q 750 319 750 413 q 744 261 750 289 q 607 60 719 132 q 315 -12 494 -12 q 161 7 229 -12 q 33 64 93 26 q 51 163 43 107 q 61 265 58 219 q 103 269 79 269 q 139 267 119 269 q 138 226 138 253 q 179 96 138 138 q 318 54 221 54 q 503 110 431 54 q 594 263 575 167 q 599 307 599 286 q 531 432 599 389 q 335 478 463 475 q 325 524 325 500 l 326 539 q 651 883 485 683 l 464 883 q 360 869 400 883 q 289 815 319 854 q 231 700 258 775 q 188 707 211 699 q 154 728 165 715 q 193 828 175 769 q 219 942 211 888 q 554 939 275 939 q 819 942 724 939 q 830 918 826 932 q 832 890 833 904 z "},"Ǯ":{"ha":799,"x_min":33,"x_max":833,"o":"m 832 890 q 493 526 660 692 q 684 467 618 521 q 750 319 750 413 q 744 261 750 289 q 607 60 719 132 q 315 -12 494 -12 q 161 7 229 -12 q 33 64 93 26 q 51 163 43 107 q 61 265 58 219 q 103 269 79 269 q 139 267 119 269 q 138 226 138 253 q 179 96 138 138 q 318 54 221 54 q 503 110 431 54 q 594 263 575 167 q 599 307 599 286 q 531 432 599 389 q 335 478 463 475 q 325 524 325 500 l 326 539 q 651 883 485 683 l 464 883 q 360 869 400 883 q 289 815 319 854 q 231 700 258 775 q 188 707 211 699 q 154 728 165 715 q 193 828 175 769 q 219 942 211 888 q 554 939 275 939 q 819 942 724 939 q 830 918 826 932 q 832 890 833 904 m 497 1018 q 326 1189 415 1121 q 357 1229 331 1222 q 542 1131 447 1175 q 729 1222 649 1171 q 752 1208 742 1218 q 768 1186 763 1199 q 543 1025 638 1104 q 497 1018 515 1014 z "},"F":{"ha":749,"x_min":39,"x_max":800,"o":"m 800 943 q 789 767 789 858 q 790 717 789 732 q 721 707 764 706 q 706 809 718 775 q 652 860 693 843 q 524 876 611 876 l 410 876 l 342 475 l 422 475 q 548 499 510 475 q 597 592 586 524 q 635 596 618 596 q 664 593 642 596 q 635 439 644 515 q 618 279 622 357 q 554 297 575 283 l 556 321 q 526 395 556 375 q 417 415 496 415 l 332 415 l 294 197 q 286 129 286 156 q 308 79 286 93 q 393 56 329 65 q 397 -4 400 35 q 221 0 328 0 q 39 -4 101 0 q 50 56 40 31 q 113 74 93 63 q 144 110 133 86 q 163 183 154 133 l 260 749 q 267 807 267 788 q 247 860 267 843 q 181 883 228 878 q 176 921 176 900 q 178 943 176 936 q 421 939 242 939 q 800 943 657 939 z "},"G":{"ha":963,"x_min":79,"x_max":968,"o":"m 643 951 q 825 932 749 951 q 968 869 901 913 q 922 661 938 783 q 883 653 904 653 q 847 658 872 653 q 851 721 851 694 q 828 831 851 793 q 764 881 806 868 q 654 894 722 894 q 364 777 474 894 q 233 463 254 660 q 229 386 229 425 q 294 149 229 242 q 499 56 360 56 q 576 60 543 56 q 643 78 610 65 q 676 98 665 86 q 694 134 688 110 q 711 210 701 158 q 725 322 725 293 q 705 378 725 364 q 628 394 685 392 q 625 428 625 406 q 626 454 625 446 q 797 450 688 450 q 960 454 889 450 q 947 394 958 419 q 899 379 915 390 q 872 334 883 368 q 847 224 861 300 q 835 131 835 160 q 842 92 835 110 q 672 16 771 44 q 460 -12 572 -12 q 254 35 340 -12 q 124 171 168 83 q 79 372 79 258 q 85 456 79 417 q 190 735 107 624 q 392 899 274 846 q 643 951 511 951 z "},"Ğ":{"ha":963,"x_min":79,"x_max":968,"o":"m 643 951 q 825 932 749 951 q 968 869 901 913 q 922 661 938 783 q 883 653 904 653 q 847 658 872 653 q 851 721 851 694 q 828 831 851 793 q 764 881 806 868 q 654 894 722 894 q 364 777 474 894 q 233 463 254 660 q 229 386 229 425 q 294 149 229 242 q 499 56 360 56 q 576 60 543 56 q 643 78 610 65 q 676 98 665 86 q 694 134 688 110 q 711 210 701 158 q 725 322 725 293 q 705 378 725 364 q 628 394 685 392 q 625 428 625 406 q 626 454 625 446 q 797 450 688 450 q 960 454 889 450 q 947 394 958 419 q 899 379 915 390 q 872 334 883 368 q 847 224 861 300 q 835 131 835 160 q 842 92 835 110 q 672 16 771 44 q 460 -12 572 -12 q 254 35 340 -12 q 124 171 168 83 q 79 372 79 258 q 85 456 79 417 q 190 735 107 624 q 392 899 274 846 q 643 951 511 951 m 646 1013 q 506 1050 554 1013 q 458 1157 458 1088 q 463 1203 458 1178 q 522 1215 494 1218 q 562 1133 521 1164 q 675 1103 603 1103 q 797 1133 747 1103 q 863 1215 847 1163 l 872 1215 q 908 1208 897 1215 q 822 1063 890 1114 q 646 1013 754 1013 z "},"Ǧ":{"ha":963,"x_min":79,"x_max":968,"o":"m 643 951 q 825 932 749 951 q 968 869 901 913 q 922 661 938 783 q 883 653 904 653 q 847 658 872 653 q 851 721 851 694 q 828 831 851 793 q 764 881 806 868 q 654 894 722 894 q 364 777 474 894 q 233 463 254 660 q 229 386 229 425 q 294 149 229 242 q 499 56 360 56 q 576 60 543 56 q 643 78 610 65 q 676 98 665 86 q 694 134 688 110 q 711 210 701 158 q 725 322 725 293 q 705 378 725 364 q 628 394 685 392 q 625 428 625 406 q 626 454 625 446 q 797 450 688 450 q 960 454 889 450 q 947 394 958 419 q 899 379 915 390 q 872 334 883 368 q 847 224 861 300 q 835 131 835 160 q 842 92 835 110 q 672 16 771 44 q 460 -12 572 -12 q 254 35 340 -12 q 124 171 168 83 q 79 372 79 258 q 85 456 79 417 q 190 735 107 624 q 392 899 274 846 q 643 951 511 951 m 635 1018 q 464 1189 553 1121 q 494 1229 468 1222 q 679 1131 585 1175 q 867 1222 786 1171 q 890 1208 879 1218 q 906 1186 900 1199 q 681 1025 775 1104 q 635 1018 653 1014 z "},"Ĝ":{"ha":963,"x_min":79,"x_max":968,"o":"m 643 951 q 825 932 749 951 q 968 869 901 913 q 922 661 938 783 q 883 653 904 653 q 847 658 872 653 q 851 721 851 694 q 828 831 851 793 q 764 881 806 868 q 654 894 722 894 q 364 777 474 894 q 233 463 254 660 q 229 386 229 425 q 294 149 229 242 q 499 56 360 56 q 576 60 543 56 q 643 78 610 65 q 676 98 665 86 q 694 134 688 110 q 711 210 701 158 q 725 322 725 293 q 705 378 725 364 q 628 394 685 392 q 625 428 625 406 q 626 454 625 446 q 797 450 688 450 q 960 454 889 450 q 947 394 958 419 q 899 379 915 390 q 872 334 883 368 q 847 224 861 300 q 835 131 835 160 q 842 92 835 110 q 672 16 771 44 q 460 -12 572 -12 q 254 35 340 -12 q 124 171 168 83 q 79 372 79 258 q 85 456 79 417 q 190 735 107 624 q 392 899 274 846 q 643 951 511 951 m 494 1014 q 482 1041 486 1025 q 479 1071 478 1057 q 689 1218 560 1118 q 703 1219 694 1219 q 742 1211 722 1219 q 889 1051 786 1157 q 874 1030 885 1039 q 849 1018 863 1021 q 681 1107 767 1072 q 494 1014 610 1079 z "},"Ģ":{"ha":963,"x_min":79,"x_max":968,"o":"m 643 951 q 825 932 749 951 q 968 869 901 913 q 922 661 938 783 q 883 653 904 653 q 847 658 872 653 q 851 721 851 694 q 828 831 851 793 q 764 881 806 868 q 654 894 722 894 q 364 777 474 894 q 233 463 254 660 q 229 386 229 425 q 294 149 229 242 q 499 56 360 56 q 576 60 543 56 q 643 78 610 65 q 676 98 665 86 q 694 134 688 110 q 711 210 701 158 q 725 322 725 293 q 705 378 725 364 q 628 394 685 392 q 625 428 625 406 q 626 454 625 446 q 797 450 688 450 q 960 454 889 450 q 947 394 958 419 q 899 379 915 390 q 872 334 883 368 q 847 224 861 300 q 835 131 835 160 q 842 92 835 110 q 672 16 771 44 q 460 -12 572 -12 q 254 35 340 -12 q 124 171 168 83 q 79 372 79 258 q 85 456 79 417 q 190 735 107 624 q 392 899 274 846 q 643 951 511 951 m 365 -387 q 333 -356 339 -376 q 397 -286 374 -321 q 419 -225 419 -251 q 375 -185 419 -192 q 380 -140 374 -162 q 399 -101 386 -118 q 517 -60 468 -87 q 553 -125 553 -75 q 550 -153 553 -133 q 488 -280 538 -221 q 365 -387 438 -339 z "},"Ġ":{"ha":963,"x_min":79,"x_max":968,"o":"m 643 951 q 825 932 749 951 q 968 869 901 913 q 922 661 938 783 q 883 653 904 653 q 847 658 872 653 q 851 721 851 694 q 828 831 851 793 q 764 881 806 868 q 654 894 722 894 q 364 777 474 894 q 233 463 254 660 q 229 386 229 425 q 294 149 229 242 q 499 56 360 56 q 576 60 543 56 q 643 78 610 65 q 676 98 665 86 q 694 134 688 110 q 711 210 701 158 q 725 322 725 293 q 705 378 725 364 q 628 394 685 392 q 625 428 625 406 q 626 454 625 446 q 797 450 688 450 q 960 454 889 450 q 947 394 958 419 q 899 379 915 390 q 872 334 883 368 q 847 224 861 300 q 835 131 835 160 q 842 92 835 110 q 672 16 771 44 q 460 -12 572 -12 q 254 35 340 -12 q 124 171 168 83 q 79 372 79 258 q 85 456 79 417 q 190 735 107 624 q 392 899 274 846 q 643 951 511 951 m 663 1001 q 617 1018 633 1001 q 600 1063 600 1035 q 626 1131 600 1106 q 689 1157 651 1157 q 736 1140 719 1157 q 753 1094 753 1124 q 727 1027 753 1053 q 663 1001 701 1001 z "},"Ḡ":{"ha":963,"x_min":79,"x_max":968,"o":"m 643 951 q 825 932 749 951 q 968 869 901 913 q 922 661 938 783 q 883 653 904 653 q 847 658 872 653 q 851 721 851 694 q 828 831 851 793 q 764 881 806 868 q 654 894 722 894 q 364 777 474 894 q 233 463 254 660 q 229 386 229 425 q 294 149 229 242 q 499 56 360 56 q 576 60 543 56 q 643 78 610 65 q 676 98 665 86 q 694 134 688 110 q 711 210 701 158 q 725 322 725 293 q 705 378 725 364 q 628 394 685 392 q 625 428 625 406 q 626 454 625 446 q 797 450 688 450 q 960 454 889 450 q 947 394 958 419 q 899 379 915 390 q 872 334 883 368 q 847 224 861 300 q 835 131 835 160 q 842 92 835 110 q 672 16 771 44 q 460 -12 572 -12 q 254 35 340 -12 q 124 171 168 83 q 79 372 79 258 q 85 456 79 417 q 190 735 107 624 q 392 899 274 846 q 643 951 511 951 m 431 1060 q 433 1092 431 1072 q 443 1124 436 1113 l 926 1124 q 914 1064 926 1096 q 431 1060 628 1064 z "},"Ǥ":{"ha":963,"x_min":79,"x_max":968,"o":"m 947 394 q 903 381 918 390 q 876 346 888 372 q 854 264 865 319 l 956 264 q 943 194 956 219 q 842 196 904 196 q 835 131 835 150 q 842 92 835 110 q 672 16 771 44 q 460 -12 572 -12 q 254 35 340 -12 q 124 171 168 83 q 79 372 79 258 q 85 456 79 417 q 190 735 107 624 q 392 899 274 846 q 643 951 511 951 q 825 932 749 951 q 968 869 901 913 q 922 661 938 783 q 883 653 904 653 q 847 658 872 653 q 851 721 851 694 q 828 831 851 793 q 764 881 806 868 q 654 894 722 894 q 364 777 474 894 q 233 463 254 660 q 229 386 229 425 q 294 149 229 242 q 499 56 360 56 q 576 60 543 56 q 643 78 610 65 q 685 110 674 89 q 708 196 696 131 q 524 193 594 196 q 527 233 524 210 q 536 264 531 256 l 719 264 q 725 324 725 296 q 705 378 725 365 q 628 394 685 392 q 625 428 625 406 q 626 454 625 446 q 797 450 688 450 q 960 454 889 450 q 947 394 958 419 z "},"Ȝ":{"ha":721,"x_min":-61,"x_max":710,"o":"m 704 703 q 619 547 688 614 q 419 429 550 479 q 587 374 522 426 q 651 218 651 322 q 644 146 651 179 q 552 -55 622 32 q 377 -190 482 -142 q 149 -237 272 -237 q 20 -220 74 -237 q -61 -175 -33 -203 q -35 -129 -56 -149 q 32 -156 -21 -143 q 142 -168 85 -168 q 375 -87 278 -168 q 499 132 472 -7 q 506 200 506 174 q 460 322 506 281 q 332 364 415 364 q 185 332 254 364 q 179 371 179 347 q 182 404 179 382 q 394 478 315 436 q 509 572 472 521 q 558 688 546 622 q 564 744 564 715 q 524 852 564 815 q 408 889 483 889 q 283 846 333 889 q 194 697 233 803 l 178 696 q 126 706 161 696 q 161 886 154 810 q 285 934 214 917 q 435 951 357 951 q 640 898 571 951 q 710 754 710 844 q 704 703 710 739 z "},"H":{"ha":1050,"x_min":40,"x_max":1068,"o":"m 899 939 q 1068 943 985 939 q 1056 883 1065 906 q 999 866 1018 876 q 967 832 979 856 q 947 763 956 808 l 846 176 q 840 124 840 149 q 859 75 840 89 q 928 56 878 61 q 932 18 932 39 q 931 -4 932 3 q 763 0 847 0 q 594 -4 665 0 q 606 56 594 31 q 665 70 644 60 q 696 104 685 81 q 715 176 707 128 l 763 451 q 338 444 449 451 l 292 176 q 286 124 286 149 q 305 75 286 89 q 374 56 324 61 q 378 18 378 39 q 376 -4 378 3 q 208 0 293 0 q 40 -4 111 0 q 51 56 40 31 q 110 70 90 60 q 142 104 131 81 q 161 176 153 128 l 263 763 q 268 810 268 799 q 248 862 268 847 q 179 883 228 876 q 176 918 176 906 q 178 943 176 935 q 344 939 256 939 q 514 943 431 939 q 501 883 511 906 q 444 866 464 876 q 413 832 425 856 q 393 763 401 808 l 350 511 l 774 511 l 817 763 q 822 810 822 799 q 802 862 822 847 q 733 883 782 876 q 731 918 731 906 q 732 943 731 935 q 899 939 808 939 z "},"Ħ":{"ha":1050,"x_min":40,"x_max":1068,"o":"m 1056 883 q 999 866 1018 876 q 967 832 979 856 q 947 763 956 808 l 936 696 l 1018 696 q 1006 636 1018 668 l 925 636 l 846 176 q 840 124 840 149 q 859 75 840 89 q 928 56 878 61 q 932 18 932 39 q 931 -4 932 3 q 763 0 847 0 q 594 -4 665 0 q 606 56 594 31 q 665 70 644 60 q 696 104 685 81 q 715 176 707 128 l 763 451 q 338 444 449 451 l 292 176 q 286 124 286 149 q 305 75 286 89 q 374 56 324 61 q 378 18 378 39 q 376 -4 378 3 q 208 0 293 0 q 40 -4 111 0 q 51 56 40 31 q 110 70 90 60 q 142 104 131 81 q 161 176 153 128 l 240 633 l 153 632 q 156 665 153 644 q 165 696 160 685 l 251 696 l 263 763 q 268 810 268 799 q 248 862 268 847 q 179 883 228 876 q 176 918 176 906 q 178 943 176 935 q 344 939 256 939 q 514 943 431 939 q 501 883 511 906 q 444 866 464 876 q 413 832 425 856 q 393 763 401 808 l 382 696 l 806 696 l 817 763 q 822 810 822 799 q 802 862 822 847 q 733 883 782 876 q 731 918 731 906 q 732 943 731 935 q 899 939 808 939 q 1068 943 985 939 q 1056 883 1065 906 m 794 636 l 371 635 l 350 511 l 774 511 l 794 636 z "},"Ḫ":{"ha":1050,"x_min":40,"x_max":1068,"o":"m 899 939 q 1068 943 985 939 q 1056 883 1065 906 q 999 866 1018 876 q 967 832 979 856 q 947 763 956 808 l 846 176 q 840 124 840 149 q 859 75 840 89 q 928 56 878 61 q 932 18 932 39 q 931 -4 932 3 q 763 0 847 0 q 594 -4 665 0 q 606 56 594 31 q 665 70 644 60 q 696 104 685 81 q 715 176 707 128 l 763 451 q 338 444 449 451 l 292 176 q 286 124 286 149 q 305 75 286 89 q 374 56 324 61 q 378 18 378 39 q 376 -4 378 3 q 208 0 293 0 q 40 -4 111 0 q 51 56 40 31 q 110 70 90 60 q 142 104 131 81 q 161 176 153 128 l 263 763 q 268 810 268 799 q 248 862 268 847 q 179 883 228 876 q 176 918 176 906 q 178 943 176 935 q 344 939 256 939 q 514 943 431 939 q 501 883 511 906 q 444 866 464 876 q 413 832 425 856 q 393 763 401 808 l 350 511 l 774 511 l 817 763 q 822 810 822 799 q 802 862 822 847 q 733 883 782 876 q 731 918 731 906 q 732 943 731 935 q 899 939 808 939 z "},"Ȟ":{"ha":1050,"x_min":40,"x_max":1068,"o":"m 899 939 q 1068 943 985 939 q 1056 883 1065 906 q 999 866 1018 876 q 967 832 979 856 q 947 763 956 808 l 846 176 q 840 124 840 149 q 859 75 840 89 q 928 56 878 61 q 932 18 932 39 q 931 -4 932 3 q 763 0 847 0 q 594 -4 665 0 q 606 56 594 31 q 665 70 644 60 q 696 104 685 81 q 715 176 707 128 l 763 451 q 338 444 449 451 l 292 176 q 286 124 286 149 q 305 75 286 89 q 374 56 324 61 q 378 18 378 39 q 376 -4 378 3 q 208 0 293 0 q 40 -4 111 0 q 51 56 40 31 q 110 70 90 60 q 142 104 131 81 q 161 176 153 128 l 263 763 q 268 810 268 799 q 248 862 268 847 q 179 883 228 876 q 176 918 176 906 q 178 943 176 935 q 344 939 256 939 q 514 943 431 939 q 501 883 511 906 q 444 866 464 876 q 413 832 425 856 q 393 763 401 808 l 350 511 l 774 511 l 817 763 q 822 810 822 799 q 802 862 822 847 q 733 883 782 876 q 731 918 731 906 q 732 943 731 935 q 899 939 808 939 m 604 1018 q 433 1189 522 1121 q 464 1229 438 1222 q 649 1131 554 1175 q 836 1222 756 1171 q 859 1208 849 1218 q 875 1186 869 1199 q 650 1025 744 1104 q 604 1018 622 1014 z "},"Ĥ":{"ha":1050,"x_min":40,"x_max":1068,"o":"m 899 939 q 1068 943 985 939 q 1056 883 1065 906 q 999 866 1018 876 q 967 832 979 856 q 947 763 956 808 l 846 176 q 840 124 840 149 q 859 75 840 89 q 928 56 878 61 q 932 18 932 39 q 931 -4 932 3 q 763 0 847 0 q 594 -4 665 0 q 606 56 594 31 q 665 70 644 60 q 696 104 685 81 q 715 176 707 128 l 763 451 q 338 444 449 451 l 292 176 q 286 124 286 149 q 305 75 286 89 q 374 56 324 61 q 378 18 378 39 q 376 -4 378 3 q 208 0 293 0 q 40 -4 111 0 q 51 56 40 31 q 110 70 90 60 q 142 104 131 81 q 161 176 153 128 l 263 763 q 268 810 268 799 q 248 862 268 847 q 179 883 228 876 q 176 918 176 906 q 178 943 176 935 q 344 939 256 939 q 514 943 431 939 q 501 883 511 906 q 444 866 464 876 q 413 832 425 856 q 393 763 401 808 l 350 511 l 774 511 l 817 763 q 822 810 822 799 q 802 862 822 847 q 733 883 782 876 q 731 918 731 906 q 732 943 731 935 q 899 939 808 939 m 464 1014 q 451 1041 456 1025 q 449 1071 447 1057 q 658 1218 529 1118 q 672 1219 664 1219 q 711 1211 692 1219 q 858 1051 756 1157 q 843 1030 854 1039 q 818 1018 832 1021 q 650 1107 736 1072 q 464 1014 579 1079 z "},"Ḥ":{"ha":1050,"x_min":40,"x_max":1068,"o":"m 899 939 q 1068 943 985 939 q 1056 883 1065 906 q 999 866 1018 876 q 967 832 979 856 q 947 763 956 808 l 846 176 q 840 124 840 149 q 859 75 840 89 q 928 56 878 61 q 932 18 932 39 q 931 -4 932 3 q 763 0 847 0 q 594 -4 665 0 q 606 56 594 31 q 665 70 644 60 q 696 104 685 81 q 715 176 707 128 l 763 451 q 338 444 449 451 l 292 176 q 286 124 286 149 q 305 75 286 89 q 374 56 324 61 q 378 18 378 39 q 376 -4 378 3 q 208 0 293 0 q 40 -4 111 0 q 51 56 40 31 q 110 70 90 60 q 142 104 131 81 q 161 176 153 128 l 263 763 q 268 810 268 799 q 248 862 268 847 q 179 883 228 876 q 176 918 176 906 q 178 943 176 935 q 344 939 256 939 q 514 943 431 939 q 501 883 511 906 q 444 866 464 876 q 413 832 425 856 q 393 763 401 808 l 350 511 l 774 511 l 817 763 q 822 810 822 799 q 802 862 822 847 q 733 883 782 876 q 731 918 731 906 q 732 943 731 935 q 899 939 808 939 m 417 -296 q 369 -278 388 -296 q 351 -232 351 -261 q 376 -158 351 -187 q 439 -129 401 -129 q 485 -145 465 -129 q 504 -194 504 -161 q 480 -266 504 -236 q 417 -296 456 -296 z "},"I":{"ha":496,"x_min":40,"x_max":514,"o":"m 263 763 q 268 810 268 799 q 248 862 268 847 q 179 883 228 876 q 176 918 176 906 q 178 943 176 935 q 344 939 256 939 q 514 943 431 939 q 501 883 511 906 q 444 866 464 876 q 413 832 425 856 q 393 763 401 808 l 292 176 q 286 124 286 149 q 305 75 286 89 q 374 56 324 61 q 378 18 378 39 q 376 -4 378 3 q 208 0 293 0 q 40 -4 111 0 q 51 56 40 31 q 110 70 90 60 q 142 104 131 81 q 161 176 153 128 l 263 763 z "},"Ĳ":{"ha":888,"x_min":99,"x_max":949,"o":"m 306 -343 q 201 -320 256 -343 q 103 -258 147 -297 q 99 -212 99 -232 q 113 -150 99 -178 q 253 -190 179 -176 q 381 -204 328 -204 q 472 -177 442 -204 q 521 -84 503 -150 q 568 140 539 -18 q 590 249 583 226 q 611 307 596 271 l 607 307 q 527 166 578 242 q 410 36 476 90 q 278 -18 344 -18 q 165 150 165 -18 q 174 254 165 201 q 196 379 182 307 l 204 422 l 264 763 q 268 807 268 788 q 247 861 268 846 q 171 883 225 876 q 167 921 167 900 q 168 943 167 935 q 343 939 249 939 q 521 943 433 939 q 508 883 518 906 q 447 866 468 876 q 414 832 426 856 q 393 763 401 808 l 315 350 q 292 168 292 229 q 340 79 292 79 q 467 171 393 79 q 606 421 542 263 q 693 769 669 579 q 697 814 697 794 q 677 862 697 847 q 599 883 657 876 q 594 943 592 904 q 763 939 635 939 q 949 943 878 939 q 939 883 946 904 q 874 865 897 878 q 840 828 851 853 q 818 756 828 804 l 708 182 q 619 -83 681 38 q 476 -273 558 -203 q 306 -343 394 -343 z "},"Í":{"ha":496,"x_min":40,"x_max":551,"o":"m 263 763 q 268 810 268 799 q 248 862 268 847 q 179 883 228 876 q 176 918 176 906 q 178 943 176 935 q 344 939 256 939 q 514 943 431 939 q 501 883 511 906 q 444 866 464 876 q 413 832 425 856 q 393 763 401 808 l 292 176 q 286 124 286 149 q 305 75 286 89 q 374 56 324 61 q 378 18 378 39 q 376 -4 378 3 q 208 0 293 0 q 40 -4 111 0 q 51 56 40 31 q 110 70 90 60 q 142 104 131 81 q 161 176 153 128 l 263 763 m 340 1013 q 289 1035 311 1014 q 360 1131 329 1082 q 407 1215 390 1179 q 464 1221 446 1221 q 551 1203 513 1221 q 340 1013 450 1121 z "},"Ĭ":{"ha":496,"x_min":40,"x_max":568,"o":"m 344 994 q 225 1033 265 994 q 185 1142 185 1071 q 190 1199 185 1171 q 215 1203 203 1203 q 244 1197 233 1203 q 363 1083 249 1083 q 467 1119 424 1083 q 525 1210 511 1154 q 568 1188 560 1201 q 494 1044 550 1093 q 344 994 438 994 m 263 763 q 268 810 268 799 q 248 862 268 847 q 179 883 228 876 q 176 918 176 906 q 178 943 176 935 q 344 939 256 939 q 514 943 431 939 q 501 883 511 906 q 444 866 464 876 q 413 832 425 856 q 393 763 401 808 l 292 176 q 286 124 286 149 q 305 75 286 89 q 374 56 324 61 q 378 18 378 39 q 376 -4 378 3 q 208 0 293 0 q 40 -4 111 0 q 51 56 40 31 q 110 70 90 60 q 142 104 131 81 q 161 176 153 128 l 263 763 z "},"Ǐ":{"ha":496,"x_min":40,"x_max":554,"o":"m 196 1189 q 244 1204 210 1201 q 367 1093 314 1132 q 526 1213 433 1138 q 554 1156 554 1190 q 361 986 471 1096 l 344 986 q 315 990 325 986 l 196 1189 m 263 763 q 268 810 268 799 q 248 862 268 847 q 179 883 228 876 q 176 918 176 906 q 178 943 176 935 q 344 939 256 939 q 514 943 431 939 q 501 883 511 906 q 444 866 464 876 q 413 832 425 856 q 393 763 401 808 l 292 176 q 286 124 286 149 q 305 75 286 89 q 374 56 324 61 q 378 18 378 39 q 376 -4 378 3 q 208 0 293 0 q 40 -4 111 0 q 51 56 40 31 q 110 70 90 60 q 142 104 131 81 q 161 176 153 128 l 263 763 z "},"Î":{"ha":496,"x_min":40,"x_max":556,"o":"m 224 985 q 196 1042 196 1006 q 389 1211 282 1101 q 436 1207 426 1211 q 518 1071 513 1081 l 556 1008 q 534 999 549 1003 q 507 993 519 994 q 385 1103 436 1067 q 224 985 315 1057 m 263 763 q 268 810 268 799 q 248 862 268 847 q 179 883 228 876 q 176 918 176 906 q 178 943 176 935 q 344 939 256 939 q 514 943 431 939 q 501 883 511 906 q 444 866 464 876 q 413 832 425 856 q 393 763 401 808 l 292 176 q 286 124 286 149 q 305 75 286 89 q 374 56 324 61 q 378 18 378 39 q 376 -4 378 3 q 208 0 293 0 q 40 -4 111 0 q 51 56 40 31 q 110 70 90 60 q 142 104 131 81 q 161 176 153 128 l 263 763 z "},"Ȉ":{"ha":496,"x_min":40,"x_max":514,"o":"m 263 763 q 268 810 268 799 q 248 862 268 847 q 179 883 228 876 q 176 918 176 906 q 178 943 176 935 q 344 939 256 939 q 514 943 431 939 q 501 883 511 906 q 444 866 464 876 q 413 832 425 856 q 393 763 401 808 l 292 176 q 286 124 286 149 q 305 75 286 89 q 374 56 324 61 q 378 18 378 39 q 376 -4 378 3 q 208 0 293 0 q 40 -4 111 0 q 51 56 40 31 q 110 70 90 60 q 142 104 131 81 q 161 176 153 128 l 263 763 m 249 1008 q 139 1186 192 1113 q 206 1197 165 1197 q 263 1192 239 1197 l 271 1146 q 301 1003 290 1044 q 249 1008 285 1001 m 444 1008 q 338 1186 386 1118 q 403 1197 361 1197 q 458 1192 435 1197 l 467 1146 q 497 1003 486 1044 q 444 1008 481 1001 z "},"Ï":{"ha":496,"x_min":40,"x_max":561,"o":"m 260 1024 q 208 1042 228 1024 q 189 1088 189 1060 q 212 1142 189 1119 q 275 1165 235 1165 q 328 1149 311 1165 q 344 1103 344 1132 q 343 1083 344 1090 q 315 1040 338 1057 q 260 1024 292 1024 m 476 1025 q 423 1042 442 1025 q 404 1089 404 1060 q 428 1145 404 1125 q 490 1165 451 1165 q 542 1148 522 1165 q 561 1103 561 1131 q 560 1089 561 1094 q 476 1025 546 1025 m 263 763 q 268 810 268 799 q 248 862 268 847 q 179 883 228 876 q 176 918 176 906 q 178 943 176 935 q 344 939 256 939 q 514 943 431 939 q 501 883 511 906 q 444 866 464 876 q 413 832 425 856 q 393 763 401 808 l 292 176 q 286 124 286 149 q 305 75 286 89 q 374 56 324 61 q 378 18 378 39 q 376 -4 378 3 q 208 0 293 0 q 40 -4 111 0 q 51 56 40 31 q 110 70 90 60 q 142 104 131 81 q 161 176 153 128 l 263 763 z "},"Ḯ":{"ha":496,"x_min":40,"x_max":582,"o":"m 371 1197 q 319 1219 342 1199 q 390 1315 360 1267 q 438 1400 421 1364 q 494 1406 476 1406 q 582 1388 543 1406 q 371 1197 481 1306 m 260 1024 q 208 1042 228 1024 q 189 1088 189 1060 q 212 1142 189 1119 q 275 1165 235 1165 q 328 1149 311 1165 q 344 1103 344 1132 q 343 1083 344 1090 q 315 1040 338 1057 q 260 1024 292 1024 m 476 1025 q 423 1042 442 1025 q 404 1089 404 1060 q 428 1145 404 1125 q 490 1165 451 1165 q 542 1148 522 1165 q 561 1103 561 1131 q 560 1089 561 1094 q 476 1025 546 1025 m 263 763 q 268 810 268 799 q 248 862 268 847 q 179 883 228 876 q 176 918 176 906 q 178 943 176 935 q 344 939 256 939 q 514 943 431 939 q 501 883 511 906 q 444 866 464 876 q 413 832 425 856 q 393 763 401 808 l 292 176 q 286 124 286 149 q 305 75 286 89 q 374 56 324 61 q 378 18 378 39 q 376 -4 378 3 q 208 0 293 0 q 40 -4 111 0 q 51 56 40 31 q 110 70 90 60 q 142 104 131 81 q 161 176 153 128 l 263 763 z "},"İ":{"ha":496,"x_min":40,"x_max":514,"o":"m 263 763 q 268 810 268 799 q 248 862 268 847 q 179 883 228 876 q 176 918 176 906 q 178 943 176 935 q 344 939 256 939 q 514 943 431 939 q 501 883 511 906 q 444 866 464 876 q 413 832 425 856 q 393 763 401 808 l 292 176 q 286 124 286 149 q 305 75 286 89 q 374 56 324 61 q 378 18 378 39 q 376 -4 378 3 q 208 0 293 0 q 40 -4 111 0 q 51 56 40 31 q 110 70 90 60 q 142 104 131 81 q 161 176 153 128 l 263 763 m 358 1001 q 313 1018 329 1001 q 296 1063 296 1035 q 322 1131 296 1106 q 385 1157 347 1157 q 432 1140 415 1157 q 449 1094 449 1124 q 423 1027 449 1053 q 358 1001 397 1001 z "},"Ị":{"ha":496,"x_min":40,"x_max":514,"o":"m 263 763 q 268 810 268 799 q 248 862 268 847 q 179 883 228 876 q 176 918 176 906 q 178 943 176 935 q 344 939 256 939 q 514 943 431 939 q 501 883 511 906 q 444 866 464 876 q 413 832 425 856 q 393 763 401 808 l 292 176 q 286 124 286 149 q 305 75 286 89 q 374 56 324 61 q 378 18 378 39 q 376 -4 378 3 q 208 0 293 0 q 40 -4 111 0 q 51 56 40 31 q 110 70 90 60 q 142 104 131 81 q 161 176 153 128 l 263 763 m 139 -296 q 92 -278 110 -296 q 74 -232 74 -261 q 99 -158 74 -187 q 161 -129 124 -129 q 207 -145 188 -129 q 226 -194 226 -161 q 202 -266 226 -236 q 139 -296 178 -296 z "},"Ì":{"ha":496,"x_min":40,"x_max":514,"o":"m 263 763 q 268 810 268 799 q 248 862 268 847 q 179 883 228 876 q 176 918 176 906 q 178 943 176 935 q 344 939 256 939 q 514 943 431 939 q 501 883 511 906 q 444 866 464 876 q 413 832 425 856 q 393 763 401 808 l 292 176 q 286 124 286 149 q 305 75 286 89 q 374 56 324 61 q 378 18 378 39 q 376 -4 378 3 q 208 0 293 0 q 40 -4 111 0 q 51 56 40 31 q 110 70 90 60 q 142 104 131 81 q 161 176 153 128 l 263 763 m 411 1028 q 381 1022 397 1022 q 350 1028 367 1022 q 214 1204 306 1103 q 286 1215 247 1215 q 343 1208 313 1215 q 411 1028 369 1107 z "},"Ỉ":{"ha":496,"x_min":40,"x_max":518,"o":"m 263 763 q 268 810 268 799 q 248 862 268 847 q 179 883 228 876 q 176 918 176 906 q 178 943 176 935 q 344 939 256 939 q 514 943 431 939 q 501 883 511 906 q 444 866 464 876 q 413 832 425 856 q 393 763 401 808 l 292 176 q 286 124 286 149 q 305 75 286 89 q 374 56 324 61 q 378 18 378 39 q 376 -4 378 3 q 208 0 293 0 q 40 -4 111 0 q 51 56 40 31 q 110 70 90 60 q 142 104 131 81 q 161 176 153 128 l 263 763 m 324 1018 q 315 1050 315 1033 q 329 1090 315 1076 q 372 1119 343 1104 q 419 1158 411 1138 q 421 1168 421 1161 q 392 1186 421 1186 q 308 1103 336 1186 q 287 1108 303 1104 q 261 1117 271 1113 q 244 1128 251 1121 q 251 1149 247 1135 q 258 1174 256 1163 q 258 1200 260 1186 q 403 1236 331 1236 q 488 1218 458 1236 q 518 1168 518 1200 q 515 1151 518 1163 q 490 1111 508 1126 q 440 1081 471 1096 q 403 1059 415 1068 q 388 1038 392 1050 q 385 1028 388 1033 q 385 1015 383 1024 q 360 1014 378 1014 q 324 1018 340 1014 z "},"Ȋ":{"ha":496,"x_min":40,"x_max":567,"o":"m 263 763 q 268 810 268 799 q 248 862 268 847 q 179 883 228 876 q 176 918 176 906 q 178 943 176 935 q 344 939 256 939 q 514 943 431 939 q 501 883 511 906 q 444 866 464 876 q 413 832 425 856 q 393 763 401 808 l 292 176 q 286 124 286 149 q 305 75 286 89 q 374 56 324 61 q 378 18 378 39 q 376 -4 378 3 q 208 0 293 0 q 40 -4 111 0 q 51 56 40 31 q 110 70 90 60 q 142 104 131 81 q 161 176 153 128 l 263 763 m 407 1204 q 526 1166 486 1204 q 567 1057 567 1128 q 561 1000 567 1028 q 536 996 549 996 q 507 1001 518 996 q 389 1115 503 1115 q 284 1080 328 1115 q 226 989 240 1044 q 183 1011 192 997 q 258 1155 201 1106 q 407 1204 314 1204 z "},"Ī":{"ha":496,"x_min":40,"x_max":560,"o":"m 186 1053 q 192 1087 186 1068 q 207 1118 197 1106 l 560 1118 q 542 1058 557 1082 q 186 1053 319 1058 m 263 763 q 268 810 268 799 q 248 862 268 847 q 179 883 228 876 q 176 918 176 906 q 178 943 176 935 q 344 939 256 939 q 514 943 431 939 q 501 883 511 906 q 444 866 464 876 q 413 832 425 856 q 393 763 401 808 l 292 176 q 286 124 286 149 q 305 75 286 89 q 374 56 324 61 q 378 18 378 39 q 376 -4 378 3 q 208 0 293 0 q 40 -4 111 0 q 51 56 40 31 q 110 70 90 60 q 142 104 131 81 q 161 176 153 128 l 263 763 z "},"Į":{"ha":496,"x_min":24,"x_max":514,"o":"m 344 939 q 514 943 431 939 q 501 883 511 906 q 444 866 464 876 q 413 832 425 856 q 393 763 401 808 l 292 176 q 286 124 286 149 q 305 75 286 89 q 374 56 324 61 q 378 18 378 39 q 376 -4 378 3 q 292 -1 321 -1 q 142 -158 142 -75 q 162 -207 142 -187 q 218 -226 182 -226 q 278 -215 249 -226 q 282 -242 282 -228 q 279 -269 282 -250 q 164 -343 221 -297 q 138 -346 156 -346 q 59 -315 94 -346 q 24 -225 24 -283 q 64 -107 24 -162 q 193 0 104 -51 q 40 -4 106 0 q 51 56 40 31 q 110 70 90 60 q 142 104 131 81 q 161 176 153 128 l 263 763 q 268 810 268 799 q 248 862 268 847 q 179 883 228 876 q 176 918 176 906 q 178 943 176 935 q 344 939 256 939 z "},"Ĩ":{"ha":496,"x_min":40,"x_max":582,"o":"m 439 1018 q 392 1026 410 1018 q 357 1047 375 1033 q 331 1065 340 1060 q 303 1069 321 1069 q 249 1057 276 1069 q 186 1022 221 1044 q 168 1065 167 1040 q 331 1168 249 1168 q 371 1161 354 1168 q 406 1142 388 1154 q 433 1126 421 1131 q 463 1121 446 1121 q 507 1131 483 1121 q 551 1161 531 1142 q 582 1129 578 1147 q 517 1044 551 1069 q 439 1018 482 1018 m 263 763 q 268 810 268 799 q 248 862 268 847 q 179 883 228 876 q 176 918 176 906 q 178 943 176 935 q 344 939 256 939 q 514 943 431 939 q 501 883 511 906 q 444 866 464 876 q 413 832 425 856 q 393 763 401 808 l 292 176 q 286 124 286 149 q 305 75 286 89 q 374 56 324 61 q 378 18 378 39 q 376 -4 378 3 q 208 0 293 0 q 40 -4 111 0 q 51 56 40 31 q 110 70 90 60 q 142 104 131 81 q 161 176 153 128 l 263 763 z "},"J":{"ha":425,"x_min":-114,"x_max":488,"o":"m 150 943 q 311 939 189 939 q 488 943 422 939 q 476 883 486 908 q 417 865 438 878 q 384 828 396 853 q 364 756 372 804 l 261 167 q 203 -61 236 25 q 103 -215 171 -147 q -92 -346 35 -283 q -114 -299 -108 -333 q 34 -153 -21 -233 q 111 54 89 -72 l 236 769 q 240 814 240 797 q 222 863 240 847 q 153 883 203 878 q 149 917 149 900 q 150 943 149 933 z "},"Ĵ":{"ha":425,"x_min":-114,"x_max":517,"o":"m 185 985 q 157 1042 157 1006 q 350 1211 243 1101 q 397 1207 388 1211 q 479 1071 474 1081 l 517 1008 q 495 999 510 1003 q 468 993 481 994 q 346 1103 397 1067 q 185 985 276 1057 m 150 943 q 311 939 189 939 q 488 943 422 939 q 476 883 486 908 q 417 865 438 878 q 384 828 396 853 q 364 756 372 804 l 261 167 q 203 -61 236 25 q 103 -215 171 -147 q -92 -346 35 -283 q -114 -299 -108 -333 q 34 -153 -21 -233 q 111 54 89 -72 l 236 769 q 240 814 240 797 q 222 863 240 847 q 153 883 203 878 q 149 917 149 900 q 150 943 149 933 z "},"K":{"ha":889,"x_min":40,"x_max":944,"o":"m 938 883 q 834 851 876 875 q 718 760 792 828 l 458 515 q 566 376 517 454 q 667 185 615 297 q 706 120 688 138 q 746 103 724 103 q 769 107 760 103 q 793 125 779 111 q 835 81 819 111 q 759 10 796 33 q 674 -12 722 -12 q 602 17 631 -10 q 550 107 574 44 q 453 317 503 231 q 343 471 404 404 l 292 176 q 285 119 285 138 q 301 74 285 88 q 360 56 318 61 q 364 18 364 39 q 363 -4 364 3 q 208 0 279 0 q 40 -4 111 0 q 51 56 40 31 q 110 70 90 60 q 142 104 131 81 q 161 176 153 128 l 263 763 q 268 810 268 799 q 248 862 268 847 q 179 883 228 876 q 176 918 176 906 q 178 943 176 935 q 344 939 256 939 q 514 943 431 939 q 501 883 511 906 q 444 866 464 876 q 413 832 425 856 q 393 763 401 808 l 347 496 l 624 758 q 699 858 699 832 q 663 883 699 876 q 658 905 661 890 q 656 931 656 919 l 657 943 q 808 939 713 939 q 944 943 889 939 q 938 883 944 900 z "},"Ǩ":{"ha":889,"x_min":40,"x_max":944,"o":"m 938 883 q 834 851 876 875 q 718 760 792 828 l 458 515 q 566 376 517 454 q 667 185 615 297 q 706 120 688 138 q 746 103 724 103 q 769 107 760 103 q 793 125 779 111 q 835 81 819 111 q 759 10 796 33 q 674 -12 722 -12 q 602 17 631 -10 q 550 107 574 44 q 453 317 503 231 q 343 471 404 404 l 292 176 q 285 119 285 138 q 301 74 285 88 q 360 56 318 61 q 364 18 364 39 q 363 -4 364 3 q 208 0 279 0 q 40 -4 111 0 q 51 56 40 31 q 110 70 90 60 q 142 104 131 81 q 161 176 153 128 l 263 763 q 268 810 268 799 q 248 862 268 847 q 179 883 228 876 q 176 918 176 906 q 178 943 176 935 q 344 939 256 939 q 514 943 431 939 q 501 883 511 906 q 444 866 464 876 q 413 832 425 856 q 393 763 401 808 l 347 496 l 624 758 q 699 858 699 832 q 663 883 699 876 q 658 905 661 890 q 656 931 656 919 l 657 943 q 808 939 713 939 q 944 943 889 939 q 938 883 944 900 m 578 1018 q 407 1189 496 1121 q 438 1229 411 1222 q 622 1131 528 1175 q 810 1222 729 1171 q 833 1208 822 1218 q 849 1186 843 1199 q 624 1025 718 1104 q 578 1018 596 1014 z "},"Ķ":{"ha":889,"x_min":40,"x_max":944,"o":"m 938 883 q 834 851 876 875 q 718 760 792 828 l 458 515 q 566 376 517 454 q 667 185 615 297 q 706 120 688 138 q 746 103 724 103 q 769 107 760 103 q 793 125 779 111 q 835 81 819 111 q 759 10 796 33 q 674 -12 722 -12 q 602 17 631 -10 q 550 107 574 44 q 453 317 503 231 q 343 471 404 404 l 292 176 q 285 119 285 138 q 301 74 285 88 q 360 56 318 61 q 364 18 364 39 q 363 -4 364 3 q 208 0 279 0 q 40 -4 111 0 q 51 56 40 31 q 110 70 90 60 q 142 104 131 81 q 161 176 153 128 l 263 763 q 268 810 268 799 q 248 862 268 847 q 179 883 228 876 q 176 918 176 906 q 178 943 176 935 q 344 939 256 939 q 514 943 431 939 q 501 883 511 906 q 444 866 464 876 q 413 832 425 856 q 393 763 401 808 l 347 496 l 624 758 q 699 858 699 832 q 663 883 699 876 q 658 905 661 890 q 656 931 656 919 l 657 943 q 808 939 713 939 q 944 943 889 939 q 938 883 944 900 m 361 -387 q 329 -356 335 -376 q 392 -286 369 -321 q 415 -225 415 -251 q 371 -185 415 -192 q 376 -140 369 -162 q 394 -101 382 -118 q 513 -60 464 -87 q 549 -125 549 -75 q 546 -153 549 -133 q 483 -280 533 -221 q 361 -387 433 -339 z "},"L":{"ha":757,"x_min":35,"x_max":728,"o":"m 35 -4 q 44 56 38 36 q 108 72 88 60 q 140 113 129 85 q 161 199 151 140 l 261 769 q 265 811 265 794 q 246 862 265 847 q 181 883 226 876 q 178 943 175 907 q 342 939 229 939 q 521 942 467 939 q 510 883 521 908 q 444 866 467 878 q 409 828 421 854 q 389 751 397 803 l 290 185 q 283 125 283 146 q 306 75 283 88 q 390 63 328 63 l 399 63 q 522 79 475 63 q 600 133 568 96 q 667 239 632 169 q 728 208 706 232 q 654 -4 682 119 q 388 0 601 0 q 35 -4 144 0 z "},"Ǉ":{"ha":1182,"x_min":35,"x_max":1244,"o":"m 35 -4 q 44 56 38 36 q 108 72 88 60 q 140 113 129 85 q 161 199 151 140 l 261 769 q 265 811 265 794 q 246 862 265 847 q 181 883 226 876 q 178 943 175 907 q 342 939 229 939 q 521 942 467 939 q 510 883 521 908 q 444 866 467 878 q 409 828 421 854 q 389 751 397 803 l 290 185 q 283 125 283 146 q 306 75 283 88 q 390 63 328 63 l 399 63 q 522 79 475 63 q 600 133 568 96 q 667 239 632 169 q 728 208 706 232 q 654 -4 682 119 q 388 0 601 0 q 35 -4 144 0 m 907 943 q 1068 939 946 939 q 1244 943 1179 939 q 1233 883 1243 908 q 1174 865 1194 878 q 1141 828 1153 853 q 1121 756 1129 804 l 1018 167 q 960 -61 993 25 q 860 -215 928 -147 q 665 -346 792 -283 q 643 -299 649 -333 q 791 -153 736 -233 q 868 54 846 -72 l 993 769 q 997 814 997 797 q 978 863 997 847 q 910 883 960 878 q 906 917 906 900 q 907 943 906 933 z "},"Ĺ":{"ha":757,"x_min":35,"x_max":728,"o":"m 35 -4 q 44 56 38 36 q 108 72 88 60 q 140 113 129 85 q 161 199 151 140 l 261 769 q 265 811 265 794 q 246 862 265 847 q 181 883 226 876 q 178 943 175 907 q 342 939 229 939 q 521 942 467 939 q 510 883 521 908 q 444 866 467 878 q 409 828 421 854 q 389 751 397 803 l 290 185 q 283 125 283 146 q 306 75 283 88 q 390 63 328 63 l 399 63 q 522 79 475 63 q 600 133 568 96 q 667 239 632 169 q 728 208 706 232 q 654 -4 682 119 q 388 0 601 0 q 35 -4 144 0 m 349 1013 q 297 1035 319 1014 q 368 1131 338 1082 q 415 1215 399 1179 q 472 1221 454 1221 q 560 1203 521 1221 q 349 1013 458 1121 z "},"Ľ":{"ha":757,"x_min":35,"x_max":826,"o":"m 35 -4 q 44 56 38 36 q 108 72 88 60 q 140 113 129 85 q 161 199 151 140 l 261 769 q 265 811 265 794 q 246 862 265 847 q 181 883 226 876 q 178 943 175 907 q 342 939 229 939 q 521 942 467 939 q 510 883 521 908 q 444 866 467 878 q 409 828 421 854 q 389 751 397 803 l 290 185 q 283 125 283 146 q 306 75 283 88 q 390 63 328 63 l 399 63 q 522 79 475 63 q 600 133 568 96 q 667 239 632 169 q 728 208 706 232 q 654 -4 682 119 q 388 0 601 0 q 35 -4 144 0 m 675 622 q 647 631 658 622 q 628 651 635 639 q 713 790 713 736 q 650 853 713 836 q 656 901 650 875 q 671 940 661 926 q 735 953 700 942 q 792 979 771 965 q 826 903 826 961 q 819 847 826 878 q 675 622 797 726 z "},"Ļ":{"ha":757,"x_min":35,"x_max":728,"o":"m 35 -4 q 44 56 38 36 q 108 72 88 60 q 140 113 129 85 q 161 199 151 140 l 261 769 q 265 811 265 794 q 246 862 265 847 q 181 883 226 876 q 178 943 175 907 q 342 939 229 939 q 521 942 467 939 q 510 883 521 908 q 444 866 467 878 q 409 828 421 854 q 389 751 397 803 l 290 185 q 283 125 283 146 q 306 75 283 88 q 390 63 328 63 l 399 63 q 522 79 475 63 q 600 133 568 96 q 667 239 632 169 q 728 208 706 232 q 654 -4 682 119 q 388 0 601 0 q 35 -4 144 0 m 219 -387 q 188 -356 193 -376 q 251 -286 228 -321 q 274 -225 274 -251 q 229 -185 274 -192 q 234 -140 228 -162 q 253 -101 240 -118 q 371 -60 322 -87 q 407 -125 407 -75 q 404 -153 407 -133 q 342 -280 392 -221 q 219 -387 292 -339 z "},"Ŀ":{"ha":757,"x_min":35,"x_max":731,"o":"m 35 -4 q 44 56 38 36 q 108 72 88 60 q 140 113 129 85 q 161 199 151 140 l 261 769 q 265 811 265 794 q 246 862 265 847 q 181 883 226 876 q 178 943 175 907 q 342 939 229 939 q 521 942 467 939 q 510 883 521 908 q 444 866 467 878 q 409 828 421 854 q 389 751 397 803 l 290 185 q 283 125 283 146 q 306 75 283 88 q 390 63 328 63 l 399 63 q 522 79 475 63 q 600 133 568 96 q 667 239 632 169 q 728 208 706 232 q 654 -4 682 119 q 388 0 601 0 q 35 -4 144 0 m 654 417 q 603 435 622 417 q 583 483 583 453 q 606 545 583 519 q 664 571 629 571 q 712 552 693 571 q 731 503 731 533 q 729 485 731 490 q 703 435 722 453 q 654 417 683 417 z "},"Ḷ":{"ha":757,"x_min":35,"x_max":728,"o":"m 35 -4 q 44 56 38 36 q 108 72 88 60 q 140 113 129 85 q 161 199 151 140 l 261 769 q 265 811 265 794 q 246 862 265 847 q 181 883 226 876 q 178 943 175 907 q 342 939 229 939 q 521 942 467 939 q 510 883 521 908 q 444 866 467 878 q 409 828 421 854 q 389 751 397 803 l 290 185 q 283 125 283 146 q 306 75 283 88 q 390 63 328 63 l 399 63 q 522 79 475 63 q 600 133 568 96 q 667 239 632 169 q 728 208 706 232 q 654 -4 682 119 q 388 0 601 0 q 35 -4 144 0 m 300 -296 q 253 -278 271 -296 q 235 -232 235 -261 q 260 -158 235 -187 q 322 -129 285 -129 q 368 -145 349 -129 q 388 -194 388 -161 q 363 -266 388 -236 q 300 -296 339 -296 z "},"ǈ":{"ha":1081,"x_min":35,"x_max":1104,"o":"m 35 -4 q 44 56 38 36 q 108 72 88 60 q 140 113 129 85 q 161 199 151 140 l 261 769 q 265 811 265 794 q 246 862 265 847 q 181 883 226 876 q 178 943 175 907 q 342 939 229 939 q 521 942 467 939 q 510 883 521 908 q 444 866 467 878 q 409 828 421 854 q 389 751 397 803 l 290 185 q 283 125 283 146 q 306 75 283 88 q 390 63 328 63 l 399 63 q 522 79 475 63 q 600 133 568 96 q 667 239 632 169 q 728 208 706 232 q 654 -4 682 119 q 388 0 601 0 q 35 -4 144 0 m 1010 801 q 965 818 982 801 q 949 863 949 835 q 951 883 949 869 q 985 945 960 922 q 1042 968 1010 968 q 1088 951 1071 968 q 1104 907 1104 935 q 1077 831 1104 861 q 1010 801 1050 801 m 613 -346 q 592 -300 593 -329 q 746 -140 690 -231 q 824 71 801 -49 l 892 436 q 899 490 899 474 q 881 529 899 519 q 815 539 864 539 q 824 592 813 571 q 909 613 856 594 q 989 649 963 632 q 1025 621 1014 638 q 1036 569 1036 604 q 1019 443 1036 529 l 956 103 q 843 -174 924 -69 q 613 -346 763 -279 z "},"Ḻ":{"ha":757,"x_min":35,"x_max":728,"o":"m 35 -4 q 44 56 38 36 q 108 72 88 60 q 140 113 129 85 q 161 199 151 140 l 261 769 q 265 811 265 794 q 246 862 265 847 q 181 883 226 876 q 178 943 175 907 q 342 939 229 939 q 521 942 467 939 q 510 883 521 908 q 444 866 467 878 q 409 828 421 854 q 389 751 397 803 l 290 185 q 283 125 283 146 q 306 75 283 88 q 390 63 328 63 l 399 63 q 522 79 475 63 q 600 133 568 96 q 667 239 632 169 q 728 208 706 232 q 654 -4 682 119 q 388 0 601 0 q 35 -4 144 0 m 64 -243 q 67 -210 64 -231 q 76 -179 69 -190 l 560 -179 q 547 -239 560 -208 q 64 -243 263 -239 z "},"Ł":{"ha":757,"x_min":35,"x_max":728,"o":"m 667 239 q 728 208 706 232 q 654 -4 682 119 q 388 0 601 0 q 35 -4 144 0 q 44 56 38 36 q 108 72 88 60 q 140 113 129 85 q 161 199 151 140 l 190 365 l 118 296 q 94 321 103 306 q 83 351 85 336 l 210 472 l 261 769 q 265 811 265 794 q 246 862 265 847 q 181 883 226 876 q 178 943 175 907 q 342 939 229 939 q 521 942 467 939 q 510 883 521 908 q 444 866 467 878 q 409 828 421 854 q 389 751 397 803 l 361 596 l 457 688 q 480 666 469 682 q 492 633 490 650 l 343 489 l 290 185 q 283 125 283 146 q 306 75 283 88 q 390 63 328 63 l 399 63 q 522 79 475 63 q 600 133 568 96 q 667 239 632 169 z "},"M":{"ha":1226,"x_min":-37,"x_max":1218,"o":"m 1107 736 q 1069 226 1090 438 q 1065 157 1065 185 q 1081 85 1065 104 q 1139 56 1097 65 q 1142 -4 1144 33 q 972 0 1100 0 q 806 -4 851 0 q 817 56 806 26 q 885 78 863 63 q 919 126 908 94 q 936 222 931 158 q 972 707 963 504 q 563 -6 767 326 q 506 -12 544 -12 q 303 721 421 342 q 188 275 261 543 q 161 136 161 182 q 181 81 161 99 q 246 56 200 64 q 249 -4 251 31 q 106 0 192 0 q -37 -4 26 0 q -26 56 -37 29 q 34 84 13 65 q 73 142 56 103 q 114 264 90 182 q 244 758 193 536 q 253 821 253 799 q 235 867 253 854 q 175 883 218 879 q 172 917 172 896 q 174 943 172 933 q 281 939 215 939 q 381 943 346 939 q 594 167 499 561 q 1026 943 814 533 q 1117 939 1067 939 q 1218 943 1183 939 q 1208 883 1218 911 q 1151 866 1171 879 q 1121 823 1131 853 q 1107 736 1111 793 z "},"Ṃ":{"ha":1226,"x_min":-37,"x_max":1218,"o":"m 1107 736 q 1069 226 1090 438 q 1065 157 1065 185 q 1081 85 1065 104 q 1139 56 1097 65 q 1142 -4 1144 33 q 972 0 1100 0 q 806 -4 851 0 q 817 56 806 26 q 885 78 863 63 q 919 126 908 94 q 936 222 931 158 q 972 707 963 504 q 563 -6 767 326 q 506 -12 544 -12 q 303 721 421 342 q 188 275 261 543 q 161 136 161 182 q 181 81 161 99 q 246 56 200 64 q 249 -4 251 31 q 106 0 192 0 q -37 -4 26 0 q -26 56 -37 29 q 34 84 13 65 q 73 142 56 103 q 114 264 90 182 q 244 758 193 536 q 253 821 253 799 q 235 867 253 854 q 175 883 218 879 q 172 917 172 896 q 174 943 172 933 q 281 939 215 939 q 381 943 346 939 q 594 167 499 561 q 1026 943 814 533 q 1117 939 1067 939 q 1218 943 1183 939 q 1208 883 1218 911 q 1151 866 1171 879 q 1121 823 1131 853 q 1107 736 1111 793 m 475 -296 q 428 -278 446 -296 q 410 -232 410 -261 q 435 -158 410 -187 q 497 -129 460 -129 q 543 -145 524 -129 q 563 -194 563 -161 q 538 -266 563 -236 q 475 -296 514 -296 z "},"N":{"ha":938,"x_min":33,"x_max":1000,"o":"m 865 939 q 1000 943 963 939 q 989 883 1000 913 q 939 856 957 875 q 908 796 921 836 q 883 679 896 756 l 765 -6 q 708 -12 746 -12 q 322 726 524 358 l 239 253 q 228 151 228 183 q 247 84 228 104 q 314 56 267 64 q 318 22 318 39 q 317 -4 318 6 q 165 0 261 0 q 33 -4 94 0 q 43 56 35 29 q 122 101 96 63 q 165 239 147 140 l 268 825 l 261 838 q 231 872 247 864 q 181 883 215 881 q 176 918 176 900 q 178 943 176 935 q 261 939 219 939 q 357 943 322 939 q 733 228 532 632 l 815 693 q 826 789 826 757 q 807 856 826 836 q 740 883 788 875 q 738 918 738 906 q 739 943 738 935 q 865 939 779 939 z "},"Ǌ":{"ha":1294,"x_min":33,"x_max":1356,"o":"m 865 939 q 1000 943 963 939 q 989 883 1000 913 q 939 856 957 875 q 908 796 921 836 q 883 679 896 756 l 765 -6 q 708 -12 746 -12 q 322 726 524 358 l 239 253 q 228 151 228 183 q 247 84 228 104 q 314 56 267 64 q 318 22 318 39 q 317 -4 318 6 q 165 0 261 0 q 33 -4 94 0 q 43 56 35 29 q 122 101 96 63 q 165 239 147 140 l 268 825 l 261 838 q 231 872 247 864 q 181 883 215 881 q 176 918 176 900 q 178 943 176 935 q 261 939 219 939 q 357 943 322 939 q 733 228 532 632 l 815 693 q 826 789 826 757 q 807 856 826 836 q 740 883 788 875 q 738 918 738 906 q 739 943 738 935 q 865 939 779 939 m 1018 943 q 1179 939 1057 939 q 1356 943 1290 939 q 1344 883 1354 908 q 1285 865 1306 878 q 1252 828 1264 853 q 1232 756 1240 804 l 1129 167 q 1072 -61 1104 25 q 971 -215 1039 -147 q 776 -346 903 -283 q 754 -299 760 -333 q 902 -153 847 -233 q 979 54 957 -72 l 1104 769 q 1108 814 1108 797 q 1090 863 1108 847 q 1021 883 1071 878 q 1017 917 1017 900 q 1018 943 1017 933 z "},"Ń":{"ha":938,"x_min":33,"x_max":1000,"o":"m 865 939 q 1000 943 963 939 q 989 883 1000 913 q 939 856 957 875 q 908 796 921 836 q 883 679 896 756 l 765 -6 q 708 -12 746 -12 q 322 726 524 358 l 239 253 q 228 151 228 183 q 247 84 228 104 q 314 56 267 64 q 318 22 318 39 q 317 -4 318 6 q 165 0 261 0 q 33 -4 94 0 q 43 56 35 29 q 122 101 96 63 q 165 239 147 140 l 268 825 l 261 838 q 231 872 247 864 q 181 883 215 881 q 176 918 176 900 q 178 943 176 935 q 261 939 219 939 q 357 943 322 939 q 733 228 532 632 l 815 693 q 826 789 826 757 q 807 856 826 836 q 740 883 788 875 q 738 918 738 906 q 739 943 738 935 q 865 939 779 939 m 589 1013 q 538 1035 560 1014 q 608 1131 578 1082 q 656 1215 639 1179 q 713 1221 694 1221 q 800 1203 761 1221 q 589 1013 699 1121 z "},"Ň":{"ha":938,"x_min":33,"x_max":1000,"o":"m 865 939 q 1000 943 963 939 q 989 883 1000 913 q 939 856 957 875 q 908 796 921 836 q 883 679 896 756 l 765 -6 q 708 -12 746 -12 q 322 726 524 358 l 239 253 q 228 151 228 183 q 247 84 228 104 q 314 56 267 64 q 318 22 318 39 q 317 -4 318 6 q 165 0 261 0 q 33 -4 94 0 q 43 56 35 29 q 122 101 96 63 q 165 239 147 140 l 268 825 l 261 838 q 231 872 247 864 q 181 883 215 881 q 176 918 176 900 q 178 943 176 935 q 261 939 219 939 q 357 943 322 939 q 733 228 532 632 l 815 693 q 826 789 826 757 q 807 856 826 836 q 740 883 788 875 q 738 918 738 906 q 739 943 738 935 q 865 939 779 939 m 579 1018 q 408 1189 497 1121 q 439 1229 413 1222 q 624 1131 529 1175 q 811 1222 731 1171 q 834 1208 824 1218 q 850 1186 844 1199 q 625 1025 719 1104 q 579 1018 597 1014 z "},"Ņ":{"ha":938,"x_min":33,"x_max":1000,"o":"m 865 939 q 1000 943 963 939 q 989 883 1000 913 q 939 856 957 875 q 908 796 921 836 q 883 679 896 756 l 765 -6 q 708 -12 746 -12 q 322 726 524 358 l 239 253 q 228 151 228 183 q 247 84 228 104 q 314 56 267 64 q 318 22 318 39 q 317 -4 318 6 q 165 0 261 0 q 33 -4 94 0 q 43 56 35 29 q 122 101 96 63 q 165 239 147 140 l 268 825 l 261 838 q 231 872 247 864 q 181 883 215 881 q 176 918 176 900 q 178 943 176 935 q 261 939 219 939 q 357 943 322 939 q 733 228 532 632 l 815 693 q 826 789 826 757 q 807 856 826 836 q 740 883 788 875 q 738 918 738 906 q 739 943 738 935 q 865 939 779 939 m 335 -387 q 303 -356 308 -376 q 366 -286 343 -321 q 389 -225 389 -251 q 344 -185 389 -192 q 349 -140 343 -162 q 368 -101 356 -118 q 486 -60 438 -87 q 522 -125 522 -75 q 519 -153 522 -133 q 457 -280 507 -221 q 335 -387 407 -339 z "},"Ṅ":{"ha":938,"x_min":33,"x_max":1000,"o":"m 865 939 q 1000 943 963 939 q 989 883 1000 913 q 939 856 957 875 q 908 796 921 836 q 883 679 896 756 l 765 -6 q 708 -12 746 -12 q 322 726 524 358 l 239 253 q 228 151 228 183 q 247 84 228 104 q 314 56 267 64 q 318 22 318 39 q 317 -4 318 6 q 165 0 261 0 q 33 -4 94 0 q 43 56 35 29 q 122 101 96 63 q 165 239 147 140 l 268 825 l 261 838 q 231 872 247 864 q 181 883 215 881 q 176 918 176 900 q 178 943 176 935 q 261 939 219 939 q 357 943 322 939 q 733 228 532 632 l 815 693 q 826 789 826 757 q 807 856 826 836 q 740 883 788 875 q 738 918 738 906 q 739 943 738 935 q 865 939 779 939 m 607 1001 q 561 1018 578 1001 q 544 1063 544 1035 q 570 1131 544 1106 q 633 1157 596 1157 q 681 1140 664 1157 q 697 1094 697 1124 q 672 1027 697 1053 q 607 1001 646 1001 z "},"Ṇ":{"ha":938,"x_min":33,"x_max":1000,"o":"m 865 939 q 1000 943 963 939 q 989 883 1000 913 q 939 856 957 875 q 908 796 921 836 q 883 679 896 756 l 765 -6 q 708 -12 746 -12 q 322 726 524 358 l 239 253 q 228 151 228 183 q 247 84 228 104 q 314 56 267 64 q 318 22 318 39 q 317 -4 318 6 q 165 0 261 0 q 33 -4 94 0 q 43 56 35 29 q 122 101 96 63 q 165 239 147 140 l 268 825 l 261 838 q 231 872 247 864 q 181 883 215 881 q 176 918 176 900 q 178 943 176 935 q 261 939 219 939 q 357 943 322 939 q 733 228 532 632 l 815 693 q 826 789 826 757 q 807 856 826 836 q 740 883 788 875 q 738 918 738 906 q 739 943 738 935 q 865 939 779 939 m 415 -296 q 368 -278 386 -296 q 350 -232 350 -261 q 375 -158 350 -187 q 438 -129 400 -129 q 483 -145 464 -129 q 503 -194 503 -161 q 478 -266 503 -236 q 415 -296 454 -296 z "},"Ŋ":{"ha":874,"x_min":101,"x_max":885,"o":"m 722 947 q 833 897 782 947 q 885 725 885 847 q 864 563 885 650 l 750 68 q 680 -123 728 -28 q 563 -282 632 -218 q 413 -346 493 -346 q 313 -303 346 -346 q 332 -208 311 -249 q 410 -221 367 -221 q 518 -193 479 -221 q 577 -112 557 -165 q 618 40 597 -60 l 729 565 q 750 725 750 665 q 732 808 750 782 q 676 835 714 835 q 529 763 610 835 q 383 568 449 690 q 293 301 317 446 l 233 0 l 101 0 l 233 704 q 246 794 246 767 q 229 833 246 825 q 164 840 213 840 q 172 893 164 879 q 268 915 206 896 q 361 950 331 935 q 387 931 379 943 q 394 893 394 918 q 390 849 394 876 q 353 683 378 761 q 310 564 328 606 l 310 561 l 343 631 q 439 768 374 693 q 582 895 504 843 q 722 947 660 947 z "},"Ɲ":{"ha":1031,"x_min":-221,"x_max":1094,"o":"m 963 939 q 1094 943 1038 939 q 1076 883 1089 908 q 1005 841 1031 883 q 957 686 979 799 l 822 -6 q 764 -12 801 -12 l 333 740 l 200 56 q 133 -144 179 -53 q 22 -291 88 -236 q -125 -346 -44 -346 q -219 -314 -185 -346 q -215 -263 -221 -294 q -199 -212 -208 -232 q -115 -221 -153 -221 q 40 -155 -21 -221 q 128 50 101 -89 l 281 833 l 276 840 q 247 872 263 864 q 194 883 231 881 q 199 943 193 910 q 301 939 240 939 q 394 943 357 939 l 797 226 l 886 686 q 900 801 900 756 q 883 865 900 847 q 828 883 867 883 q 832 943 829 931 q 963 939 892 939 z "},"ǋ":{"ha":1261,"x_min":33,"x_max":1285,"o":"m 865 939 q 1000 943 963 939 q 989 883 1000 913 q 939 856 957 875 q 908 796 921 836 q 883 679 896 756 l 765 -6 q 708 -12 746 -12 q 322 726 524 358 l 239 253 q 228 151 228 183 q 247 84 228 104 q 314 56 267 64 q 318 22 318 39 q 317 -4 318 6 q 165 0 261 0 q 33 -4 94 0 q 43 56 35 29 q 122 101 96 63 q 165 239 147 140 l 268 825 l 261 838 q 231 872 247 864 q 181 883 215 881 q 176 918 176 900 q 178 943 176 935 q 261 939 219 939 q 357 943 322 939 q 733 228 532 632 l 815 693 q 826 789 826 757 q 807 856 826 836 q 740 883 788 875 q 738 918 738 906 q 739 943 738 935 q 865 939 779 939 m 1190 801 q 1146 818 1163 801 q 1129 863 1129 835 q 1132 883 1129 869 q 1165 945 1140 922 q 1222 968 1190 968 q 1268 951 1251 968 q 1285 907 1285 935 q 1258 831 1285 861 q 1190 801 1231 801 m 793 -346 q 772 -300 774 -329 q 926 -140 871 -231 q 1004 71 982 -49 l 1072 436 q 1079 490 1079 474 q 1062 529 1079 519 q 996 539 1044 539 q 1004 592 993 571 q 1090 613 1036 594 q 1169 649 1143 632 q 1206 621 1194 638 q 1217 569 1217 604 q 1200 443 1217 529 l 1136 103 q 1024 -174 1104 -69 q 793 -346 943 -279 z "},"Ṉ":{"ha":938,"x_min":33,"x_max":1000,"o":"m 865 939 q 1000 943 963 939 q 989 883 1000 913 q 939 856 957 875 q 908 796 921 836 q 883 679 896 756 l 765 -6 q 708 -12 746 -12 q 322 726 524 358 l 239 253 q 228 151 228 183 q 247 84 228 104 q 314 56 267 64 q 318 22 318 39 q 317 -4 318 6 q 165 0 261 0 q 33 -4 94 0 q 43 56 35 29 q 122 101 96 63 q 165 239 147 140 l 268 825 l 261 838 q 231 872 247 864 q 181 883 215 881 q 176 918 176 900 q 178 943 176 935 q 261 939 219 939 q 357 943 322 939 q 733 228 532 632 l 815 693 q 826 789 826 757 q 807 856 826 836 q 740 883 788 875 q 738 918 738 906 q 739 943 738 935 q 865 939 779 939 m 179 -243 q 182 -210 179 -231 q 192 -179 185 -190 l 675 -179 q 663 -239 675 -208 q 179 -243 378 -239 z "},"Ñ":{"ha":938,"x_min":33,"x_max":1000,"o":"m 865 939 q 1000 943 963 939 q 989 883 1000 913 q 939 856 957 875 q 908 796 921 836 q 883 679 896 756 l 765 -6 q 708 -12 746 -12 q 322 726 524 358 l 239 253 q 228 151 228 183 q 247 84 228 104 q 314 56 267 64 q 318 22 318 39 q 317 -4 318 6 q 165 0 261 0 q 33 -4 94 0 q 43 56 35 29 q 122 101 96 63 q 165 239 147 140 l 268 825 l 261 838 q 231 872 247 864 q 181 883 215 881 q 176 918 176 900 q 178 943 176 935 q 261 939 219 939 q 357 943 322 939 q 733 228 532 632 l 815 693 q 826 789 826 757 q 807 856 826 836 q 740 883 788 875 q 738 918 738 906 q 739 943 738 935 q 865 939 779 939 m 696 1039 q 651 1045 672 1039 q 603 1064 629 1051 q 558 1081 576 1075 q 518 1088 539 1088 q 410 1043 468 1088 q 397 1096 393 1063 q 564 1176 479 1176 q 610 1170 589 1176 q 663 1150 632 1164 q 702 1134 686 1139 q 736 1129 718 1129 q 822 1168 776 1129 q 857 1138 850 1154 q 696 1039 781 1039 z "},"O":{"ha":1029,"x_min":83,"x_max":1006,"o":"m 482 -12 q 274 38 364 -12 q 133 181 183 88 q 83 396 83 274 q 96 521 83 457 q 191 740 118 642 q 372 894 264 838 q 606 951 481 951 q 813 905 722 951 q 954 767 903 858 q 1006 549 1006 676 q 992 411 1006 481 q 899 197 969 293 q 719 44 828 100 q 482 -12 611 -12 m 507 49 q 731 149 640 49 q 850 408 821 249 q 861 531 861 465 q 826 719 861 638 q 726 845 790 800 q 579 890 661 890 q 428 842 499 890 q 308 712 357 794 q 240 531 260 629 q 228 400 228 464 q 301 147 228 244 q 507 49 375 49 z "},"Ó":{"ha":1029,"x_min":83,"x_max":1006,"o":"m 482 -12 q 274 38 364 -12 q 133 181 183 88 q 83 396 83 274 q 96 521 83 457 q 191 740 118 642 q 372 894 264 838 q 606 951 481 951 q 813 905 722 951 q 954 767 903 858 q 1006 549 1006 676 q 992 411 1006 481 q 899 197 969 293 q 719 44 828 100 q 482 -12 611 -12 m 507 49 q 731 149 640 49 q 850 408 821 249 q 861 531 861 465 q 826 719 861 638 q 726 845 790 800 q 579 890 661 890 q 428 842 499 890 q 308 712 357 794 q 240 531 260 629 q 228 400 228 464 q 301 147 228 244 q 507 49 375 49 m 610 1013 q 558 1035 581 1014 q 629 1131 599 1082 q 676 1215 660 1179 q 733 1221 715 1221 q 821 1203 782 1221 q 610 1013 719 1121 z "},"Ŏ":{"ha":1029,"x_min":83,"x_max":1006,"o":"m 482 -12 q 274 38 364 -12 q 133 181 183 88 q 83 396 83 274 q 96 521 83 457 q 191 740 118 642 q 372 894 264 838 q 606 951 481 951 q 813 905 722 951 q 954 767 903 858 q 1006 549 1006 676 q 992 411 1006 481 q 899 197 969 293 q 719 44 828 100 q 482 -12 611 -12 m 507 49 q 731 149 640 49 q 850 408 821 249 q 861 531 861 465 q 826 719 861 638 q 726 845 790 800 q 579 890 661 890 q 428 842 499 890 q 308 712 357 794 q 240 531 260 629 q 228 400 228 464 q 301 147 228 244 q 507 49 375 49 m 611 1013 q 472 1050 519 1013 q 424 1157 424 1088 q 428 1203 424 1178 q 488 1215 460 1218 q 527 1133 486 1164 q 640 1103 568 1103 q 763 1133 713 1103 q 828 1215 813 1163 l 838 1215 q 874 1208 863 1215 q 788 1063 856 1114 q 611 1013 719 1013 z "},"Ǒ":{"ha":1029,"x_min":83,"x_max":1006,"o":"m 482 -12 q 274 38 364 -12 q 133 181 183 88 q 83 396 83 274 q 96 521 83 457 q 191 740 118 642 q 372 894 264 838 q 606 951 481 951 q 813 905 722 951 q 954 767 903 858 q 1006 549 1006 676 q 992 411 1006 481 q 899 197 969 293 q 719 44 828 100 q 482 -12 611 -12 m 507 49 q 731 149 640 49 q 850 408 821 249 q 861 531 861 465 q 826 719 861 638 q 726 845 790 800 q 579 890 661 890 q 428 842 499 890 q 308 712 357 794 q 240 531 260 629 q 228 400 228 464 q 301 147 228 244 q 507 49 375 49 m 600 1018 q 429 1189 518 1121 q 460 1229 433 1222 q 644 1131 550 1175 q 832 1222 751 1171 q 855 1208 844 1218 q 871 1186 865 1199 q 646 1025 740 1104 q 600 1018 618 1014 z "},"Ô":{"ha":1029,"x_min":83,"x_max":1006,"o":"m 482 -12 q 274 38 364 -12 q 133 181 183 88 q 83 396 83 274 q 96 521 83 457 q 191 740 118 642 q 372 894 264 838 q 606 951 481 951 q 813 905 722 951 q 954 767 903 858 q 1006 549 1006 676 q 992 411 1006 481 q 899 197 969 293 q 719 44 828 100 q 482 -12 611 -12 m 507 49 q 731 149 640 49 q 850 408 821 249 q 861 531 861 465 q 826 719 861 638 q 726 845 790 800 q 579 890 661 890 q 428 842 499 890 q 308 712 357 794 q 240 531 260 629 q 228 400 228 464 q 301 147 228 244 q 507 49 375 49 m 460 1014 q 447 1041 451 1025 q 444 1071 443 1057 q 654 1218 525 1118 q 668 1219 660 1219 q 707 1211 688 1219 q 854 1051 751 1157 q 839 1030 850 1039 q 814 1018 828 1021 q 646 1107 732 1072 q 460 1014 575 1079 z "},"Ố":{"ha":1029,"x_min":83,"x_max":1028,"o":"m 482 -12 q 274 38 364 -12 q 133 181 183 88 q 83 396 83 274 q 96 521 83 457 q 191 740 118 642 q 372 894 264 838 q 606 951 481 951 q 813 905 722 951 q 954 767 903 858 q 1006 549 1006 676 q 992 411 1006 481 q 899 197 969 293 q 719 44 828 100 q 482 -12 611 -12 m 507 49 q 731 149 640 49 q 850 408 821 249 q 861 531 861 465 q 826 719 861 638 q 726 845 790 800 q 579 890 661 890 q 428 842 499 890 q 308 712 357 794 q 240 531 260 629 q 228 400 228 464 q 301 147 228 244 q 507 49 375 49 m 838 1183 q 792 1203 811 1185 q 856 1291 828 1247 q 897 1365 883 1335 q 949 1371 933 1371 q 1028 1354 996 1371 q 838 1183 933 1276 m 460 1014 q 447 1041 451 1025 q 444 1071 443 1057 q 654 1218 525 1118 q 668 1219 660 1219 q 707 1211 688 1219 q 854 1051 751 1157 q 839 1030 850 1039 q 814 1018 828 1021 q 646 1107 732 1072 q 460 1014 575 1079 z "},"Ộ":{"ha":1029,"x_min":83,"x_max":1006,"o":"m 482 -12 q 274 38 364 -12 q 133 181 183 88 q 83 396 83 274 q 96 521 83 457 q 191 740 118 642 q 372 894 264 838 q 606 951 481 951 q 813 905 722 951 q 954 767 903 858 q 1006 549 1006 676 q 992 411 1006 481 q 899 197 969 293 q 719 44 828 100 q 482 -12 611 -12 m 507 49 q 731 149 640 49 q 850 408 821 249 q 861 531 861 465 q 826 719 861 638 q 726 845 790 800 q 579 890 661 890 q 428 842 499 890 q 308 712 357 794 q 240 531 260 629 q 228 400 228 464 q 301 147 228 244 q 507 49 375 49 m 429 -296 q 382 -278 400 -296 q 364 -232 364 -261 q 389 -158 364 -187 q 451 -129 414 -129 q 497 -145 478 -129 q 517 -194 517 -161 q 492 -266 517 -236 q 429 -296 468 -296 m 460 1014 q 447 1041 451 1025 q 444 1071 443 1057 q 654 1218 525 1118 q 668 1219 660 1219 q 707 1211 688 1219 q 854 1051 751 1157 q 839 1030 850 1039 q 814 1018 828 1021 q 646 1107 732 1072 q 460 1014 575 1079 z "},"Ồ":{"ha":1029,"x_min":83,"x_max":1006,"o":"m 482 -12 q 274 38 364 -12 q 133 181 183 88 q 83 396 83 274 q 96 521 83 457 q 191 740 118 642 q 372 894 264 838 q 606 951 481 951 q 813 905 722 951 q 954 767 903 858 q 1006 549 1006 676 q 992 411 1006 481 q 899 197 969 293 q 719 44 828 100 q 482 -12 611 -12 m 507 49 q 731 149 640 49 q 850 408 821 249 q 861 531 861 465 q 826 719 861 638 q 726 845 790 800 q 579 890 661 890 q 428 842 499 890 q 308 712 357 794 q 240 531 260 629 q 228 400 228 464 q 301 147 228 244 q 507 49 375 49 z "},"Ổ":{"ha":1029,"x_min":83,"x_max":1006,"o":"m 482 -12 q 274 38 364 -12 q 133 181 183 88 q 83 396 83 274 q 96 521 83 457 q 191 740 118 642 q 372 894 264 838 q 606 951 481 951 q 813 905 722 951 q 954 767 903 858 q 1006 549 1006 676 q 992 411 1006 481 q 899 197 969 293 q 719 44 828 100 q 482 -12 611 -12 m 507 49 q 731 149 640 49 q 850 408 821 249 q 861 531 861 465 q 826 719 861 638 q 726 845 790 800 q 579 890 661 890 q 428 842 499 890 q 308 712 357 794 q 240 531 260 629 q 228 400 228 464 q 301 147 228 244 q 507 49 375 49 z "},"Ỗ":{"ha":1029,"x_min":83,"x_max":1006,"o":"m 482 -12 q 274 38 364 -12 q 133 181 183 88 q 83 396 83 274 q 96 521 83 457 q 191 740 118 642 q 372 894 264 838 q 606 951 481 951 q 813 905 722 951 q 954 767 903 858 q 1006 549 1006 676 q 992 411 1006 481 q 899 197 969 293 q 719 44 828 100 q 482 -12 611 -12 m 507 49 q 731 149 640 49 q 850 408 821 249 q 861 531 861 465 q 826 719 861 638 q 726 845 790 800 q 579 890 661 890 q 428 842 499 890 q 308 712 357 794 q 240 531 260 629 q 228 400 228 464 q 301 147 228 244 q 507 49 375 49 m 460 1014 q 447 1041 451 1025 q 444 1071 443 1057 q 654 1218 525 1118 q 668 1219 660 1219 q 707 1211 688 1219 q 854 1051 751 1157 q 839 1030 850 1039 q 814 1018 828 1021 q 646 1107 732 1072 q 460 1014 575 1079 m 769 1292 q 724 1298 746 1292 q 676 1317 703 1304 q 631 1334 650 1328 q 592 1340 613 1340 q 483 1296 542 1340 q 471 1349 467 1315 q 638 1429 553 1429 q 684 1423 663 1429 q 736 1403 706 1417 q 776 1387 760 1392 q 810 1382 792 1382 q 896 1421 850 1382 q 931 1390 924 1407 q 769 1292 854 1292 z "},"Ȍ":{"ha":1029,"x_min":83,"x_max":1006,"o":"m 482 -12 q 274 38 364 -12 q 133 181 183 88 q 83 396 83 274 q 96 521 83 457 q 191 740 118 642 q 372 894 264 838 q 606 951 481 951 q 813 905 722 951 q 954 767 903 858 q 1006 549 1006 676 q 992 411 1006 481 q 899 197 969 293 q 719 44 828 100 q 482 -12 611 -12 m 507 49 q 731 149 640 49 q 850 408 821 249 q 861 531 861 465 q 826 719 861 638 q 726 845 790 800 q 579 890 661 890 q 428 842 499 890 q 308 712 357 794 q 240 531 260 629 q 228 400 228 464 q 301 147 228 244 q 507 49 375 49 m 536 1008 q 413 1186 471 1114 q 479 1197 439 1197 q 536 1192 513 1197 l 549 1142 q 589 1003 575 1042 q 536 1008 572 1001 m 744 1008 q 621 1186 679 1114 q 688 1197 647 1197 q 744 1192 721 1197 l 757 1142 q 797 1003 783 1042 q 744 1008 781 1001 z "},"Ö":{"ha":1029,"x_min":83,"x_max":1006,"o":"m 482 -12 q 274 38 364 -12 q 133 181 183 88 q 83 396 83 274 q 96 521 83 457 q 191 740 118 642 q 372 894 264 838 q 606 951 481 951 q 813 905 722 951 q 954 767 903 858 q 1006 549 1006 676 q 992 411 1006 481 q 899 197 969 293 q 719 44 828 100 q 482 -12 611 -12 m 507 49 q 731 149 640 49 q 850 408 821 249 q 861 531 861 465 q 826 719 861 638 q 726 845 790 800 q 579 890 661 890 q 428 842 499 890 q 308 712 357 794 q 240 531 260 629 q 228 400 228 464 q 301 147 228 244 q 507 49 375 49 m 499 1017 q 453 1035 469 1017 q 436 1083 436 1053 q 458 1144 436 1122 q 515 1167 479 1167 q 562 1151 544 1167 q 579 1108 579 1135 q 576 1085 579 1093 q 548 1035 568 1053 q 499 1017 528 1017 m 769 1018 q 724 1035 740 1018 q 707 1082 707 1053 q 728 1144 707 1122 q 789 1167 750 1167 q 834 1151 818 1167 q 850 1107 850 1135 q 849 1089 850 1096 q 822 1036 843 1054 q 769 1018 801 1018 z "},"Ȫ":{"ha":1029,"x_min":83,"x_max":1006,"o":"m 482 -12 q 274 38 364 -12 q 133 181 183 88 q 83 396 83 274 q 96 521 83 457 q 191 740 118 642 q 372 894 264 838 q 606 951 481 951 q 813 905 722 951 q 954 767 903 858 q 1006 549 1006 676 q 992 411 1006 481 q 899 197 969 293 q 719 44 828 100 q 482 -12 611 -12 m 507 49 q 731 149 640 49 q 850 408 821 249 q 861 531 861 465 q 826 719 861 638 q 726 845 790 800 q 579 890 661 890 q 428 842 499 890 q 308 712 357 794 q 240 531 260 629 q 228 400 228 464 q 301 147 228 244 q 507 49 375 49 m 499 1017 q 453 1035 469 1017 q 436 1083 436 1053 q 458 1144 436 1122 q 515 1167 479 1167 q 562 1151 544 1167 q 579 1108 579 1135 q 576 1085 579 1093 q 548 1035 568 1053 q 499 1017 528 1017 m 769 1018 q 724 1035 740 1018 q 707 1082 707 1053 q 728 1144 707 1122 q 789 1167 750 1167 q 834 1151 818 1167 q 850 1107 850 1135 q 849 1089 850 1096 q 822 1036 843 1054 q 769 1018 801 1018 m 428 1264 q 431 1297 428 1276 q 440 1328 433 1317 l 924 1328 q 911 1268 924 1300 q 428 1264 625 1268 z "},"Ȱ":{"ha":1029,"x_min":83,"x_max":1006,"o":"m 482 -12 q 274 38 364 -12 q 133 181 183 88 q 83 396 83 274 q 96 521 83 457 q 191 740 118 642 q 372 894 264 838 q 606 951 481 951 q 813 905 722 951 q 954 767 903 858 q 1006 549 1006 676 q 992 411 1006 481 q 899 197 969 293 q 719 44 828 100 q 482 -12 611 -12 m 507 49 q 731 149 640 49 q 850 408 821 249 q 861 531 861 465 q 826 719 861 638 q 726 845 790 800 q 579 890 661 890 q 428 842 499 890 q 308 712 357 794 q 240 531 260 629 q 228 400 228 464 q 301 147 228 244 q 507 49 375 49 m 628 1001 q 582 1018 599 1001 q 565 1063 565 1035 q 591 1131 565 1106 q 654 1157 617 1157 q 701 1140 685 1157 q 718 1094 718 1124 q 692 1027 718 1053 q 628 1001 667 1001 m 439 1222 q 442 1255 439 1235 q 451 1286 444 1275 l 935 1286 q 922 1226 935 1258 q 439 1222 636 1226 z "},"Ọ":{"ha":1029,"x_min":83,"x_max":1006,"o":"m 482 -12 q 274 38 364 -12 q 133 181 183 88 q 83 396 83 274 q 96 521 83 457 q 191 740 118 642 q 372 894 264 838 q 606 951 481 951 q 813 905 722 951 q 954 767 903 858 q 1006 549 1006 676 q 992 411 1006 481 q 899 197 969 293 q 719 44 828 100 q 482 -12 611 -12 m 507 49 q 731 149 640 49 q 850 408 821 249 q 861 531 861 465 q 826 719 861 638 q 726 845 790 800 q 579 890 661 890 q 428 842 499 890 q 308 712 357 794 q 240 531 260 629 q 228 400 228 464 q 301 147 228 244 q 507 49 375 49 m 429 -296 q 382 -278 400 -296 q 364 -232 364 -261 q 389 -158 364 -187 q 451 -129 414 -129 q 497 -145 478 -129 q 517 -194 517 -161 q 492 -266 517 -236 q 429 -296 468 -296 z "},"Ò":{"ha":1029,"x_min":83,"x_max":1006,"o":"m 482 -12 q 274 38 364 -12 q 133 181 183 88 q 83 396 83 274 q 96 521 83 457 q 191 740 118 642 q 372 894 264 838 q 606 951 481 951 q 813 905 722 951 q 954 767 903 858 q 1006 549 1006 676 q 992 411 1006 481 q 899 197 969 293 q 719 44 828 100 q 482 -12 611 -12 m 507 49 q 731 149 640 49 q 850 408 821 249 q 861 531 861 465 q 826 719 861 638 q 726 845 790 800 q 579 890 661 890 q 428 842 499 890 q 308 712 357 794 q 240 531 260 629 q 228 400 228 464 q 301 147 228 244 q 507 49 375 49 m 681 1028 q 650 1022 667 1022 q 619 1028 636 1022 q 483 1204 575 1103 q 556 1215 517 1215 q 613 1208 582 1215 q 681 1028 639 1107 z "},"Ỏ":{"ha":1029,"x_min":83,"x_max":1006,"o":"m 482 -12 q 274 38 364 -12 q 133 181 183 88 q 83 396 83 274 q 96 521 83 457 q 191 740 118 642 q 372 894 264 838 q 606 951 481 951 q 813 905 722 951 q 954 767 903 858 q 1006 549 1006 676 q 992 411 1006 481 q 899 197 969 293 q 719 44 828 100 q 482 -12 611 -12 m 507 49 q 731 149 640 49 q 850 408 821 249 q 861 531 861 465 q 826 719 861 638 q 726 845 790 800 q 579 890 661 890 q 428 842 499 890 q 308 712 357 794 q 240 531 260 629 q 228 400 228 464 q 301 147 228 244 q 507 49 375 49 m 593 1018 q 585 1050 585 1033 q 599 1090 585 1076 q 642 1119 613 1104 q 689 1158 681 1138 q 690 1168 690 1161 q 661 1186 690 1186 q 578 1103 606 1186 q 556 1108 572 1104 q 531 1117 540 1113 q 514 1128 521 1121 q 521 1149 517 1135 q 527 1174 525 1163 q 528 1200 529 1186 q 672 1236 600 1236 q 758 1218 728 1236 q 788 1168 788 1200 q 785 1151 788 1163 q 759 1111 778 1126 q 710 1081 740 1096 q 673 1059 685 1068 q 657 1038 661 1050 q 655 1028 657 1033 q 654 1015 653 1024 q 629 1014 647 1014 q 593 1018 610 1014 z "},"Ơ":{"ha":1029,"x_min":83,"x_max":1031,"o":"m 1031 1028 q 982 923 1031 961 q 857 878 933 885 q 967 743 928 826 q 1006 549 1006 660 q 992 411 1006 481 q 899 197 969 293 q 719 44 828 100 q 482 -12 611 -12 q 274 38 364 -12 q 133 181 183 88 q 83 396 83 274 q 96 521 83 457 q 191 740 118 642 q 372 894 264 838 q 606 951 481 951 l 607 951 l 607 951 q 714 943 650 951 q 807 935 775 935 q 888 951 863 935 q 924 1010 914 968 q 928 1044 928 1026 q 922 1094 928 1058 q 964 1106 938 1101 q 1006 1108 990 1110 q 1031 1028 1031 1069 m 850 408 q 861 531 861 465 q 826 719 861 638 q 726 845 790 800 q 579 890 661 890 q 428 842 499 890 q 308 712 357 794 q 240 531 260 629 q 228 400 228 464 q 301 147 228 244 q 507 49 375 49 q 731 149 640 49 q 850 408 821 249 z "},"Ớ":{"ha":1029,"x_min":83,"x_max":1031,"o":"m 1031 1028 q 982 923 1031 961 q 857 878 933 885 q 967 743 928 826 q 1006 549 1006 660 q 992 411 1006 481 q 899 197 969 293 q 719 44 828 100 q 482 -12 611 -12 q 274 38 364 -12 q 133 181 183 88 q 83 396 83 274 q 96 521 83 457 q 191 740 118 642 q 372 894 264 838 q 606 951 481 951 l 607 951 l 607 951 q 714 943 650 951 q 807 935 775 935 q 888 951 863 935 q 924 1010 914 968 q 928 1044 928 1026 q 922 1094 928 1058 q 964 1106 938 1101 q 1006 1108 990 1110 q 1031 1028 1031 1069 m 850 408 q 861 531 861 465 q 826 719 861 638 q 726 845 790 800 q 579 890 661 890 q 428 842 499 890 q 308 712 357 794 q 240 531 260 629 q 228 400 228 464 q 301 147 228 244 q 507 49 375 49 q 731 149 640 49 q 850 408 821 249 m 610 1013 q 558 1035 581 1014 q 629 1131 599 1082 q 676 1215 660 1179 q 733 1221 715 1221 q 821 1203 782 1221 q 610 1013 719 1121 z "},"Ợ":{"ha":1029,"x_min":83,"x_max":1031,"o":"m 1031 1028 q 982 923 1031 961 q 857 878 933 885 q 967 743 928 826 q 1006 549 1006 660 q 992 411 1006 481 q 899 197 969 293 q 719 44 828 100 q 482 -12 611 -12 q 274 38 364 -12 q 133 181 183 88 q 83 396 83 274 q 96 521 83 457 q 191 740 118 642 q 372 894 264 838 q 606 951 481 951 l 607 951 l 607 951 q 714 943 650 951 q 807 935 775 935 q 888 951 863 935 q 924 1010 914 968 q 928 1044 928 1026 q 922 1094 928 1058 q 964 1106 938 1101 q 1006 1108 990 1110 q 1031 1028 1031 1069 m 850 408 q 861 531 861 465 q 826 719 861 638 q 726 845 790 800 q 579 890 661 890 q 428 842 499 890 q 308 712 357 794 q 240 531 260 629 q 228 400 228 464 q 301 147 228 244 q 507 49 375 49 q 731 149 640 49 q 850 408 821 249 m 429 -296 q 382 -278 400 -296 q 364 -232 364 -261 q 389 -158 364 -187 q 451 -129 414 -129 q 497 -145 478 -129 q 517 -194 517 -161 q 492 -266 517 -236 q 429 -296 468 -296 z "},"Ờ":{"ha":1029,"x_min":83,"x_max":1031,"o":"m 1031 1028 q 982 923 1031 961 q 857 878 933 885 q 967 743 928 826 q 1006 549 1006 660 q 992 411 1006 481 q 899 197 969 293 q 719 44 828 100 q 482 -12 611 -12 q 274 38 364 -12 q 133 181 183 88 q 83 396 83 274 q 96 521 83 457 q 191 740 118 642 q 372 894 264 838 q 606 951 481 951 l 607 951 l 607 951 q 714 943 650 951 q 807 935 775 935 q 888 951 863 935 q 924 1010 914 968 q 928 1044 928 1026 q 922 1094 928 1058 q 964 1106 938 1101 q 1006 1108 990 1110 q 1031 1028 1031 1069 m 850 408 q 861 531 861 465 q 826 719 861 638 q 726 845 790 800 q 579 890 661 890 q 428 842 499 890 q 308 712 357 794 q 240 531 260 629 q 228 400 228 464 q 301 147 228 244 q 507 49 375 49 q 731 149 640 49 q 850 408 821 249 m 681 1028 q 650 1022 667 1022 q 619 1028 636 1022 q 483 1204 575 1103 q 556 1215 517 1215 q 613 1208 582 1215 q 681 1028 639 1107 z "},"Ở":{"ha":1029,"x_min":83,"x_max":1031,"o":"m 1031 1028 q 982 923 1031 961 q 857 878 933 885 q 967 743 928 826 q 1006 549 1006 660 q 992 411 1006 481 q 899 197 969 293 q 719 44 828 100 q 482 -12 611 -12 q 274 38 364 -12 q 133 181 183 88 q 83 396 83 274 q 96 521 83 457 q 191 740 118 642 q 372 894 264 838 q 606 951 481 951 l 607 951 l 607 951 q 714 943 650 951 q 807 935 775 935 q 888 951 863 935 q 924 1010 914 968 q 928 1044 928 1026 q 922 1094 928 1058 q 964 1106 938 1101 q 1006 1108 990 1110 q 1031 1028 1031 1069 m 850 408 q 861 531 861 465 q 826 719 861 638 q 726 845 790 800 q 579 890 661 890 q 428 842 499 890 q 308 712 357 794 q 240 531 260 629 q 228 400 228 464 q 301 147 228 244 q 507 49 375 49 q 731 149 640 49 q 850 408 821 249 m 593 1018 q 585 1050 585 1033 q 599 1090 585 1076 q 642 1119 613 1104 q 689 1158 681 1138 q 690 1168 690 1161 q 661 1186 690 1186 q 578 1103 606 1186 q 556 1108 572 1104 q 531 1117 540 1113 q 514 1128 521 1121 q 521 1149 517 1135 q 527 1174 525 1163 q 528 1200 529 1186 q 672 1236 600 1236 q 758 1218 728 1236 q 788 1168 788 1200 q 785 1151 788 1163 q 759 1111 778 1126 q 710 1081 740 1096 q 673 1059 685 1068 q 657 1038 661 1050 q 655 1028 657 1033 q 654 1015 653 1024 q 629 1014 647 1014 q 593 1018 610 1014 z "},"Ỡ":{"ha":1029,"x_min":83,"x_max":1031,"o":"m 1031 1028 q 982 923 1031 961 q 857 878 933 885 q 967 743 928 826 q 1006 549 1006 660 q 992 411 1006 481 q 899 197 969 293 q 719 44 828 100 q 482 -12 611 -12 q 274 38 364 -12 q 133 181 183 88 q 83 396 83 274 q 96 521 83 457 q 191 740 118 642 q 372 894 264 838 q 606 951 481 951 l 607 951 l 607 951 q 714 943 650 951 q 807 935 775 935 q 888 951 863 935 q 924 1010 914 968 q 928 1044 928 1026 q 922 1094 928 1058 q 964 1106 938 1101 q 1006 1108 990 1110 q 1031 1028 1031 1069 m 850 408 q 861 531 861 465 q 826 719 861 638 q 726 845 790 800 q 579 890 661 890 q 428 842 499 890 q 308 712 357 794 q 240 531 260 629 q 228 400 228 464 q 301 147 228 244 q 507 49 375 49 q 731 149 640 49 q 850 408 821 249 m 717 1039 q 672 1045 693 1039 q 624 1064 650 1051 q 578 1081 597 1075 q 539 1088 560 1088 q 431 1043 489 1088 q 418 1096 414 1063 q 585 1176 500 1176 q 631 1170 610 1176 q 683 1150 653 1164 q 723 1134 707 1139 q 757 1129 739 1129 q 843 1168 797 1129 q 878 1138 871 1154 q 717 1039 801 1039 z "},"Ő":{"ha":1029,"x_min":83,"x_max":1006,"o":"m 482 -12 q 274 38 364 -12 q 133 181 183 88 q 83 396 83 274 q 96 521 83 457 q 191 740 118 642 q 372 894 264 838 q 606 951 481 951 q 813 905 722 951 q 954 767 903 858 q 1006 549 1006 676 q 992 411 1006 481 q 899 197 969 293 q 719 44 828 100 q 482 -12 611 -12 m 507 49 q 731 149 640 49 q 850 408 821 249 q 861 531 861 465 q 826 719 861 638 q 726 845 790 800 q 579 890 661 890 q 428 842 499 890 q 308 712 357 794 q 240 531 260 629 q 228 400 228 464 q 301 147 228 244 q 507 49 375 49 m 531 1019 q 479 1042 501 1021 q 550 1138 519 1089 q 597 1222 581 1186 q 654 1228 636 1228 q 742 1210 703 1228 q 531 1019 640 1128 m 753 1019 q 701 1042 724 1021 q 772 1138 742 1089 q 819 1222 803 1186 q 876 1228 858 1228 q 964 1210 925 1228 q 753 1019 863 1128 z "},"Ȏ":{"ha":1029,"x_min":83,"x_max":1006,"o":"m 482 -12 q 274 38 364 -12 q 133 181 183 88 q 83 396 83 274 q 96 521 83 457 q 191 740 118 642 q 372 894 264 838 q 606 951 481 951 q 813 905 722 951 q 954 767 903 858 q 1006 549 1006 676 q 992 411 1006 481 q 899 197 969 293 q 719 44 828 100 q 482 -12 611 -12 m 507 49 q 731 149 640 49 q 850 408 821 249 q 861 531 861 465 q 826 719 861 638 q 726 845 790 800 q 579 890 661 890 q 428 842 499 890 q 308 712 357 794 q 240 531 260 629 q 228 400 228 464 q 301 147 228 244 q 507 49 375 49 m 683 1207 q 823 1169 775 1207 q 871 1063 871 1132 q 867 1017 871 1042 q 807 1004 835 1001 q 767 1086 808 1056 q 654 1117 726 1117 q 532 1087 582 1117 q 467 1004 482 1057 l 457 1004 q 421 1011 432 1004 q 507 1156 439 1106 q 683 1207 575 1207 z "},"Ō":{"ha":1029,"x_min":83,"x_max":1006,"o":"m 482 -12 q 274 38 364 -12 q 133 181 183 88 q 83 396 83 274 q 96 521 83 457 q 191 740 118 642 q 372 894 264 838 q 606 951 481 951 q 813 905 722 951 q 954 767 903 858 q 1006 549 1006 676 q 992 411 1006 481 q 899 197 969 293 q 719 44 828 100 q 482 -12 611 -12 m 507 49 q 731 149 640 49 q 850 408 821 249 q 861 531 861 465 q 826 719 861 638 q 726 845 790 800 q 579 890 661 890 q 428 842 499 890 q 308 712 357 794 q 240 531 260 629 q 228 400 228 464 q 301 147 228 244 q 507 49 375 49 m 396 1060 q 399 1092 396 1072 q 408 1124 401 1113 l 892 1124 q 879 1064 892 1096 q 396 1060 593 1064 z "},"Ṓ":{"ha":1029,"x_min":83,"x_max":1006,"o":"m 482 -12 q 274 38 364 -12 q 133 181 183 88 q 83 396 83 274 q 96 521 83 457 q 191 740 118 642 q 372 894 264 838 q 606 951 481 951 q 813 905 722 951 q 954 767 903 858 q 1006 549 1006 676 q 992 411 1006 481 q 899 197 969 293 q 719 44 828 100 q 482 -12 611 -12 m 507 49 q 731 149 640 49 q 850 408 821 249 q 861 531 861 465 q 826 719 861 638 q 726 845 790 800 q 579 890 661 890 q 428 842 499 890 q 308 712 357 794 q 240 531 260 629 q 228 400 228 464 q 301 147 228 244 q 507 49 375 49 m 396 1060 q 399 1092 396 1072 q 408 1124 401 1113 l 892 1124 q 879 1064 892 1096 q 396 1060 593 1064 m 646 1197 q 594 1219 617 1199 q 665 1315 635 1267 q 713 1400 696 1364 q 769 1406 751 1406 q 857 1388 818 1406 q 646 1197 756 1306 z "},"Ṑ":{"ha":1029,"x_min":83,"x_max":1006,"o":"m 482 -12 q 274 38 364 -12 q 133 181 183 88 q 83 396 83 274 q 96 521 83 457 q 191 740 118 642 q 372 894 264 838 q 606 951 481 951 q 813 905 722 951 q 954 767 903 858 q 1006 549 1006 676 q 992 411 1006 481 q 899 197 969 293 q 719 44 828 100 q 482 -12 611 -12 m 507 49 q 731 149 640 49 q 850 408 821 249 q 861 531 861 465 q 826 719 861 638 q 726 845 790 800 q 579 890 661 890 q 428 842 499 890 q 308 712 357 794 q 240 531 260 629 q 228 400 228 464 q 301 147 228 244 q 507 49 375 49 m 396 1060 q 399 1092 396 1072 q 408 1124 401 1113 l 892 1124 q 879 1064 892 1096 q 396 1060 593 1064 m 717 1213 q 686 1207 703 1207 q 656 1213 672 1207 q 519 1389 611 1288 q 592 1400 553 1400 q 649 1393 618 1400 q 717 1213 675 1292 z "},"Ǫ":{"ha":1029,"x_min":83,"x_max":1006,"o":"m 606 951 q 813 905 722 951 q 954 767 903 858 q 1006 549 1006 676 q 992 411 1006 481 q 892 188 968 288 q 701 35 815 88 l 699 33 l 672 22 q 566 -58 604 -8 q 528 -161 528 -108 q 546 -210 528 -192 q 597 -229 564 -229 q 643 -217 624 -229 q 668 -265 664 -236 q 564 -346 608 -301 q 535 -350 551 -350 q 444 -319 479 -350 q 410 -231 410 -289 q 539 -10 410 -107 q 482 -12 500 -12 q 274 38 364 -12 q 133 181 183 88 q 83 396 83 274 q 96 521 83 457 q 191 740 118 642 q 372 894 264 838 q 606 951 481 951 m 850 408 q 861 531 861 465 q 826 719 861 638 q 726 845 790 800 q 579 890 661 890 q 428 842 499 890 q 308 712 357 794 q 240 531 260 629 q 228 400 228 464 q 301 147 228 244 q 507 49 375 49 q 731 149 640 49 q 850 408 821 249 z "},"Ø":{"ha":1029,"x_min":81,"x_max":1007,"o":"m 976 890 l 914 825 q 1006 549 1006 721 q 992 411 1006 481 q 899 197 969 293 q 719 44 828 100 q 482 -12 611 -12 q 219 74 325 -12 l 143 -12 q 103 -3 121 -12 q 81 21 86 6 l 172 121 q 83 397 83 229 q 96 521 83 457 q 191 740 118 642 q 372 894 264 838 q 606 951 481 951 q 865 871 761 951 l 939 951 q 978 943 960 951 q 1007 922 997 935 l 976 890 m 240 531 q 228 399 228 463 q 261 217 228 296 l 786 786 q 695 863 749 836 q 579 890 642 890 q 428 842 499 890 q 308 712 357 794 q 240 531 260 629 m 850 408 q 861 529 861 464 q 821 728 861 643 q 294 157 567 458 q 507 49 369 49 q 731 149 640 49 q 850 408 821 249 z "},"Ǿ":{"ha":1029,"x_min":81,"x_max":1007,"o":"m 976 890 l 914 825 q 1006 549 1006 721 q 992 411 1006 481 q 899 197 969 293 q 719 44 828 100 q 482 -12 611 -12 q 219 74 325 -12 l 143 -12 q 103 -3 121 -12 q 81 21 86 6 l 172 121 q 83 397 83 229 q 96 521 83 457 q 191 740 118 642 q 372 894 264 838 q 606 951 481 951 q 865 871 761 951 l 939 951 q 978 943 960 951 q 1007 922 997 935 l 976 890 m 240 531 q 228 399 228 463 q 261 217 228 296 l 786 786 q 695 863 749 836 q 579 890 642 890 q 428 842 499 890 q 308 712 357 794 q 240 531 260 629 m 850 408 q 861 529 861 464 q 821 728 861 643 q 294 157 567 458 q 507 49 369 49 q 731 149 640 49 q 850 408 821 249 m 608 1013 q 557 1035 579 1014 q 628 1131 597 1082 q 675 1215 658 1179 q 732 1221 714 1221 q 819 1203 781 1221 q 608 1013 718 1121 z "},"Õ":{"ha":1029,"x_min":83,"x_max":1006,"o":"m 482 -12 q 274 38 364 -12 q 133 181 183 88 q 83 396 83 274 q 96 521 83 457 q 191 740 118 642 q 372 894 264 838 q 606 951 481 951 q 813 905 722 951 q 954 767 903 858 q 1006 549 1006 676 q 992 411 1006 481 q 899 197 969 293 q 719 44 828 100 q 482 -12 611 -12 m 507 49 q 731 149 640 49 q 850 408 821 249 q 861 531 861 465 q 826 719 861 638 q 726 845 790 800 q 579 890 661 890 q 428 842 499 890 q 308 712 357 794 q 240 531 260 629 q 228 400 228 464 q 301 147 228 244 q 507 49 375 49 m 717 1039 q 672 1045 693 1039 q 624 1064 650 1051 q 578 1081 597 1075 q 539 1088 560 1088 q 431 1043 489 1088 q 418 1096 414 1063 q 585 1176 500 1176 q 631 1170 610 1176 q 683 1150 653 1164 q 723 1134 707 1139 q 757 1129 739 1129 q 843 1168 797 1129 q 878 1138 871 1154 q 717 1039 801 1039 z "},"Ṍ":{"ha":1029,"x_min":83,"x_max":1006,"o":"m 482 -12 q 274 38 364 -12 q 133 181 183 88 q 83 396 83 274 q 96 521 83 457 q 191 740 118 642 q 372 894 264 838 q 606 951 481 951 q 813 905 722 951 q 954 767 903 858 q 1006 549 1006 676 q 992 411 1006 481 q 899 197 969 293 q 719 44 828 100 q 482 -12 611 -12 m 507 49 q 731 149 640 49 q 850 408 821 249 q 861 531 861 465 q 826 719 861 638 q 726 845 790 800 q 579 890 661 890 q 428 842 499 890 q 308 712 357 794 q 240 531 260 629 q 228 400 228 464 q 301 147 228 244 q 507 49 375 49 m 717 1039 q 672 1045 693 1039 q 624 1064 650 1051 q 578 1081 597 1075 q 539 1088 560 1088 q 431 1043 489 1088 q 418 1096 414 1063 q 585 1176 500 1176 q 631 1170 610 1176 q 683 1150 653 1164 q 723 1134 707 1139 q 757 1129 739 1129 q 843 1168 797 1129 q 878 1138 871 1154 q 717 1039 801 1039 m 656 1250 q 604 1272 626 1251 q 675 1368 644 1319 q 722 1453 706 1417 q 779 1458 761 1458 q 867 1440 828 1458 q 656 1250 765 1358 z "},"Ṏ":{"ha":1029,"x_min":83,"x_max":1006,"o":"m 482 -12 q 274 38 364 -12 q 133 181 183 88 q 83 396 83 274 q 96 521 83 457 q 191 740 118 642 q 372 894 264 838 q 606 951 481 951 q 813 905 722 951 q 954 767 903 858 q 1006 549 1006 676 q 992 411 1006 481 q 899 197 969 293 q 719 44 828 100 q 482 -12 611 -12 m 507 49 q 731 149 640 49 q 850 408 821 249 q 861 531 861 465 q 826 719 861 638 q 726 845 790 800 q 579 890 661 890 q 428 842 499 890 q 308 712 357 794 q 240 531 260 629 q 228 400 228 464 q 301 147 228 244 q 507 49 375 49 m 717 1039 q 672 1045 693 1039 q 624 1064 650 1051 q 578 1081 597 1075 q 539 1088 560 1088 q 431 1043 489 1088 q 418 1096 414 1063 q 585 1176 500 1176 q 631 1170 610 1176 q 683 1150 653 1164 q 723 1134 707 1139 q 757 1129 739 1129 q 843 1168 797 1129 q 878 1138 871 1154 q 717 1039 801 1039 m 544 1254 q 499 1272 515 1254 q 482 1321 482 1290 q 503 1382 482 1360 q 561 1404 525 1404 q 608 1388 590 1404 q 625 1346 625 1372 q 622 1322 625 1331 q 594 1272 614 1290 q 544 1254 574 1254 m 815 1256 q 769 1273 786 1256 q 753 1319 753 1290 q 774 1382 753 1360 q 835 1404 796 1404 q 880 1388 864 1404 q 896 1344 896 1372 q 894 1326 896 1333 q 868 1274 889 1292 q 815 1256 847 1256 z "},"Ȭ":{"ha":1029,"x_min":83,"x_max":1006,"o":"m 482 -12 q 274 38 364 -12 q 133 181 183 88 q 83 396 83 274 q 96 521 83 457 q 191 740 118 642 q 372 894 264 838 q 606 951 481 951 q 813 905 722 951 q 954 767 903 858 q 1006 549 1006 676 q 992 411 1006 481 q 899 197 969 293 q 719 44 828 100 q 482 -12 611 -12 m 507 49 q 731 149 640 49 q 850 408 821 249 q 861 531 861 465 q 826 719 861 638 q 726 845 790 800 q 579 890 661 890 q 428 842 499 890 q 308 712 357 794 q 240 531 260 629 q 228 400 228 464 q 301 147 228 244 q 507 49 375 49 m 717 1039 q 672 1045 693 1039 q 624 1064 650 1051 q 578 1081 597 1075 q 539 1088 560 1088 q 431 1043 489 1088 q 418 1096 414 1063 q 585 1176 500 1176 q 631 1170 610 1176 q 683 1150 653 1164 q 723 1134 707 1139 q 757 1129 739 1129 q 843 1168 797 1129 q 878 1138 871 1154 q 717 1039 801 1039 m 442 1297 q 444 1330 442 1310 q 454 1361 447 1350 l 938 1361 q 925 1301 938 1333 q 442 1297 639 1301 z "},"Œ":{"ha":1350,"x_min":82,"x_max":1368,"o":"m 1368 943 q 1357 767 1357 858 q 1358 717 1357 732 q 1289 707 1332 706 q 1274 809 1286 775 q 1220 860 1261 843 q 1092 876 1179 876 l 842 876 q 942 748 907 826 q 976 567 976 669 q 974 506 976 526 l 1000 506 q 1126 529 1088 506 q 1175 619 1164 553 q 1213 624 1196 624 q 1242 621 1219 624 q 1213 467 1222 540 q 1196 307 1200 382 q 1132 325 1153 311 l 1133 349 q 1103 423 1133 403 q 994 443 1074 443 l 965 443 l 958 411 q 878 208 932 299 q 743 63 824 118 l 983 63 q 1113 82 1065 63 q 1189 137 1161 101 q 1250 239 1217 172 q 1293 213 1297 231 q 1267 111 1286 171 q 1238 -4 1243 26 q 928 0 1156 0 q 711 -6 853 0 q 624 -10 690 -7 q 492 -12 558 -12 l 485 -12 l 482 -12 l 472 -12 l 472 -12 q 259 45 347 -10 q 126 192 171 100 q 82 396 82 283 q 96 521 82 461 q 196 746 124 649 q 372 897 268 843 q 596 951 475 950 l 600 951 l 601 951 l 607 951 q 744 946 656 951 q 975 939 890 939 q 1368 943 1253 939 m 825 408 q 838 544 838 482 q 806 727 838 649 q 715 848 774 806 q 578 890 657 890 q 362 788 451 890 q 240 531 272 686 q 226 399 226 467 q 258 221 226 300 q 353 95 290 142 q 504 49 415 49 q 715 147 635 49 q 825 408 794 244 z "},"P":{"ha":786,"x_min":39,"x_max":826,"o":"m 564 943 q 759 883 692 943 q 826 713 826 822 q 818 632 826 676 q 695 426 794 503 q 456 349 596 349 q 365 365 397 349 q 368 394 364 375 q 378 421 372 413 q 449 411 410 411 q 603 466 543 411 q 685 628 664 521 q 693 707 693 669 q 499 882 693 882 q 410 872 449 882 l 294 197 q 286 129 286 156 q 308 79 286 93 q 393 56 329 65 q 397 -4 400 35 q 221 0 328 0 q 39 -4 101 0 q 50 56 40 31 q 113 74 93 63 q 144 110 133 86 q 163 183 154 133 l 264 769 q 268 813 268 794 q 249 862 268 847 q 181 883 229 876 q 176 921 176 900 q 178 943 176 936 q 374 939 229 939 l 442 940 q 564 943 519 943 z "},"Þ":{"ha":814,"x_min":40,"x_max":793,"o":"m 536 750 q 729 690 665 750 q 793 533 793 631 q 789 478 793 507 q 731 351 778 413 q 608 249 685 289 q 432 210 531 210 q 339 229 367 210 q 354 282 339 261 q 425 272 381 272 q 574 319 511 272 q 657 476 636 365 q 661 529 661 504 q 613 653 661 608 q 463 697 564 697 q 381 688 421 697 l 292 176 q 286 125 286 149 q 309 75 286 89 q 393 56 332 61 q 397 18 397 39 q 396 -4 397 3 q 222 0 311 0 q 40 -4 118 0 q 51 56 40 31 q 110 70 90 60 q 142 104 131 81 q 161 176 153 128 l 263 763 q 268 810 268 799 q 248 862 268 847 q 179 883 228 876 q 176 918 176 906 q 178 943 176 935 q 344 939 256 939 q 514 943 431 939 q 501 883 511 906 q 444 865 464 876 q 413 831 424 854 q 393 763 401 808 l 390 749 l 536 750 z "},"Q":{"ha":1029,"x_min":83,"x_max":1040,"o":"m 1001 -167 q 1026 -185 1015 -172 q 1040 -212 1036 -197 q 977 -275 1022 -246 q 879 -304 932 -304 q 776 -278 819 -304 q 692 -186 733 -253 q 594 -65 643 -107 q 468 -12 544 -22 q 266 42 353 -10 q 131 184 179 93 q 83 396 83 275 q 96 521 83 457 q 191 740 118 642 q 372 894 264 838 q 606 951 481 951 q 813 905 722 951 q 954 767 903 858 q 1006 549 1006 676 q 992 411 1006 481 q 867 159 964 268 q 631 8 771 50 q 847 -129 733 -28 q 908 -177 886 -165 q 950 -189 929 -189 q 979 -183 965 -189 q 1001 -167 993 -176 m 240 531 q 228 400 228 464 q 301 147 228 244 q 507 49 375 49 q 731 149 640 49 q 850 408 821 249 q 861 531 861 465 q 826 719 861 638 q 726 845 790 800 q 579 890 661 890 q 428 842 499 890 q 308 712 357 794 q 240 531 260 629 z "},"R":{"ha":889,"x_min":40,"x_max":821,"o":"m 779 125 q 821 81 806 111 q 745 10 782 33 q 660 -12 708 -12 q 576 28 606 -12 q 521 161 547 69 q 467 306 496 244 q 403 424 439 368 q 333 425 374 422 l 290 169 q 285 117 285 142 q 300 73 285 85 q 358 56 315 61 q 361 -4 364 31 q 200 0 290 0 q 40 -4 94 0 q 51 56 40 32 q 113 72 92 60 q 144 108 133 83 q 163 183 154 133 l 264 769 q 268 808 268 793 q 248 861 268 844 q 179 883 228 878 q 176 915 176 894 q 178 943 176 933 q 356 939 246 939 q 478 942 403 939 l 551 943 q 747 890 672 943 q 821 738 821 836 q 815 685 821 721 q 727 529 797 590 q 525 443 657 468 q 585 349 558 399 q 646 211 611 299 q 732 103 689 103 q 756 107 746 103 q 779 125 765 111 m 344 490 q 401 488 367 488 q 590 538 519 488 q 676 676 660 588 q 682 732 682 703 q 637 845 682 807 q 515 883 592 883 q 410 871 460 883 l 344 490 z "},"Ŕ":{"ha":889,"x_min":40,"x_max":821,"o":"m 779 125 q 821 81 806 111 q 745 10 782 33 q 660 -12 708 -12 q 576 28 606 -12 q 521 161 547 69 q 467 306 496 244 q 403 424 439 368 q 333 425 374 422 l 290 169 q 285 117 285 142 q 300 73 285 85 q 358 56 315 61 q 361 -4 364 31 q 200 0 290 0 q 40 -4 94 0 q 51 56 40 32 q 113 72 92 60 q 144 108 133 83 q 163 183 154 133 l 264 769 q 268 808 268 793 q 248 861 268 844 q 179 883 228 878 q 176 915 176 894 q 178 943 176 933 q 356 939 246 939 q 478 942 403 939 l 551 943 q 747 890 672 943 q 821 738 821 836 q 815 685 821 721 q 727 529 797 590 q 525 443 657 468 q 585 349 558 399 q 646 211 611 299 q 732 103 689 103 q 756 107 746 103 q 779 125 765 111 m 344 490 q 401 488 367 488 q 590 538 519 488 q 676 676 660 588 q 682 732 682 703 q 637 845 682 807 q 515 883 592 883 q 410 871 460 883 l 344 490 m 514 1013 q 463 1035 485 1014 q 533 1131 503 1082 q 581 1215 564 1179 q 638 1221 619 1221 q 725 1203 686 1221 q 514 1013 624 1121 z "},"Ř":{"ha":889,"x_min":40,"x_max":821,"o":"m 779 125 q 821 81 806 111 q 745 10 782 33 q 660 -12 708 -12 q 576 28 606 -12 q 521 161 547 69 q 467 306 496 244 q 403 424 439 368 q 333 425 374 422 l 290 169 q 285 117 285 142 q 300 73 285 85 q 358 56 315 61 q 361 -4 364 31 q 200 0 290 0 q 40 -4 94 0 q 51 56 40 32 q 113 72 92 60 q 144 108 133 83 q 163 183 154 133 l 264 769 q 268 808 268 793 q 248 861 268 844 q 179 883 228 878 q 176 915 176 894 q 178 943 176 933 q 356 939 246 939 q 478 942 403 939 l 551 943 q 747 890 672 943 q 821 738 821 836 q 815 685 821 721 q 727 529 797 590 q 525 443 657 468 q 585 349 558 399 q 646 211 611 299 q 732 103 689 103 q 756 107 746 103 q 779 125 765 111 m 344 490 q 401 488 367 488 q 590 538 519 488 q 676 676 660 588 q 682 732 682 703 q 637 845 682 807 q 515 883 592 883 q 410 871 460 883 l 344 490 m 504 1018 q 333 1189 422 1121 q 364 1229 338 1222 q 549 1131 454 1175 q 736 1222 656 1171 q 759 1208 749 1218 q 775 1186 769 1199 q 550 1025 644 1104 q 504 1018 522 1014 z "},"Ŗ":{"ha":889,"x_min":40,"x_max":821,"o":"m 779 125 q 821 81 806 111 q 745 10 782 33 q 660 -12 708 -12 q 576 28 606 -12 q 521 161 547 69 q 467 306 496 244 q 403 424 439 368 q 333 425 374 422 l 290 169 q 285 117 285 142 q 300 73 285 85 q 358 56 315 61 q 361 -4 364 31 q 200 0 290 0 q 40 -4 94 0 q 51 56 40 32 q 113 72 92 60 q 144 108 133 83 q 163 183 154 133 l 264 769 q 268 808 268 793 q 248 861 268 844 q 179 883 228 878 q 176 915 176 894 q 178 943 176 933 q 356 939 246 939 q 478 942 403 939 l 551 943 q 747 890 672 943 q 821 738 821 836 q 815 685 821 721 q 727 529 797 590 q 525 443 657 468 q 585 349 558 399 q 646 211 611 299 q 732 103 689 103 q 756 107 746 103 q 779 125 765 111 m 344 490 q 401 488 367 488 q 590 538 519 488 q 676 676 660 588 q 682 732 682 703 q 637 845 682 807 q 515 883 592 883 q 410 871 460 883 l 344 490 m 329 -387 q 297 -356 303 -376 q 360 -286 338 -321 q 383 -225 383 -251 q 339 -185 383 -192 q 344 -140 338 -162 q 363 -101 350 -118 q 481 -60 432 -87 q 517 -125 517 -75 q 514 -153 517 -133 q 451 -280 501 -221 q 329 -387 401 -339 z "},"Ȑ":{"ha":889,"x_min":40,"x_max":821,"o":"m 779 125 q 821 81 806 111 q 745 10 782 33 q 660 -12 708 -12 q 576 28 606 -12 q 521 161 547 69 q 467 306 496 244 q 403 424 439 368 q 333 425 374 422 l 290 169 q 285 117 285 142 q 300 73 285 85 q 358 56 315 61 q 361 -4 364 31 q 200 0 290 0 q 40 -4 94 0 q 51 56 40 32 q 113 72 92 60 q 144 108 133 83 q 163 183 154 133 l 264 769 q 268 808 268 793 q 248 861 268 844 q 179 883 228 878 q 176 915 176 894 q 178 943 176 933 q 356 939 246 939 q 478 942 403 939 l 551 943 q 747 890 672 943 q 821 738 821 836 q 815 685 821 721 q 727 529 797 590 q 525 443 657 468 q 585 349 558 399 q 646 211 611 299 q 732 103 689 103 q 756 107 746 103 q 779 125 765 111 m 344 490 q 401 488 367 488 q 590 538 519 488 q 676 676 660 588 q 682 732 682 703 q 637 845 682 807 q 515 883 592 883 q 410 871 460 883 l 344 490 m 440 1008 q 317 1186 375 1114 q 383 1197 343 1197 q 440 1192 417 1197 l 453 1142 q 493 1003 479 1042 q 440 1008 476 1001 m 649 1008 q 525 1186 583 1114 q 592 1197 551 1197 q 649 1192 625 1197 l 661 1142 q 701 1003 688 1042 q 649 1008 685 1001 z "},"Ṛ":{"ha":889,"x_min":40,"x_max":821,"o":"m 779 125 q 821 81 806 111 q 745 10 782 33 q 660 -12 708 -12 q 576 28 606 -12 q 521 161 547 69 q 467 306 496 244 q 403 424 439 368 q 333 425 374 422 l 290 169 q 285 117 285 142 q 300 73 285 85 q 358 56 315 61 q 361 -4 364 31 q 200 0 290 0 q 40 -4 94 0 q 51 56 40 32 q 113 72 92 60 q 144 108 133 83 q 163 183 154 133 l 264 769 q 268 808 268 793 q 248 861 268 844 q 179 883 228 878 q 176 915 176 894 q 178 943 176 933 q 356 939 246 939 q 478 942 403 939 l 551 943 q 747 890 672 943 q 821 738 821 836 q 815 685 821 721 q 727 529 797 590 q 525 443 657 468 q 585 349 558 399 q 646 211 611 299 q 732 103 689 103 q 756 107 746 103 q 779 125 765 111 m 344 490 q 401 488 367 488 q 590 538 519 488 q 676 676 660 588 q 682 732 682 703 q 637 845 682 807 q 515 883 592 883 q 410 871 460 883 l 344 490 m 410 -296 q 363 -278 381 -296 q 344 -232 344 -261 q 369 -158 344 -187 q 432 -129 394 -129 q 478 -145 458 -129 q 497 -194 497 -161 q 473 -266 497 -236 q 410 -296 449 -296 z "},"Ȓ":{"ha":889,"x_min":40,"x_max":821,"o":"m 779 125 q 821 81 806 111 q 745 10 782 33 q 660 -12 708 -12 q 576 28 606 -12 q 521 161 547 69 q 467 306 496 244 q 403 424 439 368 q 333 425 374 422 l 290 169 q 285 117 285 142 q 300 73 285 85 q 358 56 315 61 q 361 -4 364 31 q 200 0 290 0 q 40 -4 94 0 q 51 56 40 32 q 113 72 92 60 q 144 108 133 83 q 163 183 154 133 l 264 769 q 268 808 268 793 q 248 861 268 844 q 179 883 228 878 q 176 915 176 894 q 178 943 176 933 q 356 939 246 939 q 478 942 403 939 l 551 943 q 747 890 672 943 q 821 738 821 836 q 815 685 821 721 q 727 529 797 590 q 525 443 657 468 q 585 349 558 399 q 646 211 611 299 q 732 103 689 103 q 756 107 746 103 q 779 125 765 111 m 344 490 q 401 488 367 488 q 590 538 519 488 q 676 676 660 588 q 682 732 682 703 q 637 845 682 807 q 515 883 592 883 q 410 871 460 883 l 344 490 m 588 1207 q 727 1169 679 1207 q 775 1063 775 1132 q 771 1017 775 1042 q 711 1004 739 1001 q 672 1086 713 1056 q 558 1117 631 1117 q 436 1087 486 1117 q 371 1004 386 1057 l 361 1004 q 325 1011 336 1004 q 411 1156 343 1106 q 588 1207 479 1207 z "},"Ṟ":{"ha":889,"x_min":40,"x_max":821,"o":"m 779 125 q 821 81 806 111 q 745 10 782 33 q 660 -12 708 -12 q 576 28 606 -12 q 521 161 547 69 q 467 306 496 244 q 403 424 439 368 q 333 425 374 422 l 290 169 q 285 117 285 142 q 300 73 285 85 q 358 56 315 61 q 361 -4 364 31 q 200 0 290 0 q 40 -4 94 0 q 51 56 40 32 q 113 72 92 60 q 144 108 133 83 q 163 183 154 133 l 264 769 q 268 808 268 793 q 248 861 268 844 q 179 883 228 878 q 176 915 176 894 q 178 943 176 933 q 356 939 246 939 q 478 942 403 939 l 551 943 q 747 890 672 943 q 821 738 821 836 q 815 685 821 721 q 727 529 797 590 q 525 443 657 468 q 585 349 558 399 q 646 211 611 299 q 732 103 689 103 q 756 107 746 103 q 779 125 765 111 m 344 490 q 401 488 367 488 q 590 538 519 488 q 676 676 660 588 q 682 732 682 703 q 637 845 682 807 q 515 883 592 883 q 410 871 460 883 l 344 490 m 174 -243 q 176 -210 174 -231 q 186 -179 179 -190 l 669 -179 q 657 -239 669 -208 q 174 -243 372 -239 z "},"S":{"ha":639,"x_min":3,"x_max":631,"o":"m 290 -12 q 125 13 190 -12 q 3 88 60 38 q 43 281 38 196 q 86 288 64 288 q 118 283 103 288 q 117 243 117 269 q 157 99 117 143 q 293 54 197 54 q 411 101 364 54 q 458 222 458 149 q 420 324 458 282 q 303 419 382 365 q 203 496 242 463 q 139 577 165 529 q 113 688 113 625 q 118 743 113 717 q 213 896 135 840 q 414 951 290 951 q 539 933 483 951 q 631 886 594 915 q 615 707 615 788 q 564 699 594 699 q 539 700 547 699 q 503 845 538 803 q 404 888 468 888 q 293 855 335 888 q 240 751 251 822 q 239 726 239 743 q 260 650 239 685 q 314 589 282 615 q 401 522 346 563 q 502 445 464 479 q 567 365 540 411 q 594 260 594 318 q 590 213 594 238 q 488 50 572 113 q 290 -12 404 -12 z "},"Ś":{"ha":639,"x_min":3,"x_max":631,"o":"m 290 -12 q 125 13 190 -12 q 3 88 60 38 q 43 281 38 196 q 86 288 64 288 q 118 283 103 288 q 117 243 117 269 q 157 99 117 143 q 293 54 197 54 q 411 101 364 54 q 458 222 458 149 q 420 324 458 282 q 303 419 382 365 q 203 496 242 463 q 139 577 165 529 q 113 688 113 625 q 118 743 113 717 q 213 896 135 840 q 414 951 290 951 q 539 933 483 951 q 631 886 594 915 q 615 707 615 788 q 564 699 594 699 q 539 700 547 699 q 503 845 538 803 q 404 888 468 888 q 293 855 335 888 q 240 751 251 822 q 239 726 239 743 q 260 650 239 685 q 314 589 282 615 q 401 522 346 563 q 502 445 464 479 q 567 365 540 411 q 594 260 594 318 q 590 213 594 238 q 488 50 572 113 q 290 -12 404 -12 m 404 1013 q 353 1035 375 1014 q 424 1131 393 1082 q 471 1215 454 1179 q 528 1221 510 1221 q 615 1203 576 1221 q 404 1013 514 1121 z "},"Ṥ":{"ha":639,"x_min":3,"x_max":631,"o":"m 290 -12 q 125 13 190 -12 q 3 88 60 38 q 43 281 38 196 q 86 288 64 288 q 118 283 103 288 q 117 243 117 269 q 157 99 117 143 q 293 54 197 54 q 411 101 364 54 q 458 222 458 149 q 420 324 458 282 q 303 419 382 365 q 203 496 242 463 q 139 577 165 529 q 113 688 113 625 q 118 743 113 717 q 213 896 135 840 q 414 951 290 951 q 539 933 483 951 q 631 886 594 915 q 615 707 615 788 q 564 699 594 699 q 539 700 547 699 q 503 845 538 803 q 404 888 468 888 q 293 855 335 888 q 240 751 251 822 q 239 726 239 743 q 260 650 239 685 q 314 589 282 615 q 401 522 346 563 q 502 445 464 479 q 567 365 540 411 q 594 260 594 318 q 590 213 594 238 q 488 50 572 113 q 290 -12 404 -12 m 404 1013 q 353 1035 375 1014 q 424 1131 393 1082 q 471 1215 454 1179 q 528 1221 510 1221 q 615 1203 576 1221 q 404 1013 514 1121 m 476 1283 q 431 1300 447 1283 q 414 1344 414 1317 q 440 1413 414 1388 q 503 1439 465 1439 q 550 1422 533 1439 q 567 1376 567 1406 q 541 1309 567 1335 q 476 1283 515 1283 z "},"Š":{"ha":639,"x_min":3,"x_max":665,"o":"m 290 -12 q 125 13 190 -12 q 3 88 60 38 q 43 281 38 196 q 86 288 64 288 q 118 283 103 288 q 117 243 117 269 q 157 99 117 143 q 293 54 197 54 q 411 101 364 54 q 458 222 458 149 q 420 324 458 282 q 303 419 382 365 q 203 496 242 463 q 139 577 165 529 q 113 688 113 625 q 118 743 113 717 q 213 896 135 840 q 414 951 290 951 q 539 933 483 951 q 631 886 594 915 q 615 707 615 788 q 564 699 594 699 q 539 700 547 699 q 503 845 538 803 q 404 888 468 888 q 293 855 335 888 q 240 751 251 822 q 239 726 239 743 q 260 650 239 685 q 314 589 282 615 q 401 522 346 563 q 502 445 464 479 q 567 365 540 411 q 594 260 594 318 q 590 213 594 238 q 488 50 572 113 q 290 -12 404 -12 m 394 1018 q 224 1189 313 1121 q 254 1229 228 1222 q 439 1131 344 1175 q 626 1222 546 1171 q 649 1208 639 1218 q 665 1186 660 1199 q 440 1025 535 1104 q 394 1018 413 1014 z "},"Ṧ":{"ha":639,"x_min":3,"x_max":665,"o":"m 290 -12 q 125 13 190 -12 q 3 88 60 38 q 43 281 38 196 q 86 288 64 288 q 118 283 103 288 q 117 243 117 269 q 157 99 117 143 q 293 54 197 54 q 411 101 364 54 q 458 222 458 149 q 420 324 458 282 q 303 419 382 365 q 203 496 242 463 q 139 577 165 529 q 113 688 113 625 q 118 743 113 717 q 213 896 135 840 q 414 951 290 951 q 539 933 483 951 q 631 886 594 915 q 615 707 615 788 q 564 699 594 699 q 539 700 547 699 q 503 845 538 803 q 404 888 468 888 q 293 855 335 888 q 240 751 251 822 q 239 726 239 743 q 260 650 239 685 q 314 589 282 615 q 401 522 346 563 q 502 445 464 479 q 567 365 540 411 q 594 260 594 318 q 590 213 594 238 q 488 50 572 113 q 290 -12 404 -12 m 394 1018 q 224 1189 313 1121 q 254 1229 228 1222 q 439 1131 344 1175 q 626 1222 546 1171 q 649 1208 639 1218 q 665 1186 660 1199 q 440 1025 535 1104 q 394 1018 413 1014 m 479 1292 q 433 1308 450 1292 q 417 1353 417 1325 q 442 1422 417 1396 q 506 1447 468 1447 q 553 1431 536 1447 q 569 1385 569 1414 q 544 1317 569 1343 q 479 1292 518 1292 z "},"Ş":{"ha":639,"x_min":3,"x_max":631,"o":"m 404 888 q 293 855 335 888 q 240 751 251 822 q 239 726 239 743 q 260 650 239 685 q 314 589 282 615 q 401 522 346 563 q 502 445 464 479 q 567 365 540 411 q 594 260 594 318 q 590 213 594 238 q 507 65 575 125 q 343 -8 439 6 l 288 -76 q 376 -179 376 -93 q 372 -219 376 -199 q 304 -308 360 -278 q 168 -336 249 -339 q 165 -312 165 -329 q 167 -292 165 -299 q 259 -270 226 -292 q 292 -204 292 -249 q 271 -157 292 -174 q 215 -140 250 -140 q 200 -103 200 -128 q 201 -87 200 -93 l 264 -12 q 116 17 176 -8 q 3 88 56 42 q 43 281 38 196 q 86 288 64 288 q 118 283 103 288 q 117 243 117 269 q 157 99 117 143 q 293 54 197 54 q 411 101 364 54 q 458 222 458 149 q 420 324 458 282 q 303 419 382 365 q 203 496 242 463 q 139 577 165 529 q 113 688 113 625 q 118 743 113 717 q 213 896 135 840 q 414 951 290 951 q 539 933 483 951 q 631 886 594 915 q 615 707 615 788 q 564 699 594 699 q 539 700 547 699 q 503 845 538 803 q 404 888 468 888 z "},"Ŝ":{"ha":639,"x_min":3,"x_max":649,"o":"m 290 -12 q 125 13 190 -12 q 3 88 60 38 q 43 281 38 196 q 86 288 64 288 q 118 283 103 288 q 117 243 117 269 q 157 99 117 143 q 293 54 197 54 q 411 101 364 54 q 458 222 458 149 q 420 324 458 282 q 303 419 382 365 q 203 496 242 463 q 139 577 165 529 q 113 688 113 625 q 118 743 113 717 q 213 896 135 840 q 414 951 290 951 q 539 933 483 951 q 631 886 594 915 q 615 707 615 788 q 564 699 594 699 q 539 700 547 699 q 503 845 538 803 q 404 888 468 888 q 293 855 335 888 q 240 751 251 822 q 239 726 239 743 q 260 650 239 685 q 314 589 282 615 q 401 522 346 563 q 502 445 464 479 q 567 365 540 411 q 594 260 594 318 q 590 213 594 238 q 488 50 572 113 q 290 -12 404 -12 m 254 1014 q 242 1041 246 1025 q 239 1071 238 1057 q 449 1218 319 1118 q 463 1219 454 1219 q 501 1211 482 1219 q 649 1051 546 1157 q 633 1030 644 1039 q 608 1018 622 1021 q 440 1107 526 1072 q 254 1014 369 1079 z "},"Ș":{"ha":639,"x_min":3,"x_max":631,"o":"m 290 -12 q 125 13 190 -12 q 3 88 60 38 q 43 281 38 196 q 86 288 64 288 q 118 283 103 288 q 117 243 117 269 q 157 99 117 143 q 293 54 197 54 q 411 101 364 54 q 458 222 458 149 q 420 324 458 282 q 303 419 382 365 q 203 496 242 463 q 139 577 165 529 q 113 688 113 625 q 118 743 113 717 q 213 896 135 840 q 414 951 290 951 q 539 933 483 951 q 631 886 594 915 q 615 707 615 788 q 564 699 594 699 q 539 700 547 699 q 503 845 538 803 q 404 888 468 888 q 293 855 335 888 q 240 751 251 822 q 239 726 239 743 q 260 650 239 685 q 314 589 282 615 q 401 522 346 563 q 502 445 464 479 q 567 365 540 411 q 594 260 594 318 q 590 213 594 238 q 488 50 572 113 q 290 -12 404 -12 m 168 -387 q 136 -356 142 -376 q 199 -286 176 -321 q 222 -225 222 -251 q 178 -185 222 -192 q 183 -140 176 -162 q 201 -101 189 -118 q 319 -60 271 -87 q 356 -125 356 -75 q 353 -153 356 -133 q 290 -280 340 -221 q 168 -387 240 -339 z "},"Ṡ":{"ha":639,"x_min":3,"x_max":631,"o":"m 290 -12 q 125 13 190 -12 q 3 88 60 38 q 43 281 38 196 q 86 288 64 288 q 118 283 103 288 q 117 243 117 269 q 157 99 117 143 q 293 54 197 54 q 411 101 364 54 q 458 222 458 149 q 420 324 458 282 q 303 419 382 365 q 203 496 242 463 q 139 577 165 529 q 113 688 113 625 q 118 743 113 717 q 213 896 135 840 q 414 951 290 951 q 539 933 483 951 q 631 886 594 915 q 615 707 615 788 q 564 699 594 699 q 539 700 547 699 q 503 845 538 803 q 404 888 468 888 q 293 855 335 888 q 240 751 251 822 q 239 726 239 743 q 260 650 239 685 q 314 589 282 615 q 401 522 346 563 q 502 445 464 479 q 567 365 540 411 q 594 260 594 318 q 590 213 594 238 q 488 50 572 113 q 290 -12 404 -12 m 422 1001 q 376 1018 393 1001 q 360 1063 360 1035 q 385 1131 360 1106 q 449 1157 411 1157 q 496 1140 479 1157 q 513 1094 513 1124 q 487 1027 513 1053 q 422 1001 461 1001 z "},"Ṣ":{"ha":639,"x_min":3,"x_max":631,"o":"m 290 -12 q 125 13 190 -12 q 3 88 60 38 q 43 281 38 196 q 86 288 64 288 q 118 283 103 288 q 117 243 117 269 q 157 99 117 143 q 293 54 197 54 q 411 101 364 54 q 458 222 458 149 q 420 324 458 282 q 303 419 382 365 q 203 496 242 463 q 139 577 165 529 q 113 688 113 625 q 118 743 113 717 q 213 896 135 840 q 414 951 290 951 q 539 933 483 951 q 631 886 594 915 q 615 707 615 788 q 564 699 594 699 q 539 700 547 699 q 503 845 538 803 q 404 888 468 888 q 293 855 335 888 q 240 751 251 822 q 239 726 239 743 q 260 650 239 685 q 314 589 282 615 q 401 522 346 563 q 502 445 464 479 q 567 365 540 411 q 594 260 594 318 q 590 213 594 238 q 488 50 572 113 q 290 -12 404 -12 m 249 -296 q 201 -278 219 -296 q 183 -232 183 -261 q 208 -158 183 -187 q 271 -129 233 -129 q 317 -145 297 -129 q 336 -194 336 -161 q 312 -266 336 -236 q 249 -296 288 -296 z "},"Ṩ":{"ha":639,"x_min":3,"x_max":631,"o":"m 290 -12 q 125 13 190 -12 q 3 88 60 38 q 43 281 38 196 q 86 288 64 288 q 118 283 103 288 q 117 243 117 269 q 157 99 117 143 q 293 54 197 54 q 411 101 364 54 q 458 222 458 149 q 420 324 458 282 q 303 419 382 365 q 203 496 242 463 q 139 577 165 529 q 113 688 113 625 q 118 743 113 717 q 213 896 135 840 q 414 951 290 951 q 539 933 483 951 q 631 886 594 915 q 615 707 615 788 q 564 699 594 699 q 539 700 547 699 q 503 845 538 803 q 404 888 468 888 q 293 855 335 888 q 240 751 251 822 q 239 726 239 743 q 260 650 239 685 q 314 589 282 615 q 401 522 346 563 q 502 445 464 479 q 567 365 540 411 q 594 260 594 318 q 590 213 594 238 q 488 50 572 113 q 290 -12 404 -12 m 249 -296 q 201 -278 219 -296 q 183 -232 183 -261 q 208 -158 183 -187 q 271 -129 233 -129 q 317 -145 297 -129 q 336 -194 336 -161 q 312 -266 336 -236 q 249 -296 288 -296 m 422 1001 q 376 1018 393 1001 q 360 1063 360 1035 q 385 1131 360 1106 q 449 1157 411 1157 q 496 1140 479 1157 q 513 1094 513 1124 q 487 1027 513 1053 q 422 1001 461 1001 z "},"ẞ":{"ha":926,"x_min":-31,"x_max":911,"o":"m 893 943 q 907 876 911 914 q 643 539 778 694 q 811 458 750 524 q 872 293 872 393 q 867 233 872 261 q 763 57 849 126 q 540 -12 676 -12 q 406 9 460 -12 q 311 74 351 31 q 338 167 326 117 q 353 257 350 217 q 400 265 372 265 q 432 261 419 265 q 429 194 429 211 q 453 85 429 117 q 540 54 478 54 q 657 108 608 54 q 717 228 706 161 q 722 285 722 267 q 490 496 722 464 q 479 550 475 519 q 743 882 611 697 l 674 883 q 556 886 599 886 q 386 820 453 886 q 292 589 319 754 l 193 0 q -31 -4 58 0 q -19 56 -31 31 q 40 70 19 60 q 71 104 60 81 q 90 176 82 128 l 163 593 q 303 865 196 786 q 583 943 411 943 q 671 940 618 943 l 740 939 q 893 943 846 939 z "},"Ə":{"ha":892,"x_min":72,"x_max":881,"o":"m 513 951 q 790 858 700 951 q 881 610 881 765 q 868 483 881 549 q 772 238 842 350 q 597 58 703 125 q 358 -10 490 -10 q 72 324 72 -10 q 79 435 72 372 q 108 475 92 460 l 724 471 q 739 621 739 551 q 494 888 739 888 q 344 842 396 888 q 257 692 293 796 q 185 713 213 697 q 215 893 213 822 q 355 936 272 921 q 513 951 438 951 m 385 57 q 576 141 489 57 q 710 410 664 225 q 232 397 418 410 q 217 263 217 321 q 258 111 217 165 q 385 57 299 57 z "},"T":{"ha":757,"x_min":88,"x_max":846,"o":"m 486 939 q 846 943 769 939 q 828 724 828 838 q 761 713 803 710 q 748 816 760 779 q 706 869 736 853 q 618 885 676 885 l 549 885 l 424 169 q 418 124 418 133 q 439 77 418 92 q 517 56 460 63 q 521 18 521 39 q 519 -4 521 4 q 342 0 461 0 q 160 -4 210 0 q 169 57 160 31 q 239 74 215 63 q 275 110 263 86 q 296 183 288 135 l 418 885 l 336 885 q 224 845 263 885 q 153 708 185 806 q 114 713 129 708 q 88 728 99 717 q 116 832 101 771 q 138 943 131 893 q 486 939 214 939 z "},"Ŧ":{"ha":757,"x_min":88,"x_max":846,"o":"m 486 939 q 846 943 769 939 q 828 724 828 838 q 761 713 803 710 q 748 816 760 779 q 706 869 736 853 q 618 885 676 885 l 549 885 l 485 518 l 674 518 q 658 449 674 472 q 472 450 588 450 l 424 169 q 418 124 418 133 q 439 77 418 92 q 517 56 460 63 q 521 18 521 39 q 519 -4 521 4 q 342 0 461 0 q 160 -4 210 0 q 169 57 160 31 q 239 74 215 63 q 275 110 263 86 q 296 183 288 135 l 342 450 l 211 449 q 165 447 196 447 q 170 487 165 464 q 181 518 175 510 l 354 518 l 418 885 l 336 885 q 224 845 263 885 q 153 708 185 806 q 114 713 129 708 q 88 728 99 717 q 116 832 101 771 q 138 943 131 893 q 486 939 214 939 z "},"Ť":{"ha":757,"x_min":88,"x_max":846,"o":"m 486 939 q 846 943 769 939 q 828 724 828 838 q 761 713 803 710 q 748 816 760 779 q 706 869 736 853 q 618 885 676 885 l 549 885 l 424 169 q 418 124 418 133 q 439 77 418 92 q 517 56 460 63 q 521 18 521 39 q 519 -4 521 4 q 342 0 461 0 q 160 -4 210 0 q 169 57 160 31 q 239 74 215 63 q 275 110 263 86 q 296 183 288 135 l 418 885 l 336 885 q 224 845 263 885 q 153 708 185 806 q 114 713 129 708 q 88 728 99 717 q 116 832 101 771 q 138 943 131 893 q 486 939 214 939 m 471 1018 q 300 1189 389 1121 q 331 1229 304 1222 q 515 1131 421 1175 q 703 1222 622 1171 q 726 1208 715 1218 q 742 1186 736 1199 q 517 1025 611 1104 q 471 1018 489 1014 z "},"Ţ":{"ha":757,"x_min":88,"x_max":846,"o":"m 486 939 q 846 943 769 939 q 828 724 828 838 q 761 713 803 710 q 748 816 760 779 q 706 869 736 853 q 618 885 676 885 l 549 885 l 424 169 q 418 124 418 133 q 439 77 418 92 q 517 56 460 63 q 521 18 521 39 q 519 -4 521 4 q 394 0 460 0 l 332 -76 q 421 -179 421 -93 q 417 -219 421 -199 q 349 -308 404 -278 q 213 -336 293 -339 q 210 -312 210 -329 q 211 -292 210 -299 q 303 -270 271 -292 q 336 -204 336 -249 q 315 -157 336 -174 q 260 -140 294 -140 q 244 -103 244 -128 q 246 -87 244 -93 l 318 0 q 160 -4 203 0 q 169 57 160 31 q 239 74 215 63 q 275 110 263 86 q 296 183 288 135 l 418 885 l 336 885 q 224 845 263 885 q 153 708 185 806 q 114 713 129 708 q 88 728 99 717 q 116 832 101 771 q 138 943 131 893 q 486 939 214 939 z "},"Ț":{"ha":757,"x_min":88,"x_max":846,"o":"m 486 939 q 846 943 769 939 q 828 724 828 838 q 761 713 803 710 q 748 816 760 779 q 706 869 736 853 q 618 885 676 885 l 549 885 l 424 169 q 418 124 418 133 q 439 77 418 92 q 517 56 460 63 q 521 18 521 39 q 519 -4 521 4 q 342 0 461 0 q 160 -4 210 0 q 169 57 160 31 q 239 74 215 63 q 275 110 263 86 q 296 183 288 135 l 418 885 l 336 885 q 224 845 263 885 q 153 708 185 806 q 114 713 129 708 q 88 728 99 717 q 116 832 101 771 q 138 943 131 893 q 486 939 214 939 m 213 -387 q 181 -356 186 -376 q 244 -286 221 -321 q 267 -225 267 -251 q 222 -185 267 -192 q 227 -140 221 -162 q 246 -101 233 -118 q 364 -60 315 -87 q 400 -125 400 -75 q 397 -153 400 -133 q 335 -280 385 -221 q 213 -387 285 -339 z "},"Ṭ":{"ha":757,"x_min":88,"x_max":846,"o":"m 486 939 q 846 943 769 939 q 828 724 828 838 q 761 713 803 710 q 748 816 760 779 q 706 869 736 853 q 618 885 676 885 l 549 885 l 424 169 q 418 124 418 133 q 439 77 418 92 q 517 56 460 63 q 521 18 521 39 q 519 -4 521 4 q 342 0 461 0 q 160 -4 210 0 q 169 57 160 31 q 239 74 215 63 q 275 110 263 86 q 296 183 288 135 l 418 885 l 336 885 q 224 845 263 885 q 153 708 185 806 q 114 713 129 708 q 88 728 99 717 q 116 832 101 771 q 138 943 131 893 q 486 939 214 939 m 293 -296 q 246 -278 264 -296 q 228 -232 228 -261 q 253 -158 228 -187 q 315 -129 278 -129 q 361 -145 342 -129 q 381 -194 381 -161 q 356 -266 381 -236 q 293 -296 332 -296 z "},"Ṯ":{"ha":757,"x_min":57,"x_max":846,"o":"m 486 939 q 846 943 769 939 q 828 724 828 838 q 761 713 803 710 q 748 816 760 779 q 706 869 736 853 q 618 885 676 885 l 549 885 l 424 169 q 418 124 418 133 q 439 77 418 92 q 517 56 460 63 q 521 18 521 39 q 519 -4 521 4 q 342 0 461 0 q 160 -4 210 0 q 169 57 160 31 q 239 74 215 63 q 275 110 263 86 q 296 183 288 135 l 418 885 l 336 885 q 224 845 263 885 q 153 708 185 806 q 114 713 129 708 q 88 728 99 717 q 116 832 101 771 q 138 943 131 893 q 486 939 214 939 m 57 -243 q 60 -210 57 -231 q 69 -179 63 -190 l 553 -179 q 540 -239 553 -208 q 57 -243 256 -239 z "},"U":{"ha":882,"x_min":128,"x_max":972,"o":"m 418 -12 q 200 56 272 -12 q 128 253 128 125 q 138 356 128 306 l 208 769 q 214 824 214 799 q 200 866 214 853 q 151 883 186 879 q 149 914 149 893 q 150 943 149 933 q 304 939 215 939 q 471 943 403 939 q 458 883 468 907 q 392 869 414 879 q 358 833 369 858 q 336 756 346 808 l 268 361 q 258 264 258 311 q 308 110 258 160 q 446 61 357 61 q 615 134 547 61 q 707 342 683 207 l 772 714 q 781 789 781 760 q 763 849 781 829 q 697 883 744 868 q 694 915 694 894 q 696 943 694 933 q 833 939 754 939 q 972 943 908 939 q 960 883 972 913 q 897 853 918 869 q 865 803 876 836 q 840 700 853 769 l 779 354 q 658 77 746 167 q 418 -12 569 -12 z "},"Ú":{"ha":882,"x_min":128,"x_max":972,"o":"m 418 -12 q 200 56 272 -12 q 128 253 128 125 q 138 356 128 306 l 208 769 q 214 824 214 799 q 200 866 214 853 q 151 883 186 879 q 149 914 149 893 q 150 943 149 933 q 304 939 215 939 q 471 943 403 939 q 458 883 468 907 q 392 869 414 879 q 358 833 369 858 q 336 756 346 808 l 268 361 q 258 264 258 311 q 308 110 258 160 q 446 61 357 61 q 615 134 547 61 q 707 342 683 207 l 772 714 q 781 789 781 760 q 763 849 781 829 q 697 883 744 868 q 694 915 694 894 q 696 943 694 933 q 833 939 754 939 q 972 943 908 939 q 960 883 972 913 q 897 853 918 869 q 865 803 876 836 q 840 700 853 769 l 779 354 q 658 77 746 167 q 418 -12 569 -12 m 578 1013 q 526 1035 549 1014 q 597 1131 567 1082 q 644 1215 628 1179 q 701 1221 683 1221 q 789 1203 750 1221 q 578 1013 688 1121 z "},"Ŭ":{"ha":882,"x_min":128,"x_max":972,"o":"m 418 -12 q 200 56 272 -12 q 128 253 128 125 q 138 356 128 306 l 208 769 q 214 824 214 799 q 200 866 214 853 q 151 883 186 879 q 149 914 149 893 q 150 943 149 933 q 304 939 215 939 q 471 943 403 939 q 458 883 468 907 q 392 869 414 879 q 358 833 369 858 q 336 756 346 808 l 268 361 q 258 264 258 311 q 308 110 258 160 q 446 61 357 61 q 615 134 547 61 q 707 342 683 207 l 772 714 q 781 789 781 760 q 763 849 781 829 q 697 883 744 868 q 694 915 694 894 q 696 943 694 933 q 833 939 754 939 q 972 943 908 939 q 960 883 972 913 q 897 853 918 869 q 865 803 876 836 q 840 700 853 769 l 779 354 q 658 77 746 167 q 418 -12 569 -12 m 579 1013 q 440 1050 488 1013 q 392 1157 392 1088 q 396 1203 392 1178 q 456 1215 428 1218 q 495 1133 454 1164 q 608 1103 536 1103 q 731 1133 681 1103 q 796 1215 781 1163 l 806 1215 q 842 1208 831 1215 q 756 1063 824 1114 q 579 1013 688 1013 z "},"Ǔ":{"ha":882,"x_min":128,"x_max":972,"o":"m 418 -12 q 200 56 272 -12 q 128 253 128 125 q 138 356 128 306 l 208 769 q 214 824 214 799 q 200 866 214 853 q 151 883 186 879 q 149 914 149 893 q 150 943 149 933 q 304 939 215 939 q 471 943 403 939 q 458 883 468 907 q 392 869 414 879 q 358 833 369 858 q 336 756 346 808 l 268 361 q 258 264 258 311 q 308 110 258 160 q 446 61 357 61 q 615 134 547 61 q 707 342 683 207 l 772 714 q 781 789 781 760 q 763 849 781 829 q 697 883 744 868 q 694 915 694 894 q 696 943 694 933 q 833 939 754 939 q 972 943 908 939 q 960 883 972 913 q 897 853 918 869 q 865 803 876 836 q 840 700 853 769 l 779 354 q 658 77 746 167 q 418 -12 569 -12 m 568 1018 q 397 1189 486 1121 q 428 1229 401 1222 q 613 1131 518 1175 q 800 1222 719 1171 q 823 1208 813 1218 q 839 1186 833 1199 q 614 1025 708 1104 q 568 1018 586 1014 z "},"Û":{"ha":882,"x_min":128,"x_max":972,"o":"m 418 -12 q 200 56 272 -12 q 128 253 128 125 q 138 356 128 306 l 208 769 q 214 824 214 799 q 200 866 214 853 q 151 883 186 879 q 149 914 149 893 q 150 943 149 933 q 304 939 215 939 q 471 943 403 939 q 458 883 468 907 q 392 869 414 879 q 358 833 369 858 q 336 756 346 808 l 268 361 q 258 264 258 311 q 308 110 258 160 q 446 61 357 61 q 615 134 547 61 q 707 342 683 207 l 772 714 q 781 789 781 760 q 763 849 781 829 q 697 883 744 868 q 694 915 694 894 q 696 943 694 933 q 833 939 754 939 q 972 943 908 939 q 960 883 972 913 q 897 853 918 869 q 865 803 876 836 q 840 700 853 769 l 779 354 q 658 77 746 167 q 418 -12 569 -12 m 428 1014 q 415 1041 419 1025 q 413 1071 411 1057 q 622 1218 493 1118 q 636 1219 628 1219 q 675 1211 656 1219 q 822 1051 719 1157 q 807 1030 818 1039 q 782 1018 796 1021 q 614 1107 700 1072 q 428 1014 543 1079 z "},"Ȕ":{"ha":882,"x_min":128,"x_max":972,"o":"m 418 -12 q 200 56 272 -12 q 128 253 128 125 q 138 356 128 306 l 208 769 q 214 824 214 799 q 200 866 214 853 q 151 883 186 879 q 149 914 149 893 q 150 943 149 933 q 304 939 215 939 q 471 943 403 939 q 458 883 468 907 q 392 869 414 879 q 358 833 369 858 q 336 756 346 808 l 268 361 q 258 264 258 311 q 308 110 258 160 q 446 61 357 61 q 615 134 547 61 q 707 342 683 207 l 772 714 q 781 789 781 760 q 763 849 781 829 q 697 883 744 868 q 694 915 694 894 q 696 943 694 933 q 833 939 754 939 q 972 943 908 939 q 960 883 972 913 q 897 853 918 869 q 865 803 876 836 q 840 700 853 769 l 779 354 q 658 77 746 167 q 418 -12 569 -12 m 504 1008 q 381 1186 439 1114 q 447 1197 407 1197 q 504 1192 481 1197 l 517 1142 q 557 1003 543 1042 q 504 1008 540 1001 m 713 1008 q 589 1186 647 1114 q 656 1197 615 1197 q 713 1192 689 1197 l 725 1142 q 765 1003 751 1042 q 713 1008 749 1001 z "},"Ü":{"ha":882,"x_min":128,"x_max":972,"o":"m 418 -12 q 200 56 272 -12 q 128 253 128 125 q 138 356 128 306 l 208 769 q 214 824 214 799 q 200 866 214 853 q 151 883 186 879 q 149 914 149 893 q 150 943 149 933 q 304 939 215 939 q 471 943 403 939 q 458 883 468 907 q 392 869 414 879 q 358 833 369 858 q 336 756 346 808 l 268 361 q 258 264 258 311 q 308 110 258 160 q 446 61 357 61 q 615 134 547 61 q 707 342 683 207 l 772 714 q 781 789 781 760 q 763 849 781 829 q 697 883 744 868 q 694 915 694 894 q 696 943 694 933 q 833 939 754 939 q 972 943 908 939 q 960 883 972 913 q 897 853 918 869 q 865 803 876 836 q 840 700 853 769 l 779 354 q 658 77 746 167 q 418 -12 569 -12 m 467 1017 q 421 1035 438 1017 q 404 1083 404 1053 q 426 1144 404 1122 q 483 1167 447 1167 q 530 1151 513 1167 q 547 1108 547 1135 q 544 1085 547 1093 q 516 1035 536 1053 q 467 1017 496 1017 m 738 1018 q 692 1035 708 1018 q 675 1082 675 1053 q 697 1144 675 1122 q 757 1167 718 1167 q 802 1151 786 1167 q 818 1107 818 1135 q 817 1089 818 1096 q 790 1036 811 1054 q 738 1018 769 1018 z "},"Ǘ":{"ha":882,"x_min":128,"x_max":972,"o":"m 418 -12 q 200 56 272 -12 q 128 253 128 125 q 138 356 128 306 l 208 769 q 214 824 214 799 q 200 866 214 853 q 151 883 186 879 q 149 914 149 893 q 150 943 149 933 q 304 939 215 939 q 471 943 403 939 q 458 883 468 907 q 392 869 414 879 q 358 833 369 858 q 336 756 346 808 l 268 361 q 258 264 258 311 q 308 110 258 160 q 446 61 357 61 q 615 134 547 61 q 707 342 683 207 l 772 714 q 781 789 781 760 q 763 849 781 829 q 697 883 744 868 q 694 915 694 894 q 696 943 694 933 q 833 939 754 939 q 972 943 908 939 q 960 883 972 913 q 897 853 918 869 q 865 803 876 836 q 840 700 853 769 l 779 354 q 658 77 746 167 q 418 -12 569 -12 m 467 1017 q 421 1035 438 1017 q 404 1083 404 1053 q 426 1144 404 1122 q 483 1167 447 1167 q 530 1151 513 1167 q 547 1108 547 1135 q 544 1085 547 1093 q 516 1035 536 1053 q 467 1017 496 1017 m 738 1018 q 692 1035 708 1018 q 675 1082 675 1053 q 697 1144 675 1122 q 757 1167 718 1167 q 802 1151 786 1167 q 818 1107 818 1135 q 817 1089 818 1096 q 790 1036 811 1054 q 738 1018 769 1018 m 610 1217 q 558 1239 581 1218 q 629 1335 599 1286 q 676 1419 660 1383 q 733 1425 715 1425 q 821 1407 782 1425 q 610 1217 719 1325 z "},"Ǚ":{"ha":882,"x_min":128,"x_max":972,"o":"m 418 -12 q 200 56 272 -12 q 128 253 128 125 q 138 356 128 306 l 208 769 q 214 824 214 799 q 200 866 214 853 q 151 883 186 879 q 149 914 149 893 q 150 943 149 933 q 304 939 215 939 q 471 943 403 939 q 458 883 468 907 q 392 869 414 879 q 358 833 369 858 q 336 756 346 808 l 268 361 q 258 264 258 311 q 308 110 258 160 q 446 61 357 61 q 615 134 547 61 q 707 342 683 207 l 772 714 q 781 789 781 760 q 763 849 781 829 q 697 883 744 868 q 694 915 694 894 q 696 943 694 933 q 833 939 754 939 q 972 943 908 939 q 960 883 972 913 q 897 853 918 869 q 865 803 876 836 q 840 700 853 769 l 779 354 q 658 77 746 167 q 418 -12 569 -12 m 467 1017 q 421 1035 438 1017 q 404 1083 404 1053 q 426 1144 404 1122 q 483 1167 447 1167 q 530 1151 513 1167 q 547 1108 547 1135 q 544 1085 547 1093 q 516 1035 536 1053 q 467 1017 496 1017 m 738 1018 q 692 1035 708 1018 q 675 1082 675 1053 q 697 1144 675 1122 q 757 1167 718 1167 q 802 1151 786 1167 q 818 1107 818 1135 q 817 1089 818 1096 q 790 1036 811 1054 q 738 1018 769 1018 m 600 1222 q 429 1393 518 1325 q 460 1433 433 1426 q 644 1335 550 1379 q 832 1426 751 1375 q 855 1413 844 1422 q 871 1390 865 1403 q 646 1229 740 1308 q 600 1222 618 1218 z "},"Ǜ":{"ha":882,"x_min":128,"x_max":972,"o":"m 418 -12 q 200 56 272 -12 q 128 253 128 125 q 138 356 128 306 l 208 769 q 214 824 214 799 q 200 866 214 853 q 151 883 186 879 q 149 914 149 893 q 150 943 149 933 q 304 939 215 939 q 471 943 403 939 q 458 883 468 907 q 392 869 414 879 q 358 833 369 858 q 336 756 346 808 l 268 361 q 258 264 258 311 q 308 110 258 160 q 446 61 357 61 q 615 134 547 61 q 707 342 683 207 l 772 714 q 781 789 781 760 q 763 849 781 829 q 697 883 744 868 q 694 915 694 894 q 696 943 694 933 q 833 939 754 939 q 972 943 908 939 q 960 883 972 913 q 897 853 918 869 q 865 803 876 836 q 840 700 853 769 l 779 354 q 658 77 746 167 q 418 -12 569 -12 m 467 1017 q 421 1035 438 1017 q 404 1083 404 1053 q 426 1144 404 1122 q 483 1167 447 1167 q 530 1151 513 1167 q 547 1108 547 1135 q 544 1085 547 1093 q 516 1035 536 1053 q 467 1017 496 1017 m 738 1018 q 692 1035 708 1018 q 675 1082 675 1053 q 697 1144 675 1122 q 757 1167 718 1167 q 802 1151 786 1167 q 818 1107 818 1135 q 817 1089 818 1096 q 790 1036 811 1054 q 738 1018 769 1018 m 681 1232 q 650 1226 667 1226 q 619 1232 636 1226 q 483 1408 575 1307 q 556 1419 517 1419 q 613 1413 582 1419 q 681 1232 639 1311 z "},"Ǖ":{"ha":882,"x_min":128,"x_max":972,"o":"m 418 -12 q 200 56 272 -12 q 128 253 128 125 q 138 356 128 306 l 208 769 q 214 824 214 799 q 200 866 214 853 q 151 883 186 879 q 149 914 149 893 q 150 943 149 933 q 304 939 215 939 q 471 943 403 939 q 458 883 468 907 q 392 869 414 879 q 358 833 369 858 q 336 756 346 808 l 268 361 q 258 264 258 311 q 308 110 258 160 q 446 61 357 61 q 615 134 547 61 q 707 342 683 207 l 772 714 q 781 789 781 760 q 763 849 781 829 q 697 883 744 868 q 694 915 694 894 q 696 943 694 933 q 833 939 754 939 q 972 943 908 939 q 960 883 972 913 q 897 853 918 869 q 865 803 876 836 q 840 700 853 769 l 779 354 q 658 77 746 167 q 418 -12 569 -12 m 467 1017 q 421 1035 438 1017 q 404 1083 404 1053 q 426 1144 404 1122 q 483 1167 447 1167 q 530 1151 513 1167 q 547 1108 547 1135 q 544 1085 547 1093 q 516 1035 536 1053 q 467 1017 496 1017 m 738 1018 q 692 1035 708 1018 q 675 1082 675 1053 q 697 1144 675 1122 q 757 1167 718 1167 q 802 1151 786 1167 q 818 1107 818 1135 q 817 1089 818 1096 q 790 1036 811 1054 q 738 1018 769 1018 m 396 1264 q 399 1297 396 1276 q 408 1328 401 1317 l 892 1328 q 879 1268 892 1300 q 396 1264 593 1268 z "},"Ụ":{"ha":882,"x_min":128,"x_max":972,"o":"m 418 -12 q 200 56 272 -12 q 128 253 128 125 q 138 356 128 306 l 208 769 q 214 824 214 799 q 200 866 214 853 q 151 883 186 879 q 149 914 149 893 q 150 943 149 933 q 304 939 215 939 q 471 943 403 939 q 458 883 468 907 q 392 869 414 879 q 358 833 369 858 q 336 756 346 808 l 268 361 q 258 264 258 311 q 308 110 258 160 q 446 61 357 61 q 615 134 547 61 q 707 342 683 207 l 772 714 q 781 789 781 760 q 763 849 781 829 q 697 883 744 868 q 694 915 694 894 q 696 943 694 933 q 833 939 754 939 q 972 943 908 939 q 960 883 972 913 q 897 853 918 869 q 865 803 876 836 q 840 700 853 769 l 779 354 q 658 77 746 167 q 418 -12 569 -12 m 367 -296 q 319 -278 338 -296 q 301 -232 301 -261 q 326 -158 301 -187 q 389 -129 351 -129 q 435 -145 415 -129 q 454 -194 454 -161 q 430 -266 454 -236 q 367 -296 406 -296 z "},"Ù":{"ha":882,"x_min":128,"x_max":972,"o":"m 418 -12 q 200 56 272 -12 q 128 253 128 125 q 138 356 128 306 l 208 769 q 214 824 214 799 q 200 866 214 853 q 151 883 186 879 q 149 914 149 893 q 150 943 149 933 q 304 939 215 939 q 471 943 403 939 q 458 883 468 907 q 392 869 414 879 q 358 833 369 858 q 336 756 346 808 l 268 361 q 258 264 258 311 q 308 110 258 160 q 446 61 357 61 q 615 134 547 61 q 707 342 683 207 l 772 714 q 781 789 781 760 q 763 849 781 829 q 697 883 744 868 q 694 915 694 894 q 696 943 694 933 q 833 939 754 939 q 972 943 908 939 q 960 883 972 913 q 897 853 918 869 q 865 803 876 836 q 840 700 853 769 l 779 354 q 658 77 746 167 q 418 -12 569 -12 m 649 1028 q 618 1022 635 1022 q 588 1028 604 1022 q 451 1204 543 1103 q 524 1215 485 1215 q 581 1208 550 1215 q 649 1028 607 1107 z "},"Ủ":{"ha":882,"x_min":128,"x_max":972,"o":"m 418 -12 q 200 56 272 -12 q 128 253 128 125 q 138 356 128 306 l 208 769 q 214 824 214 799 q 200 866 214 853 q 151 883 186 879 q 149 914 149 893 q 150 943 149 933 q 304 939 215 939 q 471 943 403 939 q 458 883 468 907 q 392 869 414 879 q 358 833 369 858 q 336 756 346 808 l 268 361 q 258 264 258 311 q 308 110 258 160 q 446 61 357 61 q 615 134 547 61 q 707 342 683 207 l 772 714 q 781 789 781 760 q 763 849 781 829 q 697 883 744 868 q 694 915 694 894 q 696 943 694 933 q 833 939 754 939 q 972 943 908 939 q 960 883 972 913 q 897 853 918 869 q 865 803 876 836 q 840 700 853 769 l 779 354 q 658 77 746 167 q 418 -12 569 -12 m 561 1018 q 553 1050 553 1033 q 567 1090 553 1076 q 610 1119 581 1104 q 657 1158 649 1138 q 658 1168 658 1161 q 629 1186 658 1186 q 546 1103 574 1186 q 524 1108 540 1104 q 499 1117 508 1113 q 482 1128 489 1121 q 489 1149 485 1135 q 495 1174 493 1163 q 496 1200 497 1186 q 640 1236 568 1236 q 726 1218 696 1236 q 756 1168 756 1200 q 753 1151 756 1163 q 727 1111 746 1126 q 678 1081 708 1096 q 641 1059 653 1068 q 625 1038 629 1050 q 623 1028 625 1033 q 622 1015 621 1024 q 597 1014 615 1014 q 561 1018 578 1014 z "},"Ư":{"ha":965,"x_min":128,"x_max":1118,"o":"m 1093 1113 q 1118 1032 1118 1074 q 1074 931 1118 969 q 960 883 1029 892 q 897 853 918 869 q 865 803 876 836 q 840 700 853 769 l 779 354 q 658 77 746 167 q 418 -12 569 -12 q 200 56 272 -12 q 128 253 128 125 q 138 356 128 306 l 208 769 q 214 824 214 799 q 200 866 214 853 q 151 883 186 879 q 149 914 149 893 q 150 943 149 933 q 304 939 215 939 q 471 943 403 939 q 458 883 468 907 q 392 869 414 879 q 358 833 369 858 q 336 756 346 808 l 268 361 q 258 264 258 311 q 308 110 258 160 q 446 61 357 61 q 615 134 547 61 q 707 342 683 207 l 772 714 q 781 789 781 760 q 763 849 781 829 q 697 883 744 868 q 694 915 694 894 q 696 943 694 933 q 833 939 754 939 q 928 940 892 939 q 984 962 964 944 q 1011 1014 1004 979 q 1015 1049 1015 1031 q 1010 1099 1015 1063 q 1051 1110 1025 1106 q 1093 1113 1078 1114 z "},"Ứ":{"ha":965,"x_min":128,"x_max":1118,"o":"m 1093 1113 q 1118 1032 1118 1074 q 1074 931 1118 969 q 960 883 1029 892 q 897 853 918 869 q 865 803 876 836 q 840 700 853 769 l 779 354 q 658 77 746 167 q 418 -12 569 -12 q 200 56 272 -12 q 128 253 128 125 q 138 356 128 306 l 208 769 q 214 824 214 799 q 200 866 214 853 q 151 883 186 879 q 149 914 149 893 q 150 943 149 933 q 304 939 215 939 q 471 943 403 939 q 458 883 468 907 q 392 869 414 879 q 358 833 369 858 q 336 756 346 808 l 268 361 q 258 264 258 311 q 308 110 258 160 q 446 61 357 61 q 615 134 547 61 q 707 342 683 207 l 772 714 q 781 789 781 760 q 763 849 781 829 q 697 883 744 868 q 694 915 694 894 q 696 943 694 933 q 833 939 754 939 q 928 940 892 939 q 984 962 964 944 q 1011 1014 1004 979 q 1015 1049 1015 1031 q 1010 1099 1015 1063 q 1051 1110 1025 1106 q 1093 1113 1078 1114 m 578 1013 q 526 1035 549 1014 q 597 1131 567 1082 q 644 1215 628 1179 q 701 1221 683 1221 q 789 1203 750 1221 q 578 1013 688 1121 z "},"Ự":{"ha":965,"x_min":128,"x_max":1118,"o":"m 1093 1113 q 1118 1032 1118 1074 q 1074 931 1118 969 q 960 883 1029 892 q 897 853 918 869 q 865 803 876 836 q 840 700 853 769 l 779 354 q 658 77 746 167 q 418 -12 569 -12 q 200 56 272 -12 q 128 253 128 125 q 138 356 128 306 l 208 769 q 214 824 214 799 q 200 866 214 853 q 151 883 186 879 q 149 914 149 893 q 150 943 149 933 q 304 939 215 939 q 471 943 403 939 q 458 883 468 907 q 392 869 414 879 q 358 833 369 858 q 336 756 346 808 l 268 361 q 258 264 258 311 q 308 110 258 160 q 446 61 357 61 q 615 134 547 61 q 707 342 683 207 l 772 714 q 781 789 781 760 q 763 849 781 829 q 697 883 744 868 q 694 915 694 894 q 696 943 694 933 q 833 939 754 939 q 928 940 892 939 q 984 962 964 944 q 1011 1014 1004 979 q 1015 1049 1015 1031 q 1010 1099 1015 1063 q 1051 1110 1025 1106 q 1093 1113 1078 1114 m 367 -296 q 319 -278 338 -296 q 301 -232 301 -261 q 326 -158 301 -187 q 389 -129 351 -129 q 435 -145 415 -129 q 454 -194 454 -161 q 430 -266 454 -236 q 367 -296 406 -296 z "},"Ừ":{"ha":965,"x_min":128,"x_max":1118,"o":"m 1093 1113 q 1118 1032 1118 1074 q 1074 931 1118 969 q 960 883 1029 892 q 897 853 918 869 q 865 803 876 836 q 840 700 853 769 l 779 354 q 658 77 746 167 q 418 -12 569 -12 q 200 56 272 -12 q 128 253 128 125 q 138 356 128 306 l 208 769 q 214 824 214 799 q 200 866 214 853 q 151 883 186 879 q 149 914 149 893 q 150 943 149 933 q 304 939 215 939 q 471 943 403 939 q 458 883 468 907 q 392 869 414 879 q 358 833 369 858 q 336 756 346 808 l 268 361 q 258 264 258 311 q 308 110 258 160 q 446 61 357 61 q 615 134 547 61 q 707 342 683 207 l 772 714 q 781 789 781 760 q 763 849 781 829 q 697 883 744 868 q 694 915 694 894 q 696 943 694 933 q 833 939 754 939 q 928 940 892 939 q 984 962 964 944 q 1011 1014 1004 979 q 1015 1049 1015 1031 q 1010 1099 1015 1063 q 1051 1110 1025 1106 q 1093 1113 1078 1114 m 649 1028 q 618 1022 635 1022 q 588 1028 604 1022 q 451 1204 543 1103 q 524 1215 485 1215 q 581 1208 550 1215 q 649 1028 607 1107 z "},"Ử":{"ha":965,"x_min":128,"x_max":1118,"o":"m 1093 1113 q 1118 1032 1118 1074 q 1074 931 1118 969 q 960 883 1029 892 q 897 853 918 869 q 865 803 876 836 q 840 700 853 769 l 779 354 q 658 77 746 167 q 418 -12 569 -12 q 200 56 272 -12 q 128 253 128 125 q 138 356 128 306 l 208 769 q 214 824 214 799 q 200 866 214 853 q 151 883 186 879 q 149 914 149 893 q 150 943 149 933 q 304 939 215 939 q 471 943 403 939 q 458 883 468 907 q 392 869 414 879 q 358 833 369 858 q 336 756 346 808 l 268 361 q 258 264 258 311 q 308 110 258 160 q 446 61 357 61 q 615 134 547 61 q 707 342 683 207 l 772 714 q 781 789 781 760 q 763 849 781 829 q 697 883 744 868 q 694 915 694 894 q 696 943 694 933 q 833 939 754 939 q 928 940 892 939 q 984 962 964 944 q 1011 1014 1004 979 q 1015 1049 1015 1031 q 1010 1099 1015 1063 q 1051 1110 1025 1106 q 1093 1113 1078 1114 m 561 1018 q 553 1050 553 1033 q 567 1090 553 1076 q 610 1119 581 1104 q 657 1158 649 1138 q 658 1168 658 1161 q 629 1186 658 1186 q 546 1103 574 1186 q 524 1108 540 1104 q 499 1117 508 1113 q 482 1128 489 1121 q 489 1149 485 1135 q 495 1174 493 1163 q 496 1200 497 1186 q 640 1236 568 1236 q 726 1218 696 1236 q 756 1168 756 1200 q 753 1151 756 1163 q 727 1111 746 1126 q 678 1081 708 1096 q 641 1059 653 1068 q 625 1038 629 1050 q 623 1028 625 1033 q 622 1015 621 1024 q 597 1014 615 1014 q 561 1018 578 1014 z "},"Ữ":{"ha":965,"x_min":128,"x_max":1118,"o":"m 1093 1113 q 1118 1032 1118 1074 q 1074 931 1118 969 q 960 883 1029 892 q 897 853 918 869 q 865 803 876 836 q 840 700 853 769 l 779 354 q 658 77 746 167 q 418 -12 569 -12 q 200 56 272 -12 q 128 253 128 125 q 138 356 128 306 l 208 769 q 214 824 214 799 q 200 866 214 853 q 151 883 186 879 q 149 914 149 893 q 150 943 149 933 q 304 939 215 939 q 471 943 403 939 q 458 883 468 907 q 392 869 414 879 q 358 833 369 858 q 336 756 346 808 l 268 361 q 258 264 258 311 q 308 110 258 160 q 446 61 357 61 q 615 134 547 61 q 707 342 683 207 l 772 714 q 781 789 781 760 q 763 849 781 829 q 697 883 744 868 q 694 915 694 894 q 696 943 694 933 q 833 939 754 939 q 928 940 892 939 q 984 962 964 944 q 1011 1014 1004 979 q 1015 1049 1015 1031 q 1010 1099 1015 1063 q 1051 1110 1025 1106 q 1093 1113 1078 1114 m 685 1039 q 640 1045 661 1039 q 592 1064 618 1051 q 547 1081 565 1075 q 507 1088 528 1088 q 399 1043 457 1088 q 386 1096 382 1063 q 553 1176 468 1176 q 599 1170 578 1176 q 651 1150 621 1164 q 691 1134 675 1139 q 725 1129 707 1129 q 811 1168 765 1129 q 846 1138 839 1154 q 685 1039 769 1039 z "},"Ű":{"ha":882,"x_min":128,"x_max":972,"o":"m 418 -12 q 200 56 272 -12 q 128 253 128 125 q 138 356 128 306 l 208 769 q 214 824 214 799 q 200 866 214 853 q 151 883 186 879 q 149 914 149 893 q 150 943 149 933 q 304 939 215 939 q 471 943 403 939 q 458 883 468 907 q 392 869 414 879 q 358 833 369 858 q 336 756 346 808 l 268 361 q 258 264 258 311 q 308 110 258 160 q 446 61 357 61 q 615 134 547 61 q 707 342 683 207 l 772 714 q 781 789 781 760 q 763 849 781 829 q 697 883 744 868 q 694 915 694 894 q 696 943 694 933 q 833 939 754 939 q 972 943 908 939 q 960 883 972 913 q 897 853 918 869 q 865 803 876 836 q 840 700 853 769 l 779 354 q 658 77 746 167 q 418 -12 569 -12 m 499 1019 q 447 1042 469 1021 q 518 1138 488 1089 q 565 1222 549 1186 q 622 1228 604 1228 q 710 1210 671 1228 q 499 1019 608 1128 m 721 1019 q 669 1042 692 1021 q 740 1138 710 1089 q 788 1222 771 1186 q 844 1228 826 1228 q 932 1210 893 1228 q 721 1019 831 1128 z "},"Ȗ":{"ha":882,"x_min":128,"x_max":972,"o":"m 418 -12 q 200 56 272 -12 q 128 253 128 125 q 138 356 128 306 l 208 769 q 214 824 214 799 q 200 866 214 853 q 151 883 186 879 q 149 914 149 893 q 150 943 149 933 q 304 939 215 939 q 471 943 403 939 q 458 883 468 907 q 392 869 414 879 q 358 833 369 858 q 336 756 346 808 l 268 361 q 258 264 258 311 q 308 110 258 160 q 446 61 357 61 q 615 134 547 61 q 707 342 683 207 l 772 714 q 781 789 781 760 q 763 849 781 829 q 697 883 744 868 q 694 915 694 894 q 696 943 694 933 q 833 939 754 939 q 972 943 908 939 q 960 883 972 913 q 897 853 918 869 q 865 803 876 836 q 840 700 853 769 l 779 354 q 658 77 746 167 q 418 -12 569 -12 m 651 1207 q 791 1169 743 1207 q 839 1063 839 1132 q 835 1017 839 1042 q 775 1004 803 1001 q 735 1086 776 1056 q 622 1117 694 1117 q 500 1087 550 1117 q 435 1004 450 1057 l 425 1004 q 389 1011 400 1004 q 475 1156 407 1106 q 651 1207 543 1207 z "},"Ū":{"ha":882,"x_min":128,"x_max":972,"o":"m 418 -12 q 200 56 272 -12 q 128 253 128 125 q 138 356 128 306 l 208 769 q 214 824 214 799 q 200 866 214 853 q 151 883 186 879 q 149 914 149 893 q 150 943 149 933 q 304 939 215 939 q 471 943 403 939 q 458 883 468 907 q 392 869 414 879 q 358 833 369 858 q 336 756 346 808 l 268 361 q 258 264 258 311 q 308 110 258 160 q 446 61 357 61 q 615 134 547 61 q 707 342 683 207 l 772 714 q 781 789 781 760 q 763 849 781 829 q 697 883 744 868 q 694 915 694 894 q 696 943 694 933 q 833 939 754 939 q 972 943 908 939 q 960 883 972 913 q 897 853 918 869 q 865 803 876 836 q 840 700 853 769 l 779 354 q 658 77 746 167 q 418 -12 569 -12 m 364 1060 q 367 1092 364 1072 q 376 1124 369 1113 l 860 1124 q 847 1064 860 1096 q 364 1060 561 1064 z "},"Ṻ":{"ha":882,"x_min":128,"x_max":972,"o":"m 418 -12 q 200 56 272 -12 q 128 253 128 125 q 138 356 128 306 l 208 769 q 214 824 214 799 q 200 866 214 853 q 151 883 186 879 q 149 914 149 893 q 150 943 149 933 q 304 939 215 939 q 471 943 403 939 q 458 883 468 907 q 392 869 414 879 q 358 833 369 858 q 336 756 346 808 l 268 361 q 258 264 258 311 q 308 110 258 160 q 446 61 357 61 q 615 134 547 61 q 707 342 683 207 l 772 714 q 781 789 781 760 q 763 849 781 829 q 697 883 744 868 q 694 915 694 894 q 696 943 694 933 q 833 939 754 939 q 972 943 908 939 q 960 883 972 913 q 897 853 918 869 q 865 803 876 836 q 840 700 853 769 l 779 354 q 658 77 746 167 q 418 -12 569 -12 m 364 1060 q 367 1092 364 1072 q 376 1124 369 1113 l 860 1124 q 847 1064 860 1096 q 364 1060 561 1064 m 503 1201 q 457 1219 474 1201 q 440 1268 440 1238 q 462 1329 440 1307 q 519 1351 483 1351 q 566 1335 549 1351 q 583 1293 583 1319 q 581 1269 583 1278 q 552 1219 572 1238 q 503 1201 532 1201 m 774 1203 q 728 1220 744 1203 q 711 1267 711 1238 q 733 1329 711 1307 q 793 1351 754 1351 q 838 1335 822 1351 q 854 1292 854 1319 q 853 1274 854 1281 q 826 1221 847 1239 q 774 1203 806 1203 z "},"Ų":{"ha":882,"x_min":128,"x_max":972,"o":"m 833 939 q 972 943 908 939 q 960 883 972 913 q 897 853 918 869 q 865 803 876 836 q 840 700 853 769 l 779 354 q 697 125 754 211 q 547 7 640 39 q 449 -73 485 -25 q 414 -171 414 -121 q 432 -220 414 -201 q 483 -239 450 -239 q 529 -226 511 -239 q 554 -275 550 -246 q 450 -356 494 -311 q 421 -360 438 -360 q 331 -329 365 -360 q 296 -240 296 -299 q 330 -121 296 -179 q 435 -12 364 -62 l 418 -12 q 200 56 272 -12 q 128 253 128 125 q 138 356 128 306 l 208 769 q 214 824 214 799 q 200 866 214 853 q 151 883 186 879 q 149 914 149 893 q 150 943 149 933 q 304 939 215 939 q 471 943 403 939 q 458 883 468 907 q 392 869 414 879 q 358 833 369 858 q 336 756 346 808 l 268 361 q 258 264 258 311 q 308 110 258 160 q 446 61 357 61 q 615 134 547 61 q 707 342 683 207 l 772 714 q 781 789 781 760 q 763 849 781 829 q 697 883 744 868 q 694 915 694 894 q 696 943 694 933 q 833 939 754 939 z "},"Ů":{"ha":882,"x_min":128,"x_max":972,"o":"m 418 -12 q 200 56 272 -12 q 128 253 128 125 q 138 356 128 306 l 208 769 q 214 824 214 799 q 200 866 214 853 q 151 883 186 879 q 149 914 149 893 q 150 943 149 933 q 304 939 215 939 q 471 943 403 939 q 458 883 468 907 q 392 869 414 879 q 358 833 369 858 q 336 756 346 808 l 268 361 q 258 264 258 311 q 308 110 258 160 q 446 61 357 61 q 615 134 547 61 q 707 342 683 207 l 772 714 q 781 789 781 760 q 763 849 781 829 q 697 883 744 868 q 694 915 694 894 q 696 943 694 933 q 833 939 754 939 q 972 943 908 939 q 960 883 972 913 q 897 853 918 869 q 865 803 876 836 q 840 700 853 769 l 779 354 q 658 77 746 167 q 418 -12 569 -12 m 608 1003 q 510 1029 544 1003 q 475 1099 475 1056 q 514 1183 475 1153 q 622 1214 553 1214 q 723 1186 692 1214 q 754 1115 754 1158 q 716 1033 754 1063 q 608 1003 678 1003 m 611 1050 q 675 1099 663 1050 q 678 1115 678 1110 q 662 1154 678 1139 q 619 1169 646 1169 q 569 1149 589 1169 q 549 1100 549 1128 q 565 1063 549 1076 q 611 1050 582 1050 z "}}}
